ISO-10303-21;
HEADER;
/* Generated by software containing ST-Developer
 * from STEP Tools, Inc. (www.steptools.com) 
 */
/* OPTION: using custom renumber hook */

FILE_DESCRIPTION(
/* description */ ('STEP AP242 Edition 2',
'CAx-IF Rec.Pracs.---Representation and Presentation of Product Manufa
cturing Information (PMI)---4.0---2014-10-13',
'CAx-IF Rec.Pracs.---3D Tessellated Geometry---0.4---2014-09-14','2;1',
'CAx-IF Rec.Pracs.---User Defined Attributes---1.5---2016-08-15'),
/* implementation_level */ '2;1');

FILE_NAME(
/* name */ 'Heat Spreader (2.5mm) - Part 2',
/* time_stamp */ '2026-07-28T05:44:03Z',
/* author */ (''),
/* organization */ (''),
/* preprocessor_version */ 'ST-DEVELOPER v20',
/* originating_system */ 'ONSHAPE BY PTC INC, 1.218',
/* authorisation */ '  ');

FILE_SCHEMA (('AP242_MANAGED_MODEL_BASED_3D_ENGINEERING_MIM_LF { 1 0 10303 442 3 1 4 }'));
ENDSEC;

DATA;
#10=SHAPE_REPRESENTATION_RELATIONSHIP('','',#1257,#11);
#11=ADVANCED_BREP_SHAPE_REPRESENTATION('',(#1255),#2175);
#12=CIRCLE('',#1266,0.0029128970842906);
#13=CIRCLE('',#1267,0.0029128970842906);
#14=CIRCLE('',#1269,0.002997840230887);
#15=CIRCLE('',#1270,0.002997840230887);
#16=CIRCLE('',#1273,0.002997840230887);
#17=CIRCLE('',#1274,0.002997840230887);
#18=CIRCLE('',#1276,0.00291289708429057);
#19=CIRCLE('',#1277,0.00291289708429057);
#20=CIRCLE('',#1280,0.00291289708429063);
#21=CIRCLE('',#1281,0.00291289708429063);
#22=CIRCLE('',#1283,0.00299784023089289);
#23=CIRCLE('',#1284,0.00299784023089289);
#24=CIRCLE('',#1287,0.002997840230887);
#25=CIRCLE('',#1288,0.002997840230887);
#26=CIRCLE('',#1290,0.00291289708429063);
#27=CIRCLE('',#1291,0.00291289708429063);
#28=CIRCLE('',#1294,0.00291289708429063);
#29=CIRCLE('',#1295,0.00291289708429063);
#30=CIRCLE('',#1297,0.002997840230887);
#31=CIRCLE('',#1298,0.002997840230887);
#32=CIRCLE('',#1301,0.002997840230887);
#33=CIRCLE('',#1302,0.002997840230887);
#34=CIRCLE('',#1304,0.00291289708429065);
#35=CIRCLE('',#1305,0.00291289708429065);
#36=CIRCLE('',#1308,0.00291289708429061);
#37=CIRCLE('',#1309,0.00291289708429061);
#38=CIRCLE('',#1311,0.002997840230887);
#39=CIRCLE('',#1312,0.002997840230887);
#40=CIRCLE('',#1315,0.002997840230887);
#41=CIRCLE('',#1316,0.002997840230887);
#42=CIRCLE('',#1318,0.003);
#43=CIRCLE('',#1319,0.003);
#44=CIRCLE('',#1321,0.0018);
#45=CIRCLE('',#1322,0.0018);
#46=CIRCLE('',#1326,0.0018);
#47=CIRCLE('',#1327,0.0018);
#48=CIRCLE('',#1329,0.003);
#49=CIRCLE('',#1330,0.003);
#50=CIRCLE('',#1332,0.0018);
#51=CIRCLE('',#1333,0.0018);
#52=CIRCLE('',#1336,0.0018);
#53=CIRCLE('',#1337,0.0018);
#54=CIRCLE('',#1339,0.003);
#55=CIRCLE('',#1340,0.003);
#56=CIRCLE('',#1342,0.0018);
#57=CIRCLE('',#1343,0.0018);
#58=CIRCLE('',#1346,0.0018);
#59=CIRCLE('',#1347,0.0018);
#60=CIRCLE('',#1349,0.003);
#61=CIRCLE('',#1350,0.003);
#62=CIRCLE('',#1352,0.0018);
#63=CIRCLE('',#1353,0.0018);
#64=CIRCLE('',#1356,0.00291289708429061);
#65=CIRCLE('',#1357,0.00291289708429061);
#66=CIRCLE('',#1359,0.00291289708429061);
#67=CIRCLE('',#1360,0.00291289708429061);
#68=CIRCLE('',#1362,0.00155);
#69=CIRCLE('',#1363,0.00155);
#70=CIRCLE('',#1365,0.00155);
#71=CIRCLE('',#1366,0.00155);
#72=CIRCLE('',#1368,0.00156814021053353);
#73=CIRCLE('',#1369,0.00156814021053353);
#74=CIRCLE('',#1371,0.00160281883534021);
#75=CIRCLE('',#1372,0.00160281883534021);
#76=CIRCLE('',#1374,0.0018);
#77=CIRCLE('',#1375,0.0018);
#78=CIRCLE('',#1377,0.00291289708429062);
#79=CIRCLE('',#1378,0.00291289708429062);
#80=CIRCLE('',#1380,0.002);
#81=CIRCLE('',#1381,0.00146557893282239);
#82=CIRCLE('',#1382,0.002);
#83=CIRCLE('',#1383,0.002);
#84=CIRCLE('',#1384,0.00144291666783752);
#85=CIRCLE('',#1385,0.002);
#86=CIRCLE('',#1387,0.00144291666783752);
#87=CIRCLE('',#1388,0.002);
#88=CIRCLE('',#1389,0.002);
#89=CIRCLE('',#1390,0.00146557893282239);
#90=CIRCLE('',#1391,0.002);
#91=CIRCLE('',#1392,0.00118296464556282);
#92=CIRCLE('',#1393,0.00118296464556282);
#93=CIRCLE('',#1394,0.002);
#94=CIRCLE('',#1396,0.00118296464556282);
#95=CIRCLE('',#1398,0.00118296464556282);
#96=CYLINDRICAL_SURFACE('',#1265,0.0029128970842906);
#97=CYLINDRICAL_SURFACE('',#1268,0.002997840230887);
#98=CYLINDRICAL_SURFACE('',#1272,0.002997840230887);
#99=CYLINDRICAL_SURFACE('',#1275,0.00291289708429057);
#100=CYLINDRICAL_SURFACE('',#1279,0.00291289708429063);
#101=CYLINDRICAL_SURFACE('',#1282,0.00299784023089289);
#102=CYLINDRICAL_SURFACE('',#1286,0.002997840230887);
#103=CYLINDRICAL_SURFACE('',#1289,0.00291289708429063);
#104=CYLINDRICAL_SURFACE('',#1293,0.00291289708429063);
#105=CYLINDRICAL_SURFACE('',#1296,0.002997840230887);
#106=CYLINDRICAL_SURFACE('',#1300,0.002997840230887);
#107=CYLINDRICAL_SURFACE('',#1303,0.00291289708429065);
#108=CYLINDRICAL_SURFACE('',#1307,0.00291289708429061);
#109=CYLINDRICAL_SURFACE('',#1310,0.002997840230887);
#110=CYLINDRICAL_SURFACE('',#1314,0.002997840230887);
#111=CYLINDRICAL_SURFACE('',#1317,0.003);
#112=CYLINDRICAL_SURFACE('',#1320,0.0018);
#113=CYLINDRICAL_SURFACE('',#1325,0.0018);
#114=CYLINDRICAL_SURFACE('',#1328,0.003);
#115=CYLINDRICAL_SURFACE('',#1331,0.0018);
#116=CYLINDRICAL_SURFACE('',#1335,0.0018);
#117=CYLINDRICAL_SURFACE('',#1338,0.003);
#118=CYLINDRICAL_SURFACE('',#1341,0.0018);
#119=CYLINDRICAL_SURFACE('',#1345,0.0018);
#120=CYLINDRICAL_SURFACE('',#1348,0.003);
#121=CYLINDRICAL_SURFACE('',#1351,0.0018);
#122=CYLINDRICAL_SURFACE('',#1355,0.00291289708429061);
#123=CYLINDRICAL_SURFACE('',#1358,0.00291289708429061);
#124=CYLINDRICAL_SURFACE('',#1361,0.00155);
#125=CYLINDRICAL_SURFACE('',#1364,0.00155);
#126=CYLINDRICAL_SURFACE('',#1367,0.00156814021053353);
#127=CYLINDRICAL_SURFACE('',#1370,0.00160281883534021);
#128=CYLINDRICAL_SURFACE('',#1373,0.0018);
#129=CYLINDRICAL_SURFACE('',#1376,0.00291289708429062);
#130=CYLINDRICAL_SURFACE('',#1395,0.00118296464556282);
#131=CYLINDRICAL_SURFACE('',#1397,0.00118296464556282);
#132=CYLINDRICAL_SURFACE('',#1399,0.00146557893282239);
#133=CYLINDRICAL_SURFACE('',#1400,0.00144291666783752);
#134=CYLINDRICAL_SURFACE('',#1401,0.002);
#135=CYLINDRICAL_SURFACE('',#1402,0.002);
#136=CYLINDRICAL_SURFACE('',#1403,0.002);
#137=CYLINDRICAL_SURFACE('',#1404,0.002);
#138=ORIENTED_EDGE('',*,*,#502,.T.);
#139=ORIENTED_EDGE('',*,*,#503,.T.);
#140=ORIENTED_EDGE('',*,*,#504,.T.);
#141=ORIENTED_EDGE('',*,*,#505,.T.);
#142=ORIENTED_EDGE('',*,*,#506,.F.);
#143=ORIENTED_EDGE('',*,*,#507,.T.);
#144=ORIENTED_EDGE('',*,*,#508,.T.);
#145=ORIENTED_EDGE('',*,*,#509,.T.);
#146=ORIENTED_EDGE('',*,*,#510,.T.);
#147=ORIENTED_EDGE('',*,*,#511,.F.);
#148=ORIENTED_EDGE('',*,*,#512,.F.);
#149=ORIENTED_EDGE('',*,*,#513,.T.);
#150=ORIENTED_EDGE('',*,*,#514,.T.);
#151=ORIENTED_EDGE('',*,*,#515,.F.);
#152=ORIENTED_EDGE('',*,*,#516,.F.);
#153=ORIENTED_EDGE('',*,*,#517,.T.);
#154=ORIENTED_EDGE('',*,*,#518,.T.);
#155=ORIENTED_EDGE('',*,*,#519,.T.);
#156=ORIENTED_EDGE('',*,*,#520,.F.);
#157=ORIENTED_EDGE('',*,*,#521,.T.);
#158=ORIENTED_EDGE('',*,*,#522,.T.);
#159=ORIENTED_EDGE('',*,*,#523,.T.);
#160=ORIENTED_EDGE('',*,*,#524,.F.);
#161=ORIENTED_EDGE('',*,*,#525,.T.);
#162=ORIENTED_EDGE('',*,*,#526,.T.);
#163=ORIENTED_EDGE('',*,*,#527,.F.);
#164=ORIENTED_EDGE('',*,*,#528,.F.);
#165=ORIENTED_EDGE('',*,*,#529,.T.);
#166=ORIENTED_EDGE('',*,*,#530,.T.);
#167=ORIENTED_EDGE('',*,*,#531,.F.);
#168=ORIENTED_EDGE('',*,*,#532,.F.);
#169=ORIENTED_EDGE('',*,*,#527,.T.);
#170=ORIENTED_EDGE('',*,*,#533,.T.);
#171=ORIENTED_EDGE('',*,*,#534,.F.);
#172=ORIENTED_EDGE('',*,*,#535,.F.);
#173=ORIENTED_EDGE('',*,*,#531,.T.);
#174=ORIENTED_EDGE('',*,*,#536,.T.);
#175=ORIENTED_EDGE('',*,*,#537,.F.);
#176=ORIENTED_EDGE('',*,*,#538,.F.);
#177=ORIENTED_EDGE('',*,*,#534,.T.);
#178=ORIENTED_EDGE('',*,*,#539,.T.);
#179=ORIENTED_EDGE('',*,*,#540,.F.);
#180=ORIENTED_EDGE('',*,*,#541,.F.);
#181=ORIENTED_EDGE('',*,*,#537,.T.);
#182=ORIENTED_EDGE('',*,*,#542,.T.);
#183=ORIENTED_EDGE('',*,*,#543,.F.);
#184=ORIENTED_EDGE('',*,*,#544,.F.);
#185=ORIENTED_EDGE('',*,*,#540,.T.);
#186=ORIENTED_EDGE('',*,*,#545,.T.);
#187=ORIENTED_EDGE('',*,*,#546,.F.);
#188=ORIENTED_EDGE('',*,*,#547,.F.);
#189=ORIENTED_EDGE('',*,*,#543,.T.);
#190=ORIENTED_EDGE('',*,*,#548,.T.);
#191=ORIENTED_EDGE('',*,*,#549,.F.);
#192=ORIENTED_EDGE('',*,*,#550,.F.);
#193=ORIENTED_EDGE('',*,*,#546,.T.);
#194=ORIENTED_EDGE('',*,*,#551,.T.);
#195=ORIENTED_EDGE('',*,*,#552,.F.);
#196=ORIENTED_EDGE('',*,*,#553,.F.);
#197=ORIENTED_EDGE('',*,*,#549,.T.);
#198=ORIENTED_EDGE('',*,*,#554,.T.);
#199=ORIENTED_EDGE('',*,*,#555,.F.);
#200=ORIENTED_EDGE('',*,*,#556,.F.);
#201=ORIENTED_EDGE('',*,*,#552,.T.);
#202=ORIENTED_EDGE('',*,*,#557,.T.);
#203=ORIENTED_EDGE('',*,*,#558,.F.);
#204=ORIENTED_EDGE('',*,*,#559,.F.);
#205=ORIENTED_EDGE('',*,*,#555,.T.);
#206=ORIENTED_EDGE('',*,*,#560,.T.);
#207=ORIENTED_EDGE('',*,*,#561,.F.);
#208=ORIENTED_EDGE('',*,*,#562,.F.);
#209=ORIENTED_EDGE('',*,*,#558,.T.);
#210=ORIENTED_EDGE('',*,*,#563,.T.);
#211=ORIENTED_EDGE('',*,*,#564,.F.);
#212=ORIENTED_EDGE('',*,*,#565,.F.);
#213=ORIENTED_EDGE('',*,*,#561,.T.);
#214=ORIENTED_EDGE('',*,*,#566,.T.);
#215=ORIENTED_EDGE('',*,*,#567,.F.);
#216=ORIENTED_EDGE('',*,*,#568,.F.);
#217=ORIENTED_EDGE('',*,*,#564,.T.);
#218=ORIENTED_EDGE('',*,*,#569,.T.);
#219=ORIENTED_EDGE('',*,*,#570,.F.);
#220=ORIENTED_EDGE('',*,*,#571,.F.);
#221=ORIENTED_EDGE('',*,*,#567,.T.);
#222=ORIENTED_EDGE('',*,*,#572,.T.);
#223=ORIENTED_EDGE('',*,*,#573,.F.);
#224=ORIENTED_EDGE('',*,*,#574,.F.);
#225=ORIENTED_EDGE('',*,*,#570,.T.);
#226=ORIENTED_EDGE('',*,*,#575,.T.);
#227=ORIENTED_EDGE('',*,*,#576,.F.);
#228=ORIENTED_EDGE('',*,*,#577,.F.);
#229=ORIENTED_EDGE('',*,*,#573,.T.);
#230=ORIENTED_EDGE('',*,*,#578,.T.);
#231=ORIENTED_EDGE('',*,*,#579,.F.);
#232=ORIENTED_EDGE('',*,*,#580,.F.);
#233=ORIENTED_EDGE('',*,*,#576,.T.);
#234=ORIENTED_EDGE('',*,*,#581,.F.);
#235=ORIENTED_EDGE('',*,*,#582,.F.);
#236=ORIENTED_EDGE('',*,*,#583,.T.);
#237=ORIENTED_EDGE('',*,*,#579,.T.);
#238=ORIENTED_EDGE('',*,*,#584,.T.);
#239=ORIENTED_EDGE('',*,*,#585,.F.);
#240=ORIENTED_EDGE('',*,*,#586,.F.);
#241=ORIENTED_EDGE('',*,*,#582,.T.);
#242=ORIENTED_EDGE('',*,*,#587,.T.);
#243=ORIENTED_EDGE('',*,*,#588,.F.);
#244=ORIENTED_EDGE('',*,*,#589,.F.);
#245=ORIENTED_EDGE('',*,*,#585,.T.);
#246=ORIENTED_EDGE('',*,*,#590,.T.);
#247=ORIENTED_EDGE('',*,*,#591,.F.);
#248=ORIENTED_EDGE('',*,*,#592,.F.);
#249=ORIENTED_EDGE('',*,*,#588,.T.);
#250=ORIENTED_EDGE('',*,*,#593,.T.);
#251=ORIENTED_EDGE('',*,*,#594,.F.);
#252=ORIENTED_EDGE('',*,*,#595,.F.);
#253=ORIENTED_EDGE('',*,*,#591,.T.);
#254=ORIENTED_EDGE('',*,*,#596,.F.);
#255=ORIENTED_EDGE('',*,*,#597,.F.);
#256=ORIENTED_EDGE('',*,*,#598,.T.);
#257=ORIENTED_EDGE('',*,*,#599,.T.);
#258=ORIENTED_EDGE('',*,*,#600,.F.);
#259=ORIENTED_EDGE('',*,*,#601,.F.);
#260=ORIENTED_EDGE('',*,*,#602,.T.);
#261=ORIENTED_EDGE('',*,*,#597,.T.);
#262=ORIENTED_EDGE('',*,*,#603,.F.);
#263=ORIENTED_EDGE('',*,*,#525,.F.);
#264=ORIENTED_EDGE('',*,*,#604,.T.);
#265=ORIENTED_EDGE('',*,*,#601,.T.);
#266=ORIENTED_EDGE('',*,*,#605,.F.);
#267=ORIENTED_EDGE('',*,*,#606,.T.);
#268=ORIENTED_EDGE('',*,*,#607,.T.);
#269=ORIENTED_EDGE('',*,*,#608,.F.);
#270=ORIENTED_EDGE('',*,*,#609,.T.);
#271=ORIENTED_EDGE('',*,*,#610,.F.);
#272=ORIENTED_EDGE('',*,*,#611,.F.);
#273=ORIENTED_EDGE('',*,*,#608,.T.);
#274=ORIENTED_EDGE('',*,*,#612,.T.);
#275=ORIENTED_EDGE('',*,*,#613,.F.);
#276=ORIENTED_EDGE('',*,*,#614,.F.);
#277=ORIENTED_EDGE('',*,*,#610,.T.);
#278=ORIENTED_EDGE('',*,*,#615,.T.);
#279=ORIENTED_EDGE('',*,*,#616,.F.);
#280=ORIENTED_EDGE('',*,*,#617,.F.);
#281=ORIENTED_EDGE('',*,*,#613,.T.);
#282=ORIENTED_EDGE('',*,*,#618,.T.);
#283=ORIENTED_EDGE('',*,*,#619,.F.);
#284=ORIENTED_EDGE('',*,*,#620,.F.);
#285=ORIENTED_EDGE('',*,*,#616,.T.);
#286=ORIENTED_EDGE('',*,*,#621,.T.);
#287=ORIENTED_EDGE('',*,*,#622,.F.);
#288=ORIENTED_EDGE('',*,*,#623,.F.);
#289=ORIENTED_EDGE('',*,*,#619,.T.);
#290=ORIENTED_EDGE('',*,*,#624,.T.);
#291=ORIENTED_EDGE('',*,*,#625,.F.);
#292=ORIENTED_EDGE('',*,*,#626,.F.);
#293=ORIENTED_EDGE('',*,*,#622,.T.);
#294=ORIENTED_EDGE('',*,*,#627,.T.);
#295=ORIENTED_EDGE('',*,*,#521,.F.);
#296=ORIENTED_EDGE('',*,*,#628,.F.);
#297=ORIENTED_EDGE('',*,*,#625,.T.);
#298=ORIENTED_EDGE('',*,*,#629,.F.);
#299=ORIENTED_EDGE('',*,*,#630,.T.);
#300=ORIENTED_EDGE('',*,*,#631,.T.);
#301=ORIENTED_EDGE('',*,*,#632,.F.);
#302=ORIENTED_EDGE('',*,*,#633,.T.);
#303=ORIENTED_EDGE('',*,*,#634,.F.);
#304=ORIENTED_EDGE('',*,*,#635,.F.);
#305=ORIENTED_EDGE('',*,*,#632,.T.);
#306=ORIENTED_EDGE('',*,*,#636,.T.);
#307=ORIENTED_EDGE('',*,*,#637,.F.);
#308=ORIENTED_EDGE('',*,*,#638,.F.);
#309=ORIENTED_EDGE('',*,*,#634,.T.);
#310=ORIENTED_EDGE('',*,*,#639,.T.);
#311=ORIENTED_EDGE('',*,*,#640,.F.);
#312=ORIENTED_EDGE('',*,*,#641,.F.);
#313=ORIENTED_EDGE('',*,*,#637,.T.);
#314=ORIENTED_EDGE('',*,*,#642,.T.);
#315=ORIENTED_EDGE('',*,*,#643,.F.);
#316=ORIENTED_EDGE('',*,*,#644,.F.);
#317=ORIENTED_EDGE('',*,*,#640,.T.);
#318=ORIENTED_EDGE('',*,*,#645,.F.);
#319=ORIENTED_EDGE('',*,*,#505,.F.);
#320=ORIENTED_EDGE('',*,*,#646,.T.);
#321=ORIENTED_EDGE('',*,*,#643,.T.);
#322=ORIENTED_EDGE('',*,*,#647,.F.);
#323=ORIENTED_EDGE('',*,*,#648,.F.);
#324=ORIENTED_EDGE('',*,*,#649,.T.);
#325=ORIENTED_EDGE('',*,*,#516,.T.);
#326=ORIENTED_EDGE('',*,*,#650,.T.);
#327=ORIENTED_EDGE('',*,*,#651,.F.);
#328=ORIENTED_EDGE('',*,*,#652,.T.);
#329=ORIENTED_EDGE('',*,*,#653,.F.);
#330=ORIENTED_EDGE('',*,*,#654,.T.);
#331=ORIENTED_EDGE('',*,*,#655,.F.);
#332=ORIENTED_EDGE('',*,*,#656,.T.);
#333=ORIENTED_EDGE('',*,*,#657,.F.);
#334=ORIENTED_EDGE('',*,*,#658,.T.);
#335=ORIENTED_EDGE('',*,*,#599,.F.);
#336=ORIENTED_EDGE('',*,*,#659,.F.);
#337=ORIENTED_EDGE('',*,*,#648,.T.);
#338=ORIENTED_EDGE('',*,*,#660,.T.);
#339=ORIENTED_EDGE('',*,*,#529,.F.);
#340=ORIENTED_EDGE('',*,*,#661,.F.);
#341=ORIENTED_EDGE('',*,*,#594,.T.);
#342=ORIENTED_EDGE('',*,*,#662,.F.);
#343=ORIENTED_EDGE('',*,*,#517,.F.);
#344=ORIENTED_EDGE('',*,*,#649,.F.);
#345=ORIENTED_EDGE('',*,*,#659,.T.);
#346=ORIENTED_EDGE('',*,*,#598,.F.);
#347=ORIENTED_EDGE('',*,*,#602,.F.);
#348=ORIENTED_EDGE('',*,*,#604,.F.);
#349=ORIENTED_EDGE('',*,*,#524,.T.);
#350=ORIENTED_EDGE('',*,*,#663,.T.);
#351=ORIENTED_EDGE('',*,*,#664,.F.);
#352=ORIENTED_EDGE('',*,*,#665,.T.);
#353=ORIENTED_EDGE('',*,*,#605,.T.);
#354=ORIENTED_EDGE('',*,*,#611,.T.);
#355=ORIENTED_EDGE('',*,*,#614,.T.);
#356=ORIENTED_EDGE('',*,*,#617,.T.);
#357=ORIENTED_EDGE('',*,*,#620,.T.);
#358=ORIENTED_EDGE('',*,*,#623,.T.);
#359=ORIENTED_EDGE('',*,*,#626,.T.);
#360=ORIENTED_EDGE('',*,*,#628,.T.);
#361=ORIENTED_EDGE('',*,*,#520,.T.);
#362=ORIENTED_EDGE('',*,*,#666,.T.);
#363=ORIENTED_EDGE('',*,*,#667,.F.);
#364=ORIENTED_EDGE('',*,*,#668,.T.);
#365=ORIENTED_EDGE('',*,*,#629,.T.);
#366=ORIENTED_EDGE('',*,*,#635,.T.);
#367=ORIENTED_EDGE('',*,*,#638,.T.);
#368=ORIENTED_EDGE('',*,*,#641,.T.);
#369=ORIENTED_EDGE('',*,*,#644,.T.);
#370=ORIENTED_EDGE('',*,*,#646,.F.);
#371=ORIENTED_EDGE('',*,*,#504,.F.);
#372=ORIENTED_EDGE('',*,*,#656,.F.);
#373=ORIENTED_EDGE('',*,*,#654,.F.);
#374=ORIENTED_EDGE('',*,*,#652,.F.);
#375=ORIENTED_EDGE('',*,*,#650,.F.);
#376=ORIENTED_EDGE('',*,*,#528,.T.);
#377=ORIENTED_EDGE('',*,*,#532,.T.);
#378=ORIENTED_EDGE('',*,*,#535,.T.);
#379=ORIENTED_EDGE('',*,*,#538,.T.);
#380=ORIENTED_EDGE('',*,*,#541,.T.);
#381=ORIENTED_EDGE('',*,*,#544,.T.);
#382=ORIENTED_EDGE('',*,*,#547,.T.);
#383=ORIENTED_EDGE('',*,*,#550,.T.);
#384=ORIENTED_EDGE('',*,*,#553,.T.);
#385=ORIENTED_EDGE('',*,*,#556,.T.);
#386=ORIENTED_EDGE('',*,*,#559,.T.);
#387=ORIENTED_EDGE('',*,*,#562,.T.);
#388=ORIENTED_EDGE('',*,*,#565,.T.);
#389=ORIENTED_EDGE('',*,*,#568,.T.);
#390=ORIENTED_EDGE('',*,*,#571,.T.);
#391=ORIENTED_EDGE('',*,*,#574,.T.);
#392=ORIENTED_EDGE('',*,*,#577,.T.);
#393=ORIENTED_EDGE('',*,*,#580,.T.);
#394=ORIENTED_EDGE('',*,*,#583,.F.);
#395=ORIENTED_EDGE('',*,*,#586,.T.);
#396=ORIENTED_EDGE('',*,*,#589,.T.);
#397=ORIENTED_EDGE('',*,*,#592,.T.);
#398=ORIENTED_EDGE('',*,*,#595,.T.);
#399=ORIENTED_EDGE('',*,*,#661,.T.);
#400=ORIENTED_EDGE('',*,*,#669,.T.);
#401=ORIENTED_EDGE('',*,*,#670,.T.);
#402=ORIENTED_EDGE('',*,*,#518,.F.);
#403=ORIENTED_EDGE('',*,*,#627,.F.);
#404=ORIENTED_EDGE('',*,*,#624,.F.);
#405=ORIENTED_EDGE('',*,*,#621,.F.);
#406=ORIENTED_EDGE('',*,*,#618,.F.);
#407=ORIENTED_EDGE('',*,*,#615,.F.);
#408=ORIENTED_EDGE('',*,*,#612,.F.);
#409=ORIENTED_EDGE('',*,*,#609,.F.);
#410=ORIENTED_EDGE('',*,*,#607,.F.);
#411=ORIENTED_EDGE('',*,*,#671,.T.);
#412=ORIENTED_EDGE('',*,*,#672,.T.);
#413=ORIENTED_EDGE('',*,*,#673,.T.);
#414=ORIENTED_EDGE('',*,*,#522,.F.);
#415=ORIENTED_EDGE('',*,*,#603,.T.);
#416=ORIENTED_EDGE('',*,*,#600,.T.);
#417=ORIENTED_EDGE('',*,*,#596,.T.);
#418=ORIENTED_EDGE('',*,*,#658,.F.);
#419=ORIENTED_EDGE('',*,*,#647,.T.);
#420=ORIENTED_EDGE('',*,*,#515,.T.);
#421=ORIENTED_EDGE('',*,*,#674,.T.);
#422=ORIENTED_EDGE('',*,*,#511,.T.);
#423=ORIENTED_EDGE('',*,*,#675,.T.);
#424=ORIENTED_EDGE('',*,*,#506,.T.);
#425=ORIENTED_EDGE('',*,*,#645,.T.);
#426=ORIENTED_EDGE('',*,*,#642,.F.);
#427=ORIENTED_EDGE('',*,*,#639,.F.);
#428=ORIENTED_EDGE('',*,*,#636,.F.);
#429=ORIENTED_EDGE('',*,*,#633,.F.);
#430=ORIENTED_EDGE('',*,*,#631,.F.);
#431=ORIENTED_EDGE('',*,*,#676,.T.);
#432=ORIENTED_EDGE('',*,*,#657,.T.);
#433=ORIENTED_EDGE('',*,*,#655,.T.);
#434=ORIENTED_EDGE('',*,*,#653,.T.);
#435=ORIENTED_EDGE('',*,*,#651,.T.);
#436=ORIENTED_EDGE('',*,*,#526,.F.);
#437=ORIENTED_EDGE('',*,*,#660,.F.);
#438=ORIENTED_EDGE('',*,*,#593,.F.);
#439=ORIENTED_EDGE('',*,*,#590,.F.);
#440=ORIENTED_EDGE('',*,*,#587,.F.);
#441=ORIENTED_EDGE('',*,*,#584,.F.);
#442=ORIENTED_EDGE('',*,*,#581,.T.);
#443=ORIENTED_EDGE('',*,*,#578,.F.);
#444=ORIENTED_EDGE('',*,*,#575,.F.);
#445=ORIENTED_EDGE('',*,*,#572,.F.);
#446=ORIENTED_EDGE('',*,*,#569,.F.);
#447=ORIENTED_EDGE('',*,*,#566,.F.);
#448=ORIENTED_EDGE('',*,*,#563,.F.);
#449=ORIENTED_EDGE('',*,*,#560,.F.);
#450=ORIENTED_EDGE('',*,*,#557,.F.);
#451=ORIENTED_EDGE('',*,*,#554,.F.);
#452=ORIENTED_EDGE('',*,*,#551,.F.);
#453=ORIENTED_EDGE('',*,*,#548,.F.);
#454=ORIENTED_EDGE('',*,*,#545,.F.);
#455=ORIENTED_EDGE('',*,*,#542,.F.);
#456=ORIENTED_EDGE('',*,*,#539,.F.);
#457=ORIENTED_EDGE('',*,*,#536,.F.);
#458=ORIENTED_EDGE('',*,*,#533,.F.);
#459=ORIENTED_EDGE('',*,*,#530,.F.);
#460=ORIENTED_EDGE('',*,*,#677,.F.);
#461=ORIENTED_EDGE('',*,*,#508,.F.);
#462=ORIENTED_EDGE('',*,*,#674,.F.);
#463=ORIENTED_EDGE('',*,*,#514,.F.);
#464=ORIENTED_EDGE('',*,*,#678,.F.);
#465=ORIENTED_EDGE('',*,*,#507,.F.);
#466=ORIENTED_EDGE('',*,*,#675,.F.);
#467=ORIENTED_EDGE('',*,*,#510,.F.);
#468=ORIENTED_EDGE('',*,*,#672,.F.);
#469=ORIENTED_EDGE('',*,*,#679,.T.);
#470=ORIENTED_EDGE('',*,*,#664,.T.);
#471=ORIENTED_EDGE('',*,*,#680,.T.);
#472=ORIENTED_EDGE('',*,*,#667,.T.);
#473=ORIENTED_EDGE('',*,*,#681,.T.);
#474=ORIENTED_EDGE('',*,*,#669,.F.);
#475=ORIENTED_EDGE('',*,*,#682,.T.);
#476=ORIENTED_EDGE('',*,*,#666,.F.);
#477=ORIENTED_EDGE('',*,*,#519,.F.);
#478=ORIENTED_EDGE('',*,*,#670,.F.);
#479=ORIENTED_EDGE('',*,*,#681,.F.);
#480=ORIENTED_EDGE('',*,*,#668,.F.);
#481=ORIENTED_EDGE('',*,*,#682,.F.);
#482=ORIENTED_EDGE('',*,*,#676,.F.);
#483=ORIENTED_EDGE('',*,*,#630,.F.);
#484=ORIENTED_EDGE('',*,*,#665,.F.);
#485=ORIENTED_EDGE('',*,*,#679,.F.);
#486=ORIENTED_EDGE('',*,*,#671,.F.);
#487=ORIENTED_EDGE('',*,*,#606,.F.);
#488=ORIENTED_EDGE('',*,*,#663,.F.);
#489=ORIENTED_EDGE('',*,*,#523,.F.);
#490=ORIENTED_EDGE('',*,*,#673,.F.);
#491=ORIENTED_EDGE('',*,*,#680,.F.);
#492=ORIENTED_EDGE('',*,*,#662,.T.);
#493=ORIENTED_EDGE('',*,*,#503,.F.);
#494=ORIENTED_EDGE('',*,*,#683,.F.);
#495=ORIENTED_EDGE('',*,*,#512,.T.);
#496=ORIENTED_EDGE('',*,*,#513,.F.);
#497=ORIENTED_EDGE('',*,*,#683,.T.);
#498=ORIENTED_EDGE('',*,*,#502,.F.);
#499=ORIENTED_EDGE('',*,*,#678,.T.);
#500=ORIENTED_EDGE('',*,*,#509,.F.);
#501=ORIENTED_EDGE('',*,*,#677,.T.);
#502=EDGE_CURVE('',#684,#685,#808,.T.);
#503=EDGE_CURVE('',#685,#686,#809,.T.);
#504=EDGE_CURVE('',#686,#687,#810,.T.);
#505=EDGE_CURVE('',#687,#688,#811,.T.);
#506=EDGE_CURVE('',#689,#688,#812,.T.);
#507=EDGE_CURVE('',#689,#684,#813,.F.);
#508=EDGE_CURVE('',#690,#691,#814,.F.);
#509=EDGE_CURVE('',#691,#692,#815,.T.);
#510=EDGE_CURVE('',#692,#693,#816,.T.);
#511=EDGE_CURVE('',#690,#693,#817,.T.);
#512=EDGE_CURVE('',#694,#695,#818,.T.);
#513=EDGE_CURVE('',#694,#696,#819,.T.);
#514=EDGE_CURVE('',#696,#697,#820,.T.);
#515=EDGE_CURVE('',#698,#697,#821,.T.);
#516=EDGE_CURVE('',#699,#698,#822,.T.);
#517=EDGE_CURVE('',#699,#695,#823,.T.);
#518=EDGE_CURVE('',#700,#701,#824,.T.);
#519=EDGE_CURVE('',#701,#702,#825,.F.);
#520=EDGE_CURVE('',#703,#702,#826,.T.);
#521=EDGE_CURVE('',#703,#700,#827,.T.);
#522=EDGE_CURVE('',#704,#705,#828,.T.);
#523=EDGE_CURVE('',#705,#706,#829,.F.);
#524=EDGE_CURVE('',#707,#706,#830,.T.);
#525=EDGE_CURVE('',#707,#704,#831,.T.);
#526=EDGE_CURVE('',#708,#709,#832,.T.);
#527=EDGE_CURVE('',#710,#709,#833,.T.);
#528=EDGE_CURVE('',#711,#710,#834,.T.);
#529=EDGE_CURVE('',#711,#708,#835,.T.);
#530=EDGE_CURVE('',#709,#712,#12,.T.);
#531=EDGE_CURVE('',#713,#712,#836,.T.);
#532=EDGE_CURVE('',#710,#713,#13,.T.);
#533=EDGE_CURVE('',#712,#714,#14,.T.);
#534=EDGE_CURVE('',#715,#714,#837,.T.);
#535=EDGE_CURVE('',#713,#715,#15,.T.);
#536=EDGE_CURVE('',#714,#716,#838,.T.);
#537=EDGE_CURVE('',#717,#716,#839,.T.);
#538=EDGE_CURVE('',#715,#717,#840,.T.);
#539=EDGE_CURVE('',#716,#718,#16,.T.);
#540=EDGE_CURVE('',#719,#718,#841,.T.);
#541=EDGE_CURVE('',#717,#719,#17,.T.);
#542=EDGE_CURVE('',#718,#720,#18,.T.);
#543=EDGE_CURVE('',#721,#720,#842,.T.);
#544=EDGE_CURVE('',#719,#721,#19,.T.);
#545=EDGE_CURVE('',#720,#722,#843,.T.);
#546=EDGE_CURVE('',#723,#722,#844,.T.);
#547=EDGE_CURVE('',#721,#723,#845,.T.);
#548=EDGE_CURVE('',#722,#724,#20,.T.);
#549=EDGE_CURVE('',#725,#724,#846,.T.);
#550=EDGE_CURVE('',#723,#725,#21,.T.);
#551=EDGE_CURVE('',#724,#726,#22,.T.);
#552=EDGE_CURVE('',#727,#726,#847,.T.);
#553=EDGE_CURVE('',#725,#727,#23,.T.);
#554=EDGE_CURVE('',#726,#728,#848,.T.);
#555=EDGE_CURVE('',#729,#728,#849,.T.);
#556=EDGE_CURVE('',#727,#729,#850,.T.);
#557=EDGE_CURVE('',#728,#730,#24,.T.);
#558=EDGE_CURVE('',#731,#730,#851,.T.);
#559=EDGE_CURVE('',#729,#731,#25,.T.);
#560=EDGE_CURVE('',#730,#732,#26,.T.);
#561=EDGE_CURVE('',#733,#732,#852,.T.);
#562=EDGE_CURVE('',#731,#733,#27,.T.);
#563=EDGE_CURVE('',#732,#734,#853,.T.);
#564=EDGE_CURVE('',#735,#734,#854,.T.);
#565=EDGE_CURVE('',#733,#735,#855,.T.);
#566=EDGE_CURVE('',#734,#736,#28,.T.);
#567=EDGE_CURVE('',#737,#736,#856,.T.);
#568=EDGE_CURVE('',#735,#737,#29,.T.);
#569=EDGE_CURVE('',#736,#738,#30,.T.);
#570=EDGE_CURVE('',#739,#738,#857,.T.);
#571=EDGE_CURVE('',#737,#739,#31,.T.);
#572=EDGE_CURVE('',#738,#740,#858,.T.);
#573=EDGE_CURVE('',#741,#740,#859,.T.);
#574=EDGE_CURVE('',#739,#741,#860,.T.);
#575=EDGE_CURVE('',#740,#742,#32,.T.);
#576=EDGE_CURVE('',#743,#742,#861,.T.);
#577=EDGE_CURVE('',#741,#743,#33,.T.);
#578=EDGE_CURVE('',#742,#744,#34,.T.);
#579=EDGE_CURVE('',#745,#744,#862,.T.);
#580=EDGE_CURVE('',#743,#745,#35,.T.);
#581=EDGE_CURVE('',#746,#744,#863,.T.);
#582=EDGE_CURVE('',#747,#746,#864,.T.);
#583=EDGE_CURVE('',#747,#745,#865,.T.);
#584=EDGE_CURVE('',#746,#748,#36,.T.);
#585=EDGE_CURVE('',#749,#748,#866,.T.);
#586=EDGE_CURVE('',#747,#749,#37,.T.);
#587=EDGE_CURVE('',#748,#750,#38,.T.);
#588=EDGE_CURVE('',#751,#750,#867,.T.);
#589=EDGE_CURVE('',#749,#751,#39,.T.);
#590=EDGE_CURVE('',#750,#752,#868,.T.);
#591=EDGE_CURVE('',#753,#752,#869,.T.);
#592=EDGE_CURVE('',#751,#753,#870,.T.);
#593=EDGE_CURVE('',#752,#754,#40,.T.);
#594=EDGE_CURVE('',#755,#754,#871,.T.);
#595=EDGE_CURVE('',#753,#755,#41,.T.);
#596=EDGE_CURVE('',#756,#757,#42,.T.);
#597=EDGE_CURVE('',#758,#756,#872,.T.);
#598=EDGE_CURVE('',#758,#759,#43,.T.);
#599=EDGE_CURVE('',#759,#757,#873,.T.);
#600=EDGE_CURVE('',#760,#756,#44,.T.);
#601=EDGE_CURVE('',#761,#760,#874,.T.);
#602=EDGE_CURVE('',#761,#758,#45,.T.);
#603=EDGE_CURVE('',#704,#760,#875,.T.);
#604=EDGE_CURVE('',#707,#761,#876,.T.);
#605=EDGE_CURVE('',#762,#763,#877,.T.);
#606=EDGE_CURVE('',#762,#764,#878,.T.);
#607=EDGE_CURVE('',#764,#765,#879,.T.);
#608=EDGE_CURVE('',#763,#765,#880,.T.);
#609=EDGE_CURVE('',#765,#766,#46,.T.);
#610=EDGE_CURVE('',#767,#766,#881,.T.);
#611=EDGE_CURVE('',#763,#767,#47,.T.);
#612=EDGE_CURVE('',#766,#768,#48,.T.);
#613=EDGE_CURVE('',#769,#768,#882,.T.);
#614=EDGE_CURVE('',#767,#769,#49,.T.);
#615=EDGE_CURVE('',#768,#770,#50,.T.);
#616=EDGE_CURVE('',#771,#770,#883,.T.);
#617=EDGE_CURVE('',#769,#771,#51,.T.);
#618=EDGE_CURVE('',#770,#772,#884,.T.);
#619=EDGE_CURVE('',#773,#772,#885,.T.);
#620=EDGE_CURVE('',#771,#773,#886,.T.);
#621=EDGE_CURVE('',#772,#774,#52,.T.);
#622=EDGE_CURVE('',#775,#774,#887,.T.);
#623=EDGE_CURVE('',#773,#775,#53,.T.);
#624=EDGE_CURVE('',#774,#776,#54,.T.);
#625=EDGE_CURVE('',#777,#776,#888,.T.);
#626=EDGE_CURVE('',#775,#777,#55,.T.);
#627=EDGE_CURVE('',#776,#700,#56,.T.);
#628=EDGE_CURVE('',#777,#703,#57,.T.);
#629=EDGE_CURVE('',#778,#779,#889,.T.);
#630=EDGE_CURVE('',#778,#780,#890,.T.);
#631=EDGE_CURVE('',#780,#781,#891,.T.);
#632=EDGE_CURVE('',#779,#781,#892,.T.);
#633=EDGE_CURVE('',#781,#782,#58,.T.);
#634=EDGE_CURVE('',#783,#782,#893,.T.);
#635=EDGE_CURVE('',#779,#783,#59,.T.);
#636=EDGE_CURVE('',#782,#784,#60,.T.);
#637=EDGE_CURVE('',#785,#784,#894,.T.);
#638=EDGE_CURVE('',#783,#785,#61,.T.);
#639=EDGE_CURVE('',#784,#786,#62,.T.);
#640=EDGE_CURVE('',#787,#786,#895,.T.);
#641=EDGE_CURVE('',#785,#787,#63,.T.);
#642=EDGE_CURVE('',#786,#788,#896,.T.);
#643=EDGE_CURVE('',#789,#788,#897,.T.);
#644=EDGE_CURVE('',#787,#789,#898,.T.);
#645=EDGE_CURVE('',#688,#788,#64,.T.);
#646=EDGE_CURVE('',#687,#789,#65,.T.);
#647=EDGE_CURVE('',#790,#698,#66,.T.);
#648=EDGE_CURVE('',#791,#790,#899,.T.);
#649=EDGE_CURVE('',#791,#699,#67,.T.);
#650=EDGE_CURVE('',#792,#792,#68,.T.);
#651=EDGE_CURVE('',#793,#793,#69,.T.);
#652=EDGE_CURVE('',#794,#794,#70,.T.);
#653=EDGE_CURVE('',#795,#795,#71,.T.);
#654=EDGE_CURVE('',#796,#796,#72,.T.);
#655=EDGE_CURVE('',#797,#797,#73,.T.);
#656=EDGE_CURVE('',#798,#798,#74,.T.);
#657=EDGE_CURVE('',#799,#799,#75,.T.);
#658=EDGE_CURVE('',#790,#757,#76,.T.);
#659=EDGE_CURVE('',#791,#759,#77,.T.);
#660=EDGE_CURVE('',#754,#708,#78,.T.);
#661=EDGE_CURVE('',#755,#711,#79,.T.);
#662=EDGE_CURVE('',#695,#686,#900,.T.);
#663=EDGE_CURVE('',#706,#800,#80,.T.);
#664=EDGE_CURVE('',#801,#800,#81,.T.);
#665=EDGE_CURVE('',#801,#762,#82,.T.);
#666=EDGE_CURVE('',#702,#802,#83,.T.);
#667=EDGE_CURVE('',#803,#802,#84,.T.);
#668=EDGE_CURVE('',#803,#778,#85,.T.);
#669=EDGE_CURVE('',#804,#805,#86,.T.);
#670=EDGE_CURVE('',#805,#701,#87,.F.);
#671=EDGE_CURVE('',#764,#806,#88,.F.);
#672=EDGE_CURVE('',#806,#807,#89,.T.);
#673=EDGE_CURVE('',#807,#705,#90,.F.);
#674=EDGE_CURVE('',#697,#690,#91,.F.);
#675=EDGE_CURVE('',#693,#689,#92,.F.);
#676=EDGE_CURVE('',#780,#804,#93,.F.);
#677=EDGE_CURVE('',#691,#696,#94,.T.);
#678=EDGE_CURVE('',#684,#692,#95,.T.);
#679=EDGE_CURVE('',#806,#801,#901,.F.);
#680=EDGE_CURVE('',#800,#807,#902,.T.);
#681=EDGE_CURVE('',#802,#805,#903,.T.);
#682=EDGE_CURVE('',#804,#803,#904,.F.);
#683=EDGE_CURVE('',#694,#685,#905,.T.);
#684=VERTEX_POINT('',#1806);
#685=VERTEX_POINT('',#1807);
#686=VERTEX_POINT('',#1809);
#687=VERTEX_POINT('',#1811);
#688=VERTEX_POINT('',#1813);
#689=VERTEX_POINT('',#1815);
#690=VERTEX_POINT('',#1819);
#691=VERTEX_POINT('',#1820);
#692=VERTEX_POINT('',#1822);
#693=VERTEX_POINT('',#1824);
#694=VERTEX_POINT('',#1828);
#695=VERTEX_POINT('',#1829);
#696=VERTEX_POINT('',#1831);
#697=VERTEX_POINT('',#1833);
#698=VERTEX_POINT('',#1835);
#699=VERTEX_POINT('',#1837);
#700=VERTEX_POINT('',#1841);
#701=VERTEX_POINT('',#1842);
#702=VERTEX_POINT('',#1844);
#703=VERTEX_POINT('',#1846);
#704=VERTEX_POINT('',#1850);
#705=VERTEX_POINT('',#1851);
#706=VERTEX_POINT('',#1853);
#707=VERTEX_POINT('',#1855);
#708=VERTEX_POINT('',#1859);
#709=VERTEX_POINT('',#1860);
#710=VERTEX_POINT('',#1862);
#711=VERTEX_POINT('',#1864);
#712=VERTEX_POINT('',#1868);
#713=VERTEX_POINT('',#1870);
#714=VERTEX_POINT('',#1874);
#715=VERTEX_POINT('',#1876);
#716=VERTEX_POINT('',#1880);
#717=VERTEX_POINT('',#1882);
#718=VERTEX_POINT('',#1886);
#719=VERTEX_POINT('',#1888);
#720=VERTEX_POINT('',#1892);
#721=VERTEX_POINT('',#1894);
#722=VERTEX_POINT('',#1898);
#723=VERTEX_POINT('',#1900);
#724=VERTEX_POINT('',#1904);
#725=VERTEX_POINT('',#1906);
#726=VERTEX_POINT('',#1910);
#727=VERTEX_POINT('',#1912);
#728=VERTEX_POINT('',#1916);
#729=VERTEX_POINT('',#1918);
#730=VERTEX_POINT('',#1922);
#731=VERTEX_POINT('',#1924);
#732=VERTEX_POINT('',#1928);
#733=VERTEX_POINT('',#1930);
#734=VERTEX_POINT('',#1934);
#735=VERTEX_POINT('',#1936);
#736=VERTEX_POINT('',#1940);
#737=VERTEX_POINT('',#1942);
#738=VERTEX_POINT('',#1946);
#739=VERTEX_POINT('',#1948);
#740=VERTEX_POINT('',#1952);
#741=VERTEX_POINT('',#1954);
#742=VERTEX_POINT('',#1958);
#743=VERTEX_POINT('',#1960);
#744=VERTEX_POINT('',#1964);
#745=VERTEX_POINT('',#1966);
#746=VERTEX_POINT('',#1970);
#747=VERTEX_POINT('',#1972);
#748=VERTEX_POINT('',#1976);
#749=VERTEX_POINT('',#1978);
#750=VERTEX_POINT('',#1982);
#751=VERTEX_POINT('',#1984);
#752=VERTEX_POINT('',#1988);
#753=VERTEX_POINT('',#1990);
#754=VERTEX_POINT('',#1994);
#755=VERTEX_POINT('',#1996);
#756=VERTEX_POINT('',#2000);
#757=VERTEX_POINT('',#2001);
#758=VERTEX_POINT('',#2003);
#759=VERTEX_POINT('',#2005);
#760=VERTEX_POINT('',#2009);
#761=VERTEX_POINT('',#2011);
#762=VERTEX_POINT('',#2018);
#763=VERTEX_POINT('',#2019);
#764=VERTEX_POINT('',#2021);
#765=VERTEX_POINT('',#2023);
#766=VERTEX_POINT('',#2027);
#767=VERTEX_POINT('',#2029);
#768=VERTEX_POINT('',#2033);
#769=VERTEX_POINT('',#2035);
#770=VERTEX_POINT('',#2039);
#771=VERTEX_POINT('',#2041);
#772=VERTEX_POINT('',#2045);
#773=VERTEX_POINT('',#2047);
#774=VERTEX_POINT('',#2051);
#775=VERTEX_POINT('',#2053);
#776=VERTEX_POINT('',#2057);
#777=VERTEX_POINT('',#2059);
#778=VERTEX_POINT('',#2066);
#779=VERTEX_POINT('',#2067);
#780=VERTEX_POINT('',#2069);
#781=VERTEX_POINT('',#2071);
#782=VERTEX_POINT('',#2075);
#783=VERTEX_POINT('',#2077);
#784=VERTEX_POINT('',#2081);
#785=VERTEX_POINT('',#2083);
#786=VERTEX_POINT('',#2087);
#787=VERTEX_POINT('',#2089);
#788=VERTEX_POINT('',#2093);
#789=VERTEX_POINT('',#2095);
#790=VERTEX_POINT('',#2102);
#791=VERTEX_POINT('',#2104);
#792=VERTEX_POINT('',#2108);
#793=VERTEX_POINT('',#2110);
#794=VERTEX_POINT('',#2113);
#795=VERTEX_POINT('',#2115);
#796=VERTEX_POINT('',#2118);
#797=VERTEX_POINT('',#2120);
#798=VERTEX_POINT('',#2123);
#799=VERTEX_POINT('',#2125);
#800=VERTEX_POINT('',#2135);
#801=VERTEX_POINT('',#2137);
#802=VERTEX_POINT('',#2140);
#803=VERTEX_POINT('',#2142);
#804=VERTEX_POINT('',#2146);
#805=VERTEX_POINT('',#2147);
#806=VERTEX_POINT('',#2150);
#807=VERTEX_POINT('',#2152);
#808=LINE('',#1805,#906);
#809=LINE('',#1808,#907);
#810=LINE('',#1810,#908);
#811=LINE('',#1812,#909);
#812=LINE('',#1814,#910);
#813=LINE('',#1816,#911);
#814=LINE('',#1818,#912);
#815=LINE('',#1821,#913);
#816=LINE('',#1823,#914);
#817=LINE('',#1825,#915);
#818=LINE('',#1827,#916);
#819=LINE('',#1830,#917);
#820=LINE('',#1832,#918);
#821=LINE('',#1834,#919);
#822=LINE('',#1836,#920);
#823=LINE('',#1838,#921);
#824=LINE('',#1840,#922);
#825=LINE('',#1843,#923);
#826=LINE('',#1845,#924);
#827=LINE('',#1847,#925);
#828=LINE('',#1849,#926);
#829=LINE('',#1852,#927);
#830=LINE('',#1854,#928);
#831=LINE('',#1856,#929);
#832=LINE('',#1858,#930);
#833=LINE('',#1861,#931);
#834=LINE('',#1863,#932);
#835=LINE('',#1865,#933);
#836=LINE('',#1869,#934);
#837=LINE('',#1875,#935);
#838=LINE('',#1879,#936);
#839=LINE('',#1881,#937);
#840=LINE('',#1883,#938);
#841=LINE('',#1887,#939);
#842=LINE('',#1893,#940);
#843=LINE('',#1897,#941);
#844=LINE('',#1899,#942);
#845=LINE('',#1901,#943);
#846=LINE('',#1905,#944);
#847=LINE('',#1911,#945);
#848=LINE('',#1915,#946);
#849=LINE('',#1917,#947);
#850=LINE('',#1919,#948);
#851=LINE('',#1923,#949);
#852=LINE('',#1929,#950);
#853=LINE('',#1933,#951);
#854=LINE('',#1935,#952);
#855=LINE('',#1937,#953);
#856=LINE('',#1941,#954);
#857=LINE('',#1947,#955);
#858=LINE('',#1951,#956);
#859=LINE('',#1953,#957);
#860=LINE('',#1955,#958);
#861=LINE('',#1959,#959);
#862=LINE('',#1965,#960);
#863=LINE('',#1969,#961);
#864=LINE('',#1971,#962);
#865=LINE('',#1973,#963);
#866=LINE('',#1977,#964);
#867=LINE('',#1983,#965);
#868=LINE('',#1987,#966);
#869=LINE('',#1989,#967);
#870=LINE('',#1991,#968);
#871=LINE('',#1995,#969);
#872=LINE('',#2002,#970);
#873=LINE('',#2006,#971);
#874=LINE('',#2010,#972);
#875=LINE('',#2014,#973);
#876=LINE('',#2015,#974);
#877=LINE('',#2017,#975);
#878=LINE('',#2020,#976);
#879=LINE('',#2022,#977);
#880=LINE('',#2024,#978);
#881=LINE('',#2028,#979);
#882=LINE('',#2034,#980);
#883=LINE('',#2040,#981);
#884=LINE('',#2044,#982);
#885=LINE('',#2046,#983);
#886=LINE('',#2048,#984);
#887=LINE('',#2052,#985);
#888=LINE('',#2058,#986);
#889=LINE('',#2065,#987);
#890=LINE('',#2068,#988);
#891=LINE('',#2070,#989);
#892=LINE('',#2072,#990);
#893=LINE('',#2076,#991);
#894=LINE('',#2082,#992);
#895=LINE('',#2088,#993);
#896=LINE('',#2092,#994);
#897=LINE('',#2094,#995);
#898=LINE('',#2096,#996);
#899=LINE('',#2103,#997);
#900=LINE('',#2133,#998);
#901=LINE('',#2162,#999);
#902=LINE('',#2163,#1000);
#903=LINE('',#2165,#1001);
#904=LINE('',#2166,#1002);
#905=LINE('',#2172,#1003);
#906=VECTOR('',#1411,1.);
#907=VECTOR('',#1412,1.);
#908=VECTOR('',#1413,1.);
#909=VECTOR('',#1414,1.);
#910=VECTOR('',#1415,1.);
#911=VECTOR('',#1416,1.);
#912=VECTOR('',#1419,1.);
#913=VECTOR('',#1420,1.);
#914=VECTOR('',#1421,1.);
#915=VECTOR('',#1422,1.);
#916=VECTOR('',#1425,1.);
#917=VECTOR('',#1426,1.);
#918=VECTOR('',#1427,1.);
#919=VECTOR('',#1428,1.);
#920=VECTOR('',#1429,1.);
#921=VECTOR('',#1430,1.);
#922=VECTOR('',#1433,1.);
#923=VECTOR('',#1434,1.);
#924=VECTOR('',#1435,1.);
#925=VECTOR('',#1436,1.);
#926=VECTOR('',#1439,1.);
#927=VECTOR('',#1440,1.);
#928=VECTOR('',#1441,1.);
#929=VECTOR('',#1442,1.);
#930=VECTOR('',#1445,1.);
#931=VECTOR('',#1446,1.);
#932=VECTOR('',#1447,1.);
#933=VECTOR('',#1448,1.);
#934=VECTOR('',#1453,1.);
#935=VECTOR('',#1460,1.);
#936=VECTOR('',#1465,1.);
#937=VECTOR('',#1466,1.);
#938=VECTOR('',#1467,1.);
#939=VECTOR('',#1472,1.);
#940=VECTOR('',#1479,1.);
#941=VECTOR('',#1484,1.);
#942=VECTOR('',#1485,1.);
#943=VECTOR('',#1486,1.);
#944=VECTOR('',#1491,1.);
#945=VECTOR('',#1498,1.);
#946=VECTOR('',#1503,1.);
#947=VECTOR('',#1504,1.);
#948=VECTOR('',#1505,1.);
#949=VECTOR('',#1510,1.);
#950=VECTOR('',#1517,1.);
#951=VECTOR('',#1522,1.);
#952=VECTOR('',#1523,1.);
#953=VECTOR('',#1524,1.);
#954=VECTOR('',#1529,1.);
#955=VECTOR('',#1536,1.);
#956=VECTOR('',#1541,1.);
#957=VECTOR('',#1542,1.);
#958=VECTOR('',#1543,1.);
#959=VECTOR('',#1548,1.);
#960=VECTOR('',#1555,1.);
#961=VECTOR('',#1560,1.);
#962=VECTOR('',#1561,1.);
#963=VECTOR('',#1562,1.);
#964=VECTOR('',#1567,1.);
#965=VECTOR('',#1574,1.);
#966=VECTOR('',#1579,1.);
#967=VECTOR('',#1580,1.);
#968=VECTOR('',#1581,1.);
#969=VECTOR('',#1586,1.);
#970=VECTOR('',#1593,1.);
#971=VECTOR('',#1596,1.);
#972=VECTOR('',#1601,1.);
#973=VECTOR('',#1606,1.);
#974=VECTOR('',#1607,1.);
#975=VECTOR('',#1610,1.);
#976=VECTOR('',#1611,1.);
#977=VECTOR('',#1612,1.);
#978=VECTOR('',#1613,1.);
#979=VECTOR('',#1618,1.);
#980=VECTOR('',#1625,1.);
#981=VECTOR('',#1632,1.);
#982=VECTOR('',#1637,1.);
#983=VECTOR('',#1638,1.);
#984=VECTOR('',#1639,1.);
#985=VECTOR('',#1644,1.);
#986=VECTOR('',#1651,1.);
#987=VECTOR('',#1662,1.);
#988=VECTOR('',#1663,1.);
#989=VECTOR('',#1664,1.);
#990=VECTOR('',#1665,1.);
#991=VECTOR('',#1670,1.);
#992=VECTOR('',#1677,1.);
#993=VECTOR('',#1684,1.);
#994=VECTOR('',#1689,1.);
#995=VECTOR('',#1690,1.);
#996=VECTOR('',#1691,1.);
#997=VECTOR('',#1702,1.);
#998=VECTOR('',#1743,1.);
#999=VECTOR('',#1784,1.);
#1000=VECTOR('',#1785,1.);
#1001=VECTOR('',#1788,1.);
#1002=VECTOR('',#1789,1.);
#1003=VECTOR('',#1800,1.);
#1004=EDGE_LOOP('',(#138,#139,#140,#141,#142,#143));
#1005=EDGE_LOOP('',(#144,#145,#146,#147));
#1006=EDGE_LOOP('',(#148,#149,#150,#151,#152,#153));
#1007=EDGE_LOOP('',(#154,#155,#156,#157));
#1008=EDGE_LOOP('',(#158,#159,#160,#161));
#1009=EDGE_LOOP('',(#162,#163,#164,#165));
#1010=EDGE_LOOP('',(#166,#167,#168,#169));
#1011=EDGE_LOOP('',(#170,#171,#172,#173));
#1012=EDGE_LOOP('',(#174,#175,#176,#177));
#1013=EDGE_LOOP('',(#178,#179,#180,#181));
#1014=EDGE_LOOP('',(#182,#183,#184,#185));
#1015=EDGE_LOOP('',(#186,#187,#188,#189));
#1016=EDGE_LOOP('',(#190,#191,#192,#193));
#1017=EDGE_LOOP('',(#194,#195,#196,#197));
#1018=EDGE_LOOP('',(#198,#199,#200,#201));
#1019=EDGE_LOOP('',(#202,#203,#204,#205));
#1020=EDGE_LOOP('',(#206,#207,#208,#209));
#1021=EDGE_LOOP('',(#210,#211,#212,#213));
#1022=EDGE_LOOP('',(#214,#215,#216,#217));
#1023=EDGE_LOOP('',(#218,#219,#220,#221));
#1024=EDGE_LOOP('',(#222,#223,#224,#225));
#1025=EDGE_LOOP('',(#226,#227,#228,#229));
#1026=EDGE_LOOP('',(#230,#231,#232,#233));
#1027=EDGE_LOOP('',(#234,#235,#236,#237));
#1028=EDGE_LOOP('',(#238,#239,#240,#241));
#1029=EDGE_LOOP('',(#242,#243,#244,#245));
#1030=EDGE_LOOP('',(#246,#247,#248,#249));
#1031=EDGE_LOOP('',(#250,#251,#252,#253));
#1032=EDGE_LOOP('',(#254,#255,#256,#257));
#1033=EDGE_LOOP('',(#258,#259,#260,#261));
#1034=EDGE_LOOP('',(#262,#263,#264,#265));
#1035=EDGE_LOOP('',(#266,#267,#268,#269));
#1036=EDGE_LOOP('',(#270,#271,#272,#273));
#1037=EDGE_LOOP('',(#274,#275,#276,#277));
#1038=EDGE_LOOP('',(#278,#279,#280,#281));
#1039=EDGE_LOOP('',(#282,#283,#284,#285));
#1040=EDGE_LOOP('',(#286,#287,#288,#289));
#1041=EDGE_LOOP('',(#290,#291,#292,#293));
#1042=EDGE_LOOP('',(#294,#295,#296,#297));
#1043=EDGE_LOOP('',(#298,#299,#300,#301));
#1044=EDGE_LOOP('',(#302,#303,#304,#305));
#1045=EDGE_LOOP('',(#306,#307,#308,#309));
#1046=EDGE_LOOP('',(#310,#311,#312,#313));
#1047=EDGE_LOOP('',(#314,#315,#316,#317));
#1048=EDGE_LOOP('',(#318,#319,#320,#321));
#1049=EDGE_LOOP('',(#322,#323,#324,#325));
#1050=EDGE_LOOP('',(#326));
#1051=EDGE_LOOP('',(#327));
#1052=EDGE_LOOP('',(#328));
#1053=EDGE_LOOP('',(#329));
#1054=EDGE_LOOP('',(#330));
#1055=EDGE_LOOP('',(#331));
#1056=EDGE_LOOP('',(#332));
#1057=EDGE_LOOP('',(#333));
#1058=EDGE_LOOP('',(#334,#335,#336,#337));
#1059=EDGE_LOOP('',(#338,#339,#340,#341));
#1060=EDGE_LOOP('',(#342,#343,#344,#345,#346,#347,#348,#349,#350,#351,#352,
#353,#354,#355,#356,#357,#358,#359,#360,#361,#362,#363,#364,#365,#366,#367,
#368,#369,#370,#371));
#1061=EDGE_LOOP('',(#372));
#1062=EDGE_LOOP('',(#373));
#1063=EDGE_LOOP('',(#374));
#1064=EDGE_LOOP('',(#375));
#1065=EDGE_LOOP('',(#376,#377,#378,#379,#380,#381,#382,#383,#384,#385,#386,
#387,#388,#389,#390,#391,#392,#393,#394,#395,#396,#397,#398,#399));
#1066=EDGE_LOOP('',(#400,#401,#402,#403,#404,#405,#406,#407,#408,#409,#410,
#411,#412,#413,#414,#415,#416,#417,#418,#419,#420,#421,#422,#423,#424,#425,
#426,#427,#428,#429,#430,#431));
#1067=EDGE_LOOP('',(#432));
#1068=EDGE_LOOP('',(#433));
#1069=EDGE_LOOP('',(#434));
#1070=EDGE_LOOP('',(#435));
#1071=EDGE_LOOP('',(#436,#437,#438,#439,#440,#441,#442,#443,#444,#445,#446,
#447,#448,#449,#450,#451,#452,#453,#454,#455,#456,#457,#458,#459));
#1072=EDGE_LOOP('',(#460,#461,#462,#463));
#1073=EDGE_LOOP('',(#464,#465,#466,#467));
#1074=EDGE_LOOP('',(#468,#469,#470,#471));
#1075=EDGE_LOOP('',(#472,#473,#474,#475));
#1076=EDGE_LOOP('',(#476,#477,#478,#479));
#1077=EDGE_LOOP('',(#480,#481,#482,#483));
#1078=EDGE_LOOP('',(#484,#485,#486,#487));
#1079=EDGE_LOOP('',(#488,#489,#490,#491));
#1080=EDGE_LOOP('',(#492,#493,#494,#495));
#1081=EDGE_LOOP('',(#496,#497,#498,#499,#500,#501));
#1082=FACE_BOUND('',#1004,.T.);
#1083=FACE_BOUND('',#1005,.T.);
#1084=FACE_BOUND('',#1006,.T.);
#1085=FACE_BOUND('',#1007,.T.);
#1086=FACE_BOUND('',#1008,.T.);
#1087=FACE_BOUND('',#1009,.T.);
#1088=FACE_BOUND('',#1010,.T.);
#1089=FACE_BOUND('',#1011,.T.);
#1090=FACE_BOUND('',#1012,.T.);
#1091=FACE_BOUND('',#1013,.T.);
#1092=FACE_BOUND('',#1014,.T.);
#1093=FACE_BOUND('',#1015,.T.);
#1094=FACE_BOUND('',#1016,.T.);
#1095=FACE_BOUND('',#1017,.T.);
#1096=FACE_BOUND('',#1018,.T.);
#1097=FACE_BOUND('',#1019,.T.);
#1098=FACE_BOUND('',#1020,.T.);
#1099=FACE_BOUND('',#1021,.T.);
#1100=FACE_BOUND('',#1022,.T.);
#1101=FACE_BOUND('',#1023,.T.);
#1102=FACE_BOUND('',#1024,.T.);
#1103=FACE_BOUND('',#1025,.T.);
#1104=FACE_BOUND('',#1026,.T.);
#1105=FACE_BOUND('',#1027,.T.);
#1106=FACE_BOUND('',#1028,.T.);
#1107=FACE_BOUND('',#1029,.T.);
#1108=FACE_BOUND('',#1030,.T.);
#1109=FACE_BOUND('',#1031,.T.);
#1110=FACE_BOUND('',#1032,.T.);
#1111=FACE_BOUND('',#1033,.T.);
#1112=FACE_BOUND('',#1034,.T.);
#1113=FACE_BOUND('',#1035,.T.);
#1114=FACE_BOUND('',#1036,.T.);
#1115=FACE_BOUND('',#1037,.T.);
#1116=FACE_BOUND('',#1038,.T.);
#1117=FACE_BOUND('',#1039,.T.);
#1118=FACE_BOUND('',#1040,.T.);
#1119=FACE_BOUND('',#1041,.T.);
#1120=FACE_BOUND('',#1042,.T.);
#1121=FACE_BOUND('',#1043,.T.);
#1122=FACE_BOUND('',#1044,.T.);
#1123=FACE_BOUND('',#1045,.T.);
#1124=FACE_BOUND('',#1046,.T.);
#1125=FACE_BOUND('',#1047,.T.);
#1126=FACE_BOUND('',#1048,.T.);
#1127=FACE_BOUND('',#1049,.T.);
#1128=FACE_BOUND('',#1050,.T.);
#1129=FACE_BOUND('',#1051,.T.);
#1130=FACE_BOUND('',#1052,.T.);
#1131=FACE_BOUND('',#1053,.T.);
#1132=FACE_BOUND('',#1054,.T.);
#1133=FACE_BOUND('',#1055,.T.);
#1134=FACE_BOUND('',#1056,.T.);
#1135=FACE_BOUND('',#1057,.T.);
#1136=FACE_BOUND('',#1058,.T.);
#1137=FACE_BOUND('',#1059,.T.);
#1138=FACE_BOUND('',#1060,.T.);
#1139=FACE_BOUND('',#1061,.T.);
#1140=FACE_BOUND('',#1062,.T.);
#1141=FACE_BOUND('',#1063,.T.);
#1142=FACE_BOUND('',#1064,.T.);
#1143=FACE_BOUND('',#1065,.T.);
#1144=FACE_BOUND('',#1066,.T.);
#1145=FACE_BOUND('',#1067,.T.);
#1146=FACE_BOUND('',#1068,.T.);
#1147=FACE_BOUND('',#1069,.T.);
#1148=FACE_BOUND('',#1070,.T.);
#1149=FACE_BOUND('',#1071,.T.);
#1150=FACE_BOUND('',#1072,.T.);
#1151=FACE_BOUND('',#1073,.T.);
#1152=FACE_BOUND('',#1074,.T.);
#1153=FACE_BOUND('',#1075,.T.);
#1154=FACE_BOUND('',#1076,.T.);
#1155=FACE_BOUND('',#1077,.T.);
#1156=FACE_BOUND('',#1078,.T.);
#1157=FACE_BOUND('',#1079,.T.);
#1158=FACE_BOUND('',#1080,.T.);
#1159=FACE_BOUND('',#1081,.T.);
#1160=PLANE('',#1259);
#1161=PLANE('',#1260);
#1162=PLANE('',#1261);
#1163=PLANE('',#1262);
#1164=PLANE('',#1263);
#1165=PLANE('',#1264);
#1166=PLANE('',#1271);
#1167=PLANE('',#1278);
#1168=PLANE('',#1285);
#1169=PLANE('',#1292);
#1170=PLANE('',#1299);
#1171=PLANE('',#1306);
#1172=PLANE('',#1313);
#1173=PLANE('',#1323);
#1174=PLANE('',#1324);
#1175=PLANE('',#1334);
#1176=PLANE('',#1344);
#1177=PLANE('',#1354);
#1178=PLANE('',#1379);
#1179=PLANE('',#1386);
#1180=PLANE('',#1405);
#1181=PLANE('',#1406);
#1182=ADVANCED_FACE('',(#1082),#1160,.T.);
#1183=ADVANCED_FACE('',(#1083),#1161,.T.);
#1184=ADVANCED_FACE('',(#1084),#1162,.T.);
#1185=ADVANCED_FACE('',(#1085),#1163,.F.);
#1186=ADVANCED_FACE('',(#1086),#1164,.F.);
#1187=ADVANCED_FACE('',(#1087),#1165,.F.);
#1188=ADVANCED_FACE('',(#1088),#96,.T.);
#1189=ADVANCED_FACE('',(#1089),#97,.T.);
#1190=ADVANCED_FACE('',(#1090),#1166,.F.);
#1191=ADVANCED_FACE('',(#1091),#98,.T.);
#1192=ADVANCED_FACE('',(#1092),#99,.T.);
#1193=ADVANCED_FACE('',(#1093),#1167,.F.);
#1194=ADVANCED_FACE('',(#1094),#100,.T.);
#1195=ADVANCED_FACE('',(#1095),#101,.T.);
#1196=ADVANCED_FACE('',(#1096),#1168,.F.);
#1197=ADVANCED_FACE('',(#1097),#102,.T.);
#1198=ADVANCED_FACE('',(#1098),#103,.T.);
#1199=ADVANCED_FACE('',(#1099),#1169,.F.);
#1200=ADVANCED_FACE('',(#1100),#104,.T.);
#1201=ADVANCED_FACE('',(#1101),#105,.T.);
#1202=ADVANCED_FACE('',(#1102),#1170,.F.);
#1203=ADVANCED_FACE('',(#1103),#106,.T.);
#1204=ADVANCED_FACE('',(#1104),#107,.T.);
#1205=ADVANCED_FACE('',(#1105),#1171,.T.);
#1206=ADVANCED_FACE('',(#1106),#108,.T.);
#1207=ADVANCED_FACE('',(#1107),#109,.T.);
#1208=ADVANCED_FACE('',(#1108),#1172,.F.);
#1209=ADVANCED_FACE('',(#1109),#110,.T.);
#1210=ADVANCED_FACE('',(#1110),#111,.T.);
#1211=ADVANCED_FACE('',(#1111),#112,.F.);
#1212=ADVANCED_FACE('',(#1112),#1173,.T.);
#1213=ADVANCED_FACE('',(#1113),#1174,.F.);
#1214=ADVANCED_FACE('',(#1114),#113,.F.);
#1215=ADVANCED_FACE('',(#1115),#114,.T.);
#1216=ADVANCED_FACE('',(#1116),#115,.F.);
#1217=ADVANCED_FACE('',(#1117),#1175,.F.);
#1218=ADVANCED_FACE('',(#1118),#116,.F.);
#1219=ADVANCED_FACE('',(#1119),#117,.T.);
#1220=ADVANCED_FACE('',(#1120),#118,.F.);
#1221=ADVANCED_FACE('',(#1121),#1176,.F.);
#1222=ADVANCED_FACE('',(#1122),#119,.F.);
#1223=ADVANCED_FACE('',(#1123),#120,.T.);
#1224=ADVANCED_FACE('',(#1124),#121,.F.);
#1225=ADVANCED_FACE('',(#1125),#1177,.F.);
#1226=ADVANCED_FACE('',(#1126),#122,.F.);
#1227=ADVANCED_FACE('',(#1127),#123,.F.);
#1228=ADVANCED_FACE('',(#1128,#1129),#124,.F.);
#1229=ADVANCED_FACE('',(#1130,#1131),#125,.F.);
#1230=ADVANCED_FACE('',(#1132,#1133),#126,.F.);
#1231=ADVANCED_FACE('',(#1134,#1135),#127,.F.);
#1232=ADVANCED_FACE('',(#1136),#128,.F.);
#1233=ADVANCED_FACE('',(#1137),#129,.T.);
#1234=ADVANCED_FACE('',(#1138,#1139,#1140,#1141,#1142,#1143),#1178,.T.);
#1235=ADVANCED_FACE('',(#1144,#1145,#1146,#1147,#1148,#1149),#1179,.F.);
#1236=ADVANCED_FACE('',(#1150),#130,.T.);
#1237=ADVANCED_FACE('',(#1151),#131,.T.);
#1238=ADVANCED_FACE('',(#1152),#132,.F.);
#1239=ADVANCED_FACE('',(#1153),#133,.F.);
#1240=ADVANCED_FACE('',(#1154),#134,.T.);
#1241=ADVANCED_FACE('',(#1155),#135,.T.);
#1242=ADVANCED_FACE('',(#1156),#136,.T.);
#1243=ADVANCED_FACE('',(#1157),#137,.T.);
#1244=ADVANCED_FACE('',(#1158),#1180,.F.);
#1245=ADVANCED_FACE('',(#1159),#1181,.T.);
#1246=CLOSED_SHELL('',(#1182,#1183,#1184,#1185,#1186,#1187,#1188,#1189,
#1190,#1191,#1192,#1193,#1194,#1195,#1196,#1197,#1198,#1199,#1200,#1201,
#1202,#1203,#1204,#1205,#1206,#1207,#1208,#1209,#1210,#1211,#1212,#1213,
#1214,#1215,#1216,#1217,#1218,#1219,#1220,#1221,#1222,#1223,#1224,#1225,
#1226,#1227,#1228,#1229,#1230,#1231,#1232,#1233,#1234,#1235,#1236,#1237,
#1238,#1239,#1240,#1241,#1242,#1243,#1244,#1245));
#1247=STYLED_ITEM('',(#1248),#1255);
#1248=PRESENTATION_STYLE_ASSIGNMENT((#1249));
#1249=SURFACE_STYLE_USAGE(.BOTH.,#1250);
#1250=SURFACE_SIDE_STYLE('',(#1251));
#1251=SURFACE_STYLE_FILL_AREA(#1252);
#1252=FILL_AREA_STYLE('',(#1253));
#1253=FILL_AREA_STYLE_COLOUR('',#1254);
#1254=COLOUR_RGB('',0.980392156862745,0.713725490196078,0.00392156862745098);
#1255=MANIFOLD_SOLID_BREP('Part 2',#1246);
#1256=SHAPE_DEFINITION_REPRESENTATION(#2180,#1257);
#1257=SHAPE_REPRESENTATION('Part 2',(#1258),#2175);
#1258=AXIS2_PLACEMENT_3D('',#1803,#1407,#1408);
#1259=AXIS2_PLACEMENT_3D('',#1804,#1409,#1410);
#1260=AXIS2_PLACEMENT_3D('',#1817,#1417,#1418);
#1261=AXIS2_PLACEMENT_3D('',#1826,#1423,#1424);
#1262=AXIS2_PLACEMENT_3D('',#1839,#1431,#1432);
#1263=AXIS2_PLACEMENT_3D('',#1848,#1437,#1438);
#1264=AXIS2_PLACEMENT_3D('',#1857,#1443,#1444);
#1265=AXIS2_PLACEMENT_3D('',#1866,#1449,#1450);
#1266=AXIS2_PLACEMENT_3D('',#1867,#1451,#1452);
#1267=AXIS2_PLACEMENT_3D('',#1871,#1454,#1455);
#1268=AXIS2_PLACEMENT_3D('',#1872,#1456,#1457);
#1269=AXIS2_PLACEMENT_3D('',#1873,#1458,#1459);
#1270=AXIS2_PLACEMENT_3D('',#1877,#1461,#1462);
#1271=AXIS2_PLACEMENT_3D('',#1878,#1463,#1464);
#1272=AXIS2_PLACEMENT_3D('',#1884,#1468,#1469);
#1273=AXIS2_PLACEMENT_3D('',#1885,#1470,#1471);
#1274=AXIS2_PLACEMENT_3D('',#1889,#1473,#1474);
#1275=AXIS2_PLACEMENT_3D('',#1890,#1475,#1476);
#1276=AXIS2_PLACEMENT_3D('',#1891,#1477,#1478);
#1277=AXIS2_PLACEMENT_3D('',#1895,#1480,#1481);
#1278=AXIS2_PLACEMENT_3D('',#1896,#1482,#1483);
#1279=AXIS2_PLACEMENT_3D('',#1902,#1487,#1488);
#1280=AXIS2_PLACEMENT_3D('',#1903,#1489,#1490);
#1281=AXIS2_PLACEMENT_3D('',#1907,#1492,#1493);
#1282=AXIS2_PLACEMENT_3D('',#1908,#1494,#1495);
#1283=AXIS2_PLACEMENT_3D('',#1909,#1496,#1497);
#1284=AXIS2_PLACEMENT_3D('',#1913,#1499,#1500);
#1285=AXIS2_PLACEMENT_3D('',#1914,#1501,#1502);
#1286=AXIS2_PLACEMENT_3D('',#1920,#1506,#1507);
#1287=AXIS2_PLACEMENT_3D('',#1921,#1508,#1509);
#1288=AXIS2_PLACEMENT_3D('',#1925,#1511,#1512);
#1289=AXIS2_PLACEMENT_3D('',#1926,#1513,#1514);
#1290=AXIS2_PLACEMENT_3D('',#1927,#1515,#1516);
#1291=AXIS2_PLACEMENT_3D('',#1931,#1518,#1519);
#1292=AXIS2_PLACEMENT_3D('',#1932,#1520,#1521);
#1293=AXIS2_PLACEMENT_3D('',#1938,#1525,#1526);
#1294=AXIS2_PLACEMENT_3D('',#1939,#1527,#1528);
#1295=AXIS2_PLACEMENT_3D('',#1943,#1530,#1531);
#1296=AXIS2_PLACEMENT_3D('',#1944,#1532,#1533);
#1297=AXIS2_PLACEMENT_3D('',#1945,#1534,#1535);
#1298=AXIS2_PLACEMENT_3D('',#1949,#1537,#1538);
#1299=AXIS2_PLACEMENT_3D('',#1950,#1539,#1540);
#1300=AXIS2_PLACEMENT_3D('',#1956,#1544,#1545);
#1301=AXIS2_PLACEMENT_3D('',#1957,#1546,#1547);
#1302=AXIS2_PLACEMENT_3D('',#1961,#1549,#1550);
#1303=AXIS2_PLACEMENT_3D('',#1962,#1551,#1552);
#1304=AXIS2_PLACEMENT_3D('',#1963,#1553,#1554);
#1305=AXIS2_PLACEMENT_3D('',#1967,#1556,#1557);
#1306=AXIS2_PLACEMENT_3D('',#1968,#1558,#1559);
#1307=AXIS2_PLACEMENT_3D('',#1974,#1563,#1564);
#1308=AXIS2_PLACEMENT_3D('',#1975,#1565,#1566);
#1309=AXIS2_PLACEMENT_3D('',#1979,#1568,#1569);
#1310=AXIS2_PLACEMENT_3D('',#1980,#1570,#1571);
#1311=AXIS2_PLACEMENT_3D('',#1981,#1572,#1573);
#1312=AXIS2_PLACEMENT_3D('',#1985,#1575,#1576);
#1313=AXIS2_PLACEMENT_3D('',#1986,#1577,#1578);
#1314=AXIS2_PLACEMENT_3D('',#1992,#1582,#1583);
#1315=AXIS2_PLACEMENT_3D('',#1993,#1584,#1585);
#1316=AXIS2_PLACEMENT_3D('',#1997,#1587,#1588);
#1317=AXIS2_PLACEMENT_3D('',#1998,#1589,#1590);
#1318=AXIS2_PLACEMENT_3D('',#1999,#1591,#1592);
#1319=AXIS2_PLACEMENT_3D('',#2004,#1594,#1595);
#1320=AXIS2_PLACEMENT_3D('',#2007,#1597,#1598);
#1321=AXIS2_PLACEMENT_3D('',#2008,#1599,#1600);
#1322=AXIS2_PLACEMENT_3D('',#2012,#1602,#1603);
#1323=AXIS2_PLACEMENT_3D('',#2013,#1604,#1605);
#1324=AXIS2_PLACEMENT_3D('',#2016,#1608,#1609);
#1325=AXIS2_PLACEMENT_3D('',#2025,#1614,#1615);
#1326=AXIS2_PLACEMENT_3D('',#2026,#1616,#1617);
#1327=AXIS2_PLACEMENT_3D('',#2030,#1619,#1620);
#1328=AXIS2_PLACEMENT_3D('',#2031,#1621,#1622);
#1329=AXIS2_PLACEMENT_3D('',#2032,#1623,#1624);
#1330=AXIS2_PLACEMENT_3D('',#2036,#1626,#1627);
#1331=AXIS2_PLACEMENT_3D('',#2037,#1628,#1629);
#1332=AXIS2_PLACEMENT_3D('',#2038,#1630,#1631);
#1333=AXIS2_PLACEMENT_3D('',#2042,#1633,#1634);
#1334=AXIS2_PLACEMENT_3D('',#2043,#1635,#1636);
#1335=AXIS2_PLACEMENT_3D('',#2049,#1640,#1641);
#1336=AXIS2_PLACEMENT_3D('',#2050,#1642,#1643);
#1337=AXIS2_PLACEMENT_3D('',#2054,#1645,#1646);
#1338=AXIS2_PLACEMENT_3D('',#2055,#1647,#1648);
#1339=AXIS2_PLACEMENT_3D('',#2056,#1649,#1650);
#1340=AXIS2_PLACEMENT_3D('',#2060,#1652,#1653);
#1341=AXIS2_PLACEMENT_3D('',#2061,#1654,#1655);
#1342=AXIS2_PLACEMENT_3D('',#2062,#1656,#1657);
#1343=AXIS2_PLACEMENT_3D('',#2063,#1658,#1659);
#1344=AXIS2_PLACEMENT_3D('',#2064,#1660,#1661);
#1345=AXIS2_PLACEMENT_3D('',#2073,#1666,#1667);
#1346=AXIS2_PLACEMENT_3D('',#2074,#1668,#1669);
#1347=AXIS2_PLACEMENT_3D('',#2078,#1671,#1672);
#1348=AXIS2_PLACEMENT_3D('',#2079,#1673,#1674);
#1349=AXIS2_PLACEMENT_3D('',#2080,#1675,#1676);
#1350=AXIS2_PLACEMENT_3D('',#2084,#1678,#1679);
#1351=AXIS2_PLACEMENT_3D('',#2085,#1680,#1681);
#1352=AXIS2_PLACEMENT_3D('',#2086,#1682,#1683);
#1353=AXIS2_PLACEMENT_3D('',#2090,#1685,#1686);
#1354=AXIS2_PLACEMENT_3D('',#2091,#1687,#1688);
#1355=AXIS2_PLACEMENT_3D('',#2097,#1692,#1693);
#1356=AXIS2_PLACEMENT_3D('',#2098,#1694,#1695);
#1357=AXIS2_PLACEMENT_3D('',#2099,#1696,#1697);
#1358=AXIS2_PLACEMENT_3D('',#2100,#1698,#1699);
#1359=AXIS2_PLACEMENT_3D('',#2101,#1700,#1701);
#1360=AXIS2_PLACEMENT_3D('',#2105,#1703,#1704);
#1361=AXIS2_PLACEMENT_3D('',#2106,#1705,#1706);
#1362=AXIS2_PLACEMENT_3D('',#2107,#1707,#1708);
#1363=AXIS2_PLACEMENT_3D('',#2109,#1709,#1710);
#1364=AXIS2_PLACEMENT_3D('',#2111,#1711,#1712);
#1365=AXIS2_PLACEMENT_3D('',#2112,#1713,#1714);
#1366=AXIS2_PLACEMENT_3D('',#2114,#1715,#1716);
#1367=AXIS2_PLACEMENT_3D('',#2116,#1717,#1718);
#1368=AXIS2_PLACEMENT_3D('',#2117,#1719,#1720);
#1369=AXIS2_PLACEMENT_3D('',#2119,#1721,#1722);
#1370=AXIS2_PLACEMENT_3D('',#2121,#1723,#1724);
#1371=AXIS2_PLACEMENT_3D('',#2122,#1725,#1726);
#1372=AXIS2_PLACEMENT_3D('',#2124,#1727,#1728);
#1373=AXIS2_PLACEMENT_3D('',#2126,#1729,#1730);
#1374=AXIS2_PLACEMENT_3D('',#2127,#1731,#1732);
#1375=AXIS2_PLACEMENT_3D('',#2128,#1733,#1734);
#1376=AXIS2_PLACEMENT_3D('',#2129,#1735,#1736);
#1377=AXIS2_PLACEMENT_3D('',#2130,#1737,#1738);
#1378=AXIS2_PLACEMENT_3D('',#2131,#1739,#1740);
#1379=AXIS2_PLACEMENT_3D('',#2132,#1741,#1742);
#1380=AXIS2_PLACEMENT_3D('',#2134,#1744,#1745);
#1381=AXIS2_PLACEMENT_3D('',#2136,#1746,#1747);
#1382=AXIS2_PLACEMENT_3D('',#2138,#1748,#1749);
#1383=AXIS2_PLACEMENT_3D('',#2139,#1750,#1751);
#1384=AXIS2_PLACEMENT_3D('',#2141,#1752,#1753);
#1385=AXIS2_PLACEMENT_3D('',#2143,#1754,#1755);
#1386=AXIS2_PLACEMENT_3D('',#2144,#1756,#1757);
#1387=AXIS2_PLACEMENT_3D('',#2145,#1758,#1759);
#1388=AXIS2_PLACEMENT_3D('',#2148,#1760,#1761);
#1389=AXIS2_PLACEMENT_3D('',#2149,#1762,#1763);
#1390=AXIS2_PLACEMENT_3D('',#2151,#1764,#1765);
#1391=AXIS2_PLACEMENT_3D('',#2153,#1766,#1767);
#1392=AXIS2_PLACEMENT_3D('',#2154,#1768,#1769);
#1393=AXIS2_PLACEMENT_3D('',#2155,#1770,#1771);
#1394=AXIS2_PLACEMENT_3D('',#2156,#1772,#1773);
#1395=AXIS2_PLACEMENT_3D('',#2157,#1774,#1775);
#1396=AXIS2_PLACEMENT_3D('',#2158,#1776,#1777);
#1397=AXIS2_PLACEMENT_3D('',#2159,#1778,#1779);
#1398=AXIS2_PLACEMENT_3D('',#2160,#1780,#1781);
#1399=AXIS2_PLACEMENT_3D('',#2161,#1782,#1783);
#1400=AXIS2_PLACEMENT_3D('',#2164,#1786,#1787);
#1401=AXIS2_PLACEMENT_3D('',#2167,#1790,#1791);
#1402=AXIS2_PLACEMENT_3D('',#2168,#1792,#1793);
#1403=AXIS2_PLACEMENT_3D('',#2169,#1794,#1795);
#1404=AXIS2_PLACEMENT_3D('',#2170,#1796,#1797);
#1405=AXIS2_PLACEMENT_3D('',#2171,#1798,#1799);
#1406=AXIS2_PLACEMENT_3D('',#2173,#1801,#1802);
#1407=DIRECTION('',(0.,0.,1.));
#1408=DIRECTION('',(1.,0.,0.));
#1409=DIRECTION('',(1.,2.79016110102902E-14,0.));
#1410=DIRECTION('',(-2.79016110102902E-14,1.,0.));
#1411=DIRECTION('',(2.79016110102902E-14,-1.,0.));
#1412=DIRECTION('',(0.,0.,1.));
#1413=DIRECTION('',(2.79016110102902E-14,-1.,0.));
#1414=DIRECTION('',(0.,0.,-1.));
#1415=DIRECTION('',(2.79016110102902E-14,-1.,0.));
#1416=DIRECTION('',(0.,0.,-1.));
#1417=DIRECTION('',(-2.8676041133495E-14,1.,0.));
#1418=DIRECTION('',(-1.,-2.8676041133495E-14,0.));
#1419=DIRECTION('',(0.,0.,-1.));
#1420=DIRECTION('',(1.,2.8676041133495E-14,0.));
#1421=DIRECTION('',(0.,0.,-1.));
#1422=DIRECTION('',(1.,2.8676041133495E-14,0.));
#1423=DIRECTION('',(-1.,0.,0.));
#1424=DIRECTION('',(0.,0.,1.));
#1425=DIRECTION('',(0.,0.,1.));
#1426=DIRECTION('',(0.,1.,0.));
#1427=DIRECTION('',(0.,0.,-1.));
#1428=DIRECTION('',(0.,1.,0.));
#1429=DIRECTION('',(0.,0.,-1.));
#1430=DIRECTION('',(0.,1.,0.));
#1431=DIRECTION('',(1.,6.54516838630656E-11,0.));
#1432=DIRECTION('',(-6.54516838630656E-11,1.,0.));
#1433=DIRECTION('',(6.54516838630656E-11,-1.,0.));
#1434=DIRECTION('',(0.,0.,-1.));
#1435=DIRECTION('',(6.54516838630656E-11,-1.,0.));
#1436=DIRECTION('',(0.,0.,-1.));
#1437=DIRECTION('',(-1.,-9.80741669332183E-17,0.));
#1438=DIRECTION('',(9.80741669332183E-17,-1.,0.));
#1439=DIRECTION('',(-9.80741669332183E-17,1.,0.));
#1440=DIRECTION('',(0.,0.,-1.));
#1441=DIRECTION('',(-9.80741669332183E-17,1.,0.));
#1442=DIRECTION('',(0.,0.,-1.));
#1443=DIRECTION('',(0.707106781186548,-0.707106781186548,0.));
#1444=DIRECTION('',(0.707106781186548,0.707106781186548,0.));
#1445=DIRECTION('',(-0.707106781186548,-0.707106781186548,0.));
#1446=DIRECTION('',(0.,0.,-1.));
#1447=DIRECTION('',(-0.707106781186548,-0.707106781186548,0.));
#1448=DIRECTION('',(0.,0.,-1.));
#1449=DIRECTION('',(0.,0.,-1.));
#1450=DIRECTION('',(-1.,0.,0.));
#1451=DIRECTION('',(0.,0.,1.));
#1452=DIRECTION('',(1.,0.,0.));
#1453=DIRECTION('',(0.,0.,-1.));
#1454=DIRECTION('',(0.,0.,1.));
#1455=DIRECTION('',(1.,0.,0.));
#1456=DIRECTION('',(0.,0.,-1.));
#1457=DIRECTION('',(-1.,0.,0.));
#1458=DIRECTION('',(0.,0.,1.));
#1459=DIRECTION('',(-1.,0.,0.));
#1460=DIRECTION('',(0.,0.,-1.));
#1461=DIRECTION('',(0.,0.,1.));
#1462=DIRECTION('',(-1.,0.,0.));
#1463=DIRECTION('',(1.,2.78962133967672E-14,0.));
#1464=DIRECTION('',(-2.78962133967672E-14,1.,0.));
#1465=DIRECTION('',(2.78962133967672E-14,-1.,0.));
#1466=DIRECTION('',(0.,0.,-1.));
#1467=DIRECTION('',(2.78962133967672E-14,-1.,0.));
#1468=DIRECTION('',(0.,0.,-1.));
#1469=DIRECTION('',(-1.,0.,0.));
#1470=DIRECTION('',(0.,0.,1.));
#1471=DIRECTION('',(-1.,0.,0.));
#1472=DIRECTION('',(0.,0.,-1.));
#1473=DIRECTION('',(0.,0.,1.));
#1474=DIRECTION('',(-1.,0.,0.));
#1475=DIRECTION('',(0.,0.,-1.));
#1476=DIRECTION('',(-1.,0.,0.));
#1477=DIRECTION('',(0.,0.,1.));
#1478=DIRECTION('',(1.,0.,0.));
#1479=DIRECTION('',(0.,0.,-1.));
#1480=DIRECTION('',(0.,0.,1.));
#1481=DIRECTION('',(1.,0.,0.));
#1482=DIRECTION('',(0.707106781186548,0.707106781186547,0.));
#1483=DIRECTION('',(-0.707106781186547,0.707106781186548,0.));
#1484=DIRECTION('',(0.707106781186547,-0.707106781186548,0.));
#1485=DIRECTION('',(0.,0.,-1.));
#1486=DIRECTION('',(0.707106781186547,-0.707106781186548,0.));
#1487=DIRECTION('',(0.,0.,-1.));
#1488=DIRECTION('',(-1.,0.,0.));
#1489=DIRECTION('',(0.,0.,1.));
#1490=DIRECTION('',(1.,0.,0.));
#1491=DIRECTION('',(0.,0.,-1.));
#1492=DIRECTION('',(0.,0.,1.));
#1493=DIRECTION('',(1.,0.,0.));
#1494=DIRECTION('',(0.,0.,-1.));
#1495=DIRECTION('',(-1.,0.,0.));
#1496=DIRECTION('',(0.,0.,1.));
#1497=DIRECTION('',(-0.707424499764828,-0.706788919786157,0.));
#1498=DIRECTION('',(0.,0.,-1.));
#1499=DIRECTION('',(0.,0.,1.));
#1500=DIRECTION('',(-0.707424499764828,-0.706788919786157,0.));
#1501=DIRECTION('',(-6.9508434292092E-16,1.,0.));
#1502=DIRECTION('',(-1.,-6.9508434292092E-16,0.));
#1503=DIRECTION('',(1.,6.9508434292092E-16,0.));
#1504=DIRECTION('',(0.,0.,-1.));
#1505=DIRECTION('',(1.,6.9508434292092E-16,0.));
#1506=DIRECTION('',(0.,0.,-1.));
#1507=DIRECTION('',(-1.,0.,0.));
#1508=DIRECTION('',(0.,0.,1.));
#1509=DIRECTION('',(-0.00041833946922017,-0.99999991249604,0.));
#1510=DIRECTION('',(0.,0.,-1.));
#1511=DIRECTION('',(0.,0.,1.));
#1512=DIRECTION('',(-0.00041833946922017,-0.99999991249604,0.));
#1513=DIRECTION('',(0.,0.,-1.));
#1514=DIRECTION('',(-1.,0.,0.));
#1515=DIRECTION('',(0.,0.,1.));
#1516=DIRECTION('',(1.,0.,0.));
#1517=DIRECTION('',(0.,0.,-1.));
#1518=DIRECTION('',(0.,0.,1.));
#1519=DIRECTION('',(1.,0.,0.));
#1520=DIRECTION('',(-0.707106781186548,0.707106781186548,0.));
#1521=DIRECTION('',(-0.707106781186548,-0.707106781186548,0.));
#1522=DIRECTION('',(0.707106781186548,0.707106781186548,0.));
#1523=DIRECTION('',(0.,0.,-1.));
#1524=DIRECTION('',(0.707106781186548,0.707106781186548,0.));
#1525=DIRECTION('',(0.,0.,-1.));
#1526=DIRECTION('',(-1.,0.,0.));
#1527=DIRECTION('',(0.,0.,1.));
#1528=DIRECTION('',(1.,0.,0.));
#1529=DIRECTION('',(0.,0.,-1.));
#1530=DIRECTION('',(0.,0.,1.));
#1531=DIRECTION('',(1.,0.,0.));
#1532=DIRECTION('',(0.,0.,-1.));
#1533=DIRECTION('',(-1.,0.,0.));
#1534=DIRECTION('',(0.,0.,1.));
#1535=DIRECTION('',(-1.,0.,0.));
#1536=DIRECTION('',(0.,0.,-1.));
#1537=DIRECTION('',(0.,0.,1.));
#1538=DIRECTION('',(-1.,0.,0.));
#1539=DIRECTION('',(-1.,6.23818469670024E-15,0.));
#1540=DIRECTION('',(-6.23818469670024E-15,-1.,0.));
#1541=DIRECTION('',(6.23818469670024E-15,1.,0.));
#1542=DIRECTION('',(0.,0.,-1.));
#1543=DIRECTION('',(6.23818469670024E-15,1.,0.));
#1544=DIRECTION('',(0.,0.,-1.));
#1545=DIRECTION('',(-1.,0.,0.));
#1546=DIRECTION('',(0.,0.,1.));
#1547=DIRECTION('',(-1.,0.,0.));
#1548=DIRECTION('',(0.,0.,-1.));
#1549=DIRECTION('',(0.,0.,1.));
#1550=DIRECTION('',(-1.,0.,0.));
#1551=DIRECTION('',(0.,0.,-1.));
#1552=DIRECTION('',(-1.,0.,0.));
#1553=DIRECTION('',(0.,0.,1.));
#1554=DIRECTION('',(1.,0.,0.));
#1555=DIRECTION('',(0.,0.,-1.));
#1556=DIRECTION('',(0.,0.,1.));
#1557=DIRECTION('',(1.,0.,0.));
#1558=DIRECTION('',(0.707106781186548,0.707106781186548,0.));
#1559=DIRECTION('',(-0.707106781186548,0.707106781186548,0.));
#1560=DIRECTION('',(0.707106781186548,-0.707106781186548,0.));
#1561=DIRECTION('',(0.,0.,-1.));
#1562=DIRECTION('',(0.707106781186548,-0.707106781186548,0.));
#1563=DIRECTION('',(0.,0.,-1.));
#1564=DIRECTION('',(-1.,0.,0.));
#1565=DIRECTION('',(0.,0.,1.));
#1566=DIRECTION('',(1.,0.,0.));
#1567=DIRECTION('',(0.,0.,-1.));
#1568=DIRECTION('',(0.,0.,1.));
#1569=DIRECTION('',(1.,0.,0.));
#1570=DIRECTION('',(0.,0.,-1.));
#1571=DIRECTION('',(-1.,0.,0.));
#1572=DIRECTION('',(0.,0.,1.));
#1573=DIRECTION('',(0.707424499764492,0.706788919786493,0.));
#1574=DIRECTION('',(0.,0.,-1.));
#1575=DIRECTION('',(0.,0.,1.));
#1576=DIRECTION('',(0.707424499764492,0.706788919786493,0.));
#1577=DIRECTION('',(-3.27619754969299E-15,-1.,0.));
#1578=DIRECTION('',(1.,-3.27619754969299E-15,0.));
#1579=DIRECTION('',(-1.,3.27619754969299E-15,0.));
#1580=DIRECTION('',(0.,0.,-1.));
#1581=DIRECTION('',(-1.,3.27619754969299E-15,0.));
#1582=DIRECTION('',(0.,0.,-1.));
#1583=DIRECTION('',(-1.,0.,0.));
#1584=DIRECTION('',(0.,0.,1.));
#1585=DIRECTION('',(0.000418339468889085,0.999999912496041,0.));
#1586=DIRECTION('',(0.,0.,-1.));
#1587=DIRECTION('',(0.,0.,1.));
#1588=DIRECTION('',(0.000418339468889085,0.999999912496041,0.));
#1589=DIRECTION('',(0.,0.,-1.));
#1590=DIRECTION('',(-1.,0.,0.));
#1591=DIRECTION('',(0.,0.,-1.));
#1592=DIRECTION('',(1.,0.,0.));
#1593=DIRECTION('',(0.,0.,-1.));
#1594=DIRECTION('',(0.,0.,-1.));
#1595=DIRECTION('',(1.,0.,0.));
#1596=DIRECTION('',(0.,0.,-1.));
#1597=DIRECTION('',(0.,0.,-1.));
#1598=DIRECTION('',(-1.,0.,0.));
#1599=DIRECTION('',(0.,0.,1.));
#1600=DIRECTION('',(1.,0.,0.));
#1601=DIRECTION('',(0.,0.,-1.));
#1602=DIRECTION('',(0.,0.,1.));
#1603=DIRECTION('',(1.,0.,0.));
#1604=DIRECTION('',(1.,-3.27267216358903E-11,0.));
#1605=DIRECTION('',(3.27267216358903E-11,1.,0.));
#1606=DIRECTION('',(-3.27267216358903E-11,-1.,0.));
#1607=DIRECTION('',(-3.27267216358903E-11,-1.,0.));
#1608=DIRECTION('',(-1.,-9.80741669332183E-17,0.));
#1609=DIRECTION('',(9.80741669332183E-17,-1.,0.));
#1610=DIRECTION('',(-9.80741669332183E-17,1.,0.));
#1611=DIRECTION('',(0.,0.,-1.));
#1612=DIRECTION('',(-9.80741669332183E-17,1.,0.));
#1613=DIRECTION('',(0.,0.,-1.));
#1614=DIRECTION('',(0.,0.,-1.));
#1615=DIRECTION('',(-1.,0.,0.));
#1616=DIRECTION('',(0.,0.,-1.));
#1617=DIRECTION('',(0.491666634877081,0.870783509345835,0.));
#1618=DIRECTION('',(0.,0.,-1.));
#1619=DIRECTION('',(0.,0.,-1.));
#1620=DIRECTION('',(0.491666634877081,0.870783509345835,0.));
#1621=DIRECTION('',(0.,0.,-1.));
#1622=DIRECTION('',(-1.,0.,0.));
#1623=DIRECTION('',(0.,0.,1.));
#1624=DIRECTION('',(-0.491666634877082,-0.870783509345834,0.));
#1625=DIRECTION('',(0.,0.,-1.));
#1626=DIRECTION('',(0.,0.,1.));
#1627=DIRECTION('',(-0.491666634877082,-0.870783509345834,0.));
#1628=DIRECTION('',(0.,0.,-1.));
#1629=DIRECTION('',(-1.,0.,0.));
#1630=DIRECTION('',(0.,0.,-1.));
#1631=DIRECTION('',(1.2335811384724E-15,1.,0.));
#1632=DIRECTION('',(0.,0.,-1.));
#1633=DIRECTION('',(0.,0.,-1.));
#1634=DIRECTION('',(1.2335811384724E-15,1.,0.));
#1635=DIRECTION('',(0.,1.,0.));
#1636=DIRECTION('',(0.,0.,1.));
#1637=DIRECTION('',(1.,0.,0.));
#1638=DIRECTION('',(0.,0.,-1.));
#1639=DIRECTION('',(1.,0.,0.));
#1640=DIRECTION('',(0.,0.,-1.));
#1641=DIRECTION('',(-1.,0.,0.));
#1642=DIRECTION('',(0.,0.,-1.));
#1643=DIRECTION('',(0.871956559697799,-0.489583249304936,0.));
#1644=DIRECTION('',(0.,0.,-1.));
#1645=DIRECTION('',(0.,0.,-1.));
#1646=DIRECTION('',(0.871956559697799,-0.489583249304936,0.));
#1647=DIRECTION('',(0.,0.,-1.));
#1648=DIRECTION('',(-1.,0.,0.));
#1649=DIRECTION('',(0.,0.,1.));
#1650=DIRECTION('',(-0.871956559697799,0.489583249304935,0.));
#1651=DIRECTION('',(0.,0.,-1.));
#1652=DIRECTION('',(0.,0.,1.));
#1653=DIRECTION('',(-0.871956559697799,0.489583249304935,0.));
#1654=DIRECTION('',(0.,0.,-1.));
#1655=DIRECTION('',(-1.,0.,0.));
#1656=DIRECTION('',(0.,0.,-1.));
#1657=DIRECTION('',(1.,-1.2335811384724E-15,0.));
#1658=DIRECTION('',(0.,0.,-1.));
#1659=DIRECTION('',(1.,-1.2335811384724E-15,0.));
#1660=DIRECTION('',(1.,6.54516838630656E-11,0.));
#1661=DIRECTION('',(-6.54516838630656E-11,1.,0.));
#1662=DIRECTION('',(6.54516838630656E-11,-1.,0.));
#1663=DIRECTION('',(0.,0.,-1.));
#1664=DIRECTION('',(6.54516838630656E-11,-1.,0.));
#1665=DIRECTION('',(0.,0.,-1.));
#1666=DIRECTION('',(0.,0.,-1.));
#1667=DIRECTION('',(-1.,0.,0.));
#1668=DIRECTION('',(0.,0.,-1.));
#1669=DIRECTION('',(-0.491666629613225,-0.870783512317942,0.));
#1670=DIRECTION('',(0.,0.,-1.));
#1671=DIRECTION('',(0.,0.,-1.));
#1672=DIRECTION('',(-0.491666629613225,-0.870783512317942,0.));
#1673=DIRECTION('',(0.,0.,-1.));
#1674=DIRECTION('',(-1.,0.,0.));
#1675=DIRECTION('',(0.,0.,1.));
#1676=DIRECTION('',(0.491666629613226,0.870783512317942,0.));
#1677=DIRECTION('',(0.,0.,-1.));
#1678=DIRECTION('',(0.,0.,1.));
#1679=DIRECTION('',(0.491666629613226,0.870783512317942,0.));
#1680=DIRECTION('',(0.,0.,-1.));
#1681=DIRECTION('',(-1.,0.,0.));
#1682=DIRECTION('',(0.,0.,-1.));
#1683=DIRECTION('',(2.61731695153096E-48,-1.,0.));
#1684=DIRECTION('',(0.,0.,-1.));
#1685=DIRECTION('',(0.,0.,-1.));
#1686=DIRECTION('',(2.61731695153096E-48,-1.,0.));
#1687=DIRECTION('',(0.,-1.,0.));
#1688=DIRECTION('',(0.,0.,-1.));
#1689=DIRECTION('',(-1.,0.,0.));
#1690=DIRECTION('',(0.,0.,-1.));
#1691=DIRECTION('',(-1.,0.,0.));
#1692=DIRECTION('',(0.,0.,-1.));
#1693=DIRECTION('',(-1.,0.,0.));
#1694=DIRECTION('',(0.,0.,1.));
#1695=DIRECTION('',(1.,0.,0.));
#1696=DIRECTION('',(0.,0.,1.));
#1697=DIRECTION('',(1.,0.,0.));
#1698=DIRECTION('',(0.,0.,-1.));
#1699=DIRECTION('',(-1.,0.,0.));
#1700=DIRECTION('',(0.,0.,1.));
#1701=DIRECTION('',(1.,0.,0.));
#1702=DIRECTION('',(0.,0.,-1.));
#1703=DIRECTION('',(0.,0.,1.));
#1704=DIRECTION('',(1.,0.,0.));
#1705=DIRECTION('',(0.,0.,-1.));
#1706=DIRECTION('',(-1.,0.,0.));
#1707=DIRECTION('',(0.,0.,1.));
#1708=DIRECTION('',(1.,0.,0.));
#1709=DIRECTION('',(0.,0.,1.));
#1710=DIRECTION('',(1.,0.,0.));
#1711=DIRECTION('',(0.,0.,-1.));
#1712=DIRECTION('',(-1.,0.,0.));
#1713=DIRECTION('',(0.,0.,1.));
#1714=DIRECTION('',(1.,0.,0.));
#1715=DIRECTION('',(0.,0.,1.));
#1716=DIRECTION('',(1.,0.,0.));
#1717=DIRECTION('',(0.,0.,-1.));
#1718=DIRECTION('',(-1.,0.,0.));
#1719=DIRECTION('',(0.,0.,1.));
#1720=DIRECTION('',(1.,0.,0.));
#1721=DIRECTION('',(0.,0.,1.));
#1722=DIRECTION('',(1.,0.,0.));
#1723=DIRECTION('',(0.,0.,-1.));
#1724=DIRECTION('',(-1.,0.,0.));
#1725=DIRECTION('',(0.,0.,1.));
#1726=DIRECTION('',(1.,0.,0.));
#1727=DIRECTION('',(0.,0.,1.));
#1728=DIRECTION('',(1.,0.,0.));
#1729=DIRECTION('',(0.,0.,-1.));
#1730=DIRECTION('',(-1.,0.,0.));
#1731=DIRECTION('',(0.,0.,-1.));
#1732=DIRECTION('',(-0.871956559656951,0.489583249377686,0.));
#1733=DIRECTION('',(0.,0.,-1.));
#1734=DIRECTION('',(-0.871956559656951,0.489583249377686,0.));
#1735=DIRECTION('',(0.,0.,-1.));
#1736=DIRECTION('',(-1.,0.,0.));
#1737=DIRECTION('',(0.,0.,1.));
#1738=DIRECTION('',(1.,0.,0.));
#1739=DIRECTION('',(0.,0.,1.));
#1740=DIRECTION('',(1.,0.,0.));
#1741=DIRECTION('',(0.,0.,1.));
#1742=DIRECTION('',(1.,0.,0.));
#1743=DIRECTION('',(1.,2.86760411334942E-14,0.));
#1744=DIRECTION('',(0.,0.,1.));
#1745=DIRECTION('',(1.,0.,0.));
#1746=DIRECTION('',(0.,0.,1.));
#1747=DIRECTION('',(1.,0.,0.));
#1748=DIRECTION('',(0.,0.,1.));
#1749=DIRECTION('',(1.,0.,0.));
#1750=DIRECTION('',(0.,0.,1.));
#1751=DIRECTION('',(1.,0.,0.));
#1752=DIRECTION('',(0.,0.,1.));
#1753=DIRECTION('',(1.,0.,0.));
#1754=DIRECTION('',(0.,0.,1.));
#1755=DIRECTION('',(1.,0.,0.));
#1756=DIRECTION('',(0.,0.,1.));
#1757=DIRECTION('',(1.,0.,0.));
#1758=DIRECTION('',(0.,0.,1.));
#1759=DIRECTION('',(1.,0.,0.));
#1760=DIRECTION('',(0.,0.,1.));
#1761=DIRECTION('',(1.,0.,0.));
#1762=DIRECTION('',(0.,0.,1.));
#1763=DIRECTION('',(1.,0.,0.));
#1764=DIRECTION('',(0.,0.,1.));
#1765=DIRECTION('',(1.,0.,0.));
#1766=DIRECTION('',(0.,0.,1.));
#1767=DIRECTION('',(1.,0.,0.));
#1768=DIRECTION('',(0.,0.,1.));
#1769=DIRECTION('',(1.,0.,0.));
#1770=DIRECTION('',(0.,0.,1.));
#1771=DIRECTION('',(1.,0.,0.));
#1772=DIRECTION('',(0.,0.,1.));
#1773=DIRECTION('',(1.,0.,0.));
#1774=DIRECTION('',(0.,0.,-1.));
#1775=DIRECTION('',(-1.,0.,0.));
#1776=DIRECTION('',(0.,0.,1.));
#1777=DIRECTION('',(1.,0.,0.));
#1778=DIRECTION('',(0.,0.,-1.));
#1779=DIRECTION('',(-1.,0.,0.));
#1780=DIRECTION('',(0.,0.,1.));
#1781=DIRECTION('',(1.,0.,0.));
#1782=DIRECTION('',(0.,0.,-1.));
#1783=DIRECTION('',(-1.,0.,0.));
#1784=DIRECTION('',(0.,0.,-1.));
#1785=DIRECTION('',(0.,0.,-1.));
#1786=DIRECTION('',(0.,0.,-1.));
#1787=DIRECTION('',(-1.,0.,0.));
#1788=DIRECTION('',(0.,0.,-1.));
#1789=DIRECTION('',(0.,0.,-1.));
#1790=DIRECTION('',(0.,0.,-1.));
#1791=DIRECTION('',(-1.,0.,0.));
#1792=DIRECTION('',(0.,0.,-1.));
#1793=DIRECTION('',(-1.,0.,0.));
#1794=DIRECTION('',(0.,0.,-1.));
#1795=DIRECTION('',(-1.,0.,0.));
#1796=DIRECTION('',(0.,0.,-1.));
#1797=DIRECTION('',(-1.,0.,0.));
#1798=DIRECTION('',(2.86760411334942E-14,-1.,0.));
#1799=DIRECTION('',(1.,2.86760411334942E-14,0.));
#1800=DIRECTION('',(1.,2.86760411334942E-14,0.));
#1801=DIRECTION('',(0.,0.,1.));
#1802=DIRECTION('',(1.,0.,0.));
#1803=CARTESIAN_POINT('',(0.,0.,0.));
#1804=CARTESIAN_POINT('',(0.000840000178105565,-0.0086139995970132,0.01295));
#1805=CARTESIAN_POINT('',(0.000840000178105565,-0.0086139995970132,0.01245));
#1806=CARTESIAN_POINT('',(0.000840000178105461,-0.00489696424257601,0.01245));
#1807=CARTESIAN_POINT('',(0.000840000178105702,-0.0135139995970132,0.01245));
#1808=CARTESIAN_POINT('',(0.000840000178105702,-0.0135139995970132,0.01245));
#1809=CARTESIAN_POINT('',(0.000840000178105702,-0.0135139995970132,0.01295));
#1810=CARTESIAN_POINT('',(0.000840000178105565,-0.0086139995970132,0.01295));
#1811=CARTESIAN_POINT('',(0.000840000178105791,-0.0167371025127226,0.01295));
#1812=CARTESIAN_POINT('',(0.000840000178105791,-0.0167371025127226,0.01295));
#1813=CARTESIAN_POINT('',(0.000840000178105791,-0.0167371025127226,0.00995));
#1814=CARTESIAN_POINT('',(0.000840000178105565,-0.0086139995970132,0.00995));
#1815=CARTESIAN_POINT('',(0.000840000178105461,-0.00489696424257601,0.00995));
#1816=CARTESIAN_POINT('',(0.000840000178105461,-0.00489696424257601,0.01295));
#1817=CARTESIAN_POINT('',(-0.00405999982189444,-0.00371399959701333,0.01295));
#1818=CARTESIAN_POINT('',(-0.00777703517633152,-0.00371399959701345,0.01295));
#1819=CARTESIAN_POINT('',(-0.00777703517633152,-0.00371399959701345,0.00995));
#1820=CARTESIAN_POINT('',(-0.00777703517633152,-0.00371399959701345,0.01245));
#1821=CARTESIAN_POINT('',(-0.00405999982189444,-0.00371399959701333,0.01245));
#1822=CARTESIAN_POINT('',(-0.000342964467457388,-0.00371399959701323,0.01245));
#1823=CARTESIAN_POINT('',(-0.000342964467457388,-0.00371399959701323,0.01295));
#1824=CARTESIAN_POINT('',(-0.000342964467457388,-0.00371399959701323,0.00995));
#1825=CARTESIAN_POINT('',(-0.00405999982189444,-0.00371399959701333,0.00995));
#1826=CARTESIAN_POINT('',(-0.0089599998218943,-0.00861399959701348,0.01295));
#1827=CARTESIAN_POINT('',(-0.0089599998218943,-0.0135139995970135,0.01245));
#1828=CARTESIAN_POINT('',(-0.0089599998218943,-0.0135139995970135,0.01245));
#1829=CARTESIAN_POINT('',(-0.0089599998218943,-0.0135139995970135,0.01295));
#1830=CARTESIAN_POINT('',(-0.0089599998218943,-0.00861399959701348,0.01245));
#1831=CARTESIAN_POINT('',(-0.0089599998218943,-0.00489696424257626,0.01245));
#1832=CARTESIAN_POINT('',(-0.0089599998218943,-0.00489696424257626,0.01295));
#1833=CARTESIAN_POINT('',(-0.0089599998218943,-0.00489696424257626,0.00995));
#1834=CARTESIAN_POINT('',(-0.0089599998218943,-0.00861399959701348,0.00995));
#1835=CARTESIAN_POINT('',(-0.0089599998218943,-0.016677522497833,0.00995));
#1836=CARTESIAN_POINT('',(-0.0089599998218943,-0.016677522497833,0.01295));
#1837=CARTESIAN_POINT('',(-0.0089599998218943,-0.016677522497833,0.01295));
#1838=CARTESIAN_POINT('',(-0.0089599998218943,-0.00861399959701348,0.01295));
#1839=CARTESIAN_POINT('',(0.0196599998210321,0.00566011957108037,0.01295));
#1840=CARTESIAN_POINT('',(0.0196599998210321,0.00566011957108037,0.00995));
#1841=CARTESIAN_POINT('',(0.0196599998214026,0.0113202391409328,0.00995));
#1842=CARTESIAN_POINT('',(0.0196599998217287,-0.00498251793044892,0.00995));
#1843=CARTESIAN_POINT('',(0.0196599998217287,-0.00498251793044892,0.01295));
#1844=CARTESIAN_POINT('',(0.0196599998217287,-0.00498251793044892,0.01295));
#1845=CARTESIAN_POINT('',(0.0196599998210321,0.00566011957108037,0.01295));
#1846=CARTESIAN_POINT('',(0.0196599998214026,0.0113202391409328,0.01295));
#1847=CARTESIAN_POINT('',(0.0196599998214026,0.0113202391409328,0.01295));
#1848=CARTESIAN_POINT('',(-0.01965999984741,-0.00566011957756998,0.01295));
#1849=CARTESIAN_POINT('',(-0.01965999984741,-0.00566011957756998,0.00995));
#1850=CARTESIAN_POINT('',(-0.0196599998346067,-0.000930998046845551,0.00995));
#1851=CARTESIAN_POINT('',(-0.01965999984741,0.00171666564814188,0.00995));
#1852=CARTESIAN_POINT('',(-0.01965999984741,0.00171666564814188,0.01295));
#1853=CARTESIAN_POINT('',(-0.01965999984741,0.00171666564814188,0.01295));
#1854=CARTESIAN_POINT('',(-0.01965999984741,-0.00566011957756998,0.01295));
#1855=CARTESIAN_POINT('',(-0.0196599998346067,-0.000930998046845551,0.01295));
#1856=CARTESIAN_POINT('',(-0.0196599998346067,-0.000930998046845551,0.01295));
#1857=CARTESIAN_POINT('',(-0.0183949999188156,0.0183849996185301,0.01295));
#1858=CARTESIAN_POINT('',(-0.0183949999188156,0.0183849996185301,0.00995));
#1859=CARTESIAN_POINT('',(-0.0164831677219058,0.0202968318154399,0.00995));
#1860=CARTESIAN_POINT('',(-0.0203068321157254,0.0164731674216203,0.00995));
#1861=CARTESIAN_POINT('',(-0.0203068321157254,0.0164731674216203,0.01295));
#1862=CARTESIAN_POINT('',(-0.0203068321157254,0.0164731674216203,0.01295));
#1863=CARTESIAN_POINT('',(-0.0183949999188156,0.0183849996185301,0.01295));
#1864=CARTESIAN_POINT('',(-0.0164831677219058,0.0202968318154399,0.01295));
#1865=CARTESIAN_POINT('',(-0.0164831677219058,0.0202968318154399,0.01295));
#1866=CARTESIAN_POINT('',(-0.018247102834525,0.0144134381404199,0.01295));
#1867=CARTESIAN_POINT('',(-0.018247102834525,0.0144134381404199,0.00995));
#1868=CARTESIAN_POINT('',(-0.0211380369758063,0.0147704664508419,0.00995));
#1869=CARTESIAN_POINT('',(-0.0211380369758063,0.0147704664508419,0.01295));
#1870=CARTESIAN_POINT('',(-0.0211380369758063,0.0147704664508419,0.01295));
#1871=CARTESIAN_POINT('',(-0.018247102834525,0.0144134381404199,0.01295));
#1872=CARTESIAN_POINT('',(-0.0181621594083092,0.0144082527664067,0.01295));
#1873=CARTESIAN_POINT('',(-0.0181621594083092,0.0144082527664067,0.00995));
#1874=CARTESIAN_POINT('',(-0.0211599997416733,0.0144081129687943,0.00995));
#1875=CARTESIAN_POINT('',(-0.0211599997416733,0.0144081129687943,0.01295));
#1876=CARTESIAN_POINT('',(-0.0211599997416733,0.0144081129687943,0.01295));
#1877=CARTESIAN_POINT('',(-0.0181621594083092,0.0144082527664067,0.01295));
#1878=CARTESIAN_POINT('',(-0.0211599998474098,0.00720349979400624,0.01295));
#1879=CARTESIAN_POINT('',(-0.0211599998474098,0.00720349979400624,0.00995));
#1880=CARTESIAN_POINT('',(-0.0211599997416746,-0.0144081129687878,0.00995));
#1881=CARTESIAN_POINT('',(-0.0211599997416746,-0.0144081129687878,0.01295));
#1882=CARTESIAN_POINT('',(-0.0211599997416746,-0.0144081129687878,0.01295));
#1883=CARTESIAN_POINT('',(-0.0211599998474098,0.00720349979400624,0.01295));
#1884=CARTESIAN_POINT('',(-0.0181621594083124,-0.0144082527663997,0.01295));
#1885=CARTESIAN_POINT('',(-0.0181621594083124,-0.0144082527663997,0.00995));
#1886=CARTESIAN_POINT('',(-0.0211380369760024,-0.0147704664492506,0.00995));
#1887=CARTESIAN_POINT('',(-0.0211380369760024,-0.0147704664492506,0.01295));
#1888=CARTESIAN_POINT('',(-0.0211380369760024,-0.0147704664492506,0.01295));
#1889=CARTESIAN_POINT('',(-0.0181621594083124,-0.0144082527663997,0.01295));
#1890=CARTESIAN_POINT('',(-0.0182471028345251,-0.0144134381404158,0.01295));
#1891=CARTESIAN_POINT('',(-0.0182471028345251,-0.0144134381404158,0.00995));
#1892=CARTESIAN_POINT('',(-0.0203068321157254,-0.0164731674216162,0.00995));
#1893=CARTESIAN_POINT('',(-0.0203068321157254,-0.0164731674216162,0.01295));
#1894=CARTESIAN_POINT('',(-0.0203068321157254,-0.0164731674216162,0.01295));
#1895=CARTESIAN_POINT('',(-0.0182471028345251,-0.0144134381404158,0.01295));
#1896=CARTESIAN_POINT('',(-0.0183949999188156,-0.0183849996185261,0.01295));
#1897=CARTESIAN_POINT('',(-0.0183949999188156,-0.0183849996185261,0.00995));
#1898=CARTESIAN_POINT('',(-0.0164831677219058,-0.0202968318154358,0.00995));
#1899=CARTESIAN_POINT('',(-0.0164831677219058,-0.0202968318154358,0.01295));
#1900=CARTESIAN_POINT('',(-0.0164831677219058,-0.0202968318154358,0.01295));
#1901=CARTESIAN_POINT('',(-0.0183949999188156,-0.0183849996185261,0.01295));
#1902=CARTESIAN_POINT('',(-0.0144234384407054,-0.0182371025342354,0.01295));
#1903=CARTESIAN_POINT('',(-0.0144234384407054,-0.0182371025342354,0.00995));
#1904=CARTESIAN_POINT('',(-0.0147801033651171,-0.0211280815302441,0.00995));
#1905=CARTESIAN_POINT('',(-0.0147801033651171,-0.0211280815302441,0.01295));
#1906=CARTESIAN_POINT('',(-0.0147801033651171,-0.0211280815302441,0.01295));
#1907=CARTESIAN_POINT('',(-0.0144234384407054,-0.0182371025342354,0.01295));
#1908=CARTESIAN_POINT('',(-0.01441825393178,-0.01815215964996,0.01295));
#1909=CARTESIAN_POINT('',(-0.01441825393178,-0.01815215964996,0.00995));
#1910=CARTESIAN_POINT('',(-0.01441699981689,-0.02114999961853,0.00995));
#1911=CARTESIAN_POINT('',(-0.01441699981689,-0.02114999961853,0.01295));
#1912=CARTESIAN_POINT('',(-0.01441699981689,-0.02114999961853,0.01295));
#1913=CARTESIAN_POINT('',(-0.01441825393178,-0.01815215964996,0.01295));
#1914=CARTESIAN_POINT('',(-0.00720849990844424,-0.02114999961853,0.01295));
#1915=CARTESIAN_POINT('',(-0.00720849990844424,-0.02114999961853,0.00995));
#1916=CARTESIAN_POINT('',(0.014416999816895,-0.0211499996185261,0.00995));
#1917=CARTESIAN_POINT('',(0.014416999816895,-0.0211499996185261,0.01295));
#1918=CARTESIAN_POINT('',(0.014416999816895,-0.0211499996185261,0.01295));
#1919=CARTESIAN_POINT('',(-0.00720849990844424,-0.02114999961853,0.01295));
#1920=CARTESIAN_POINT('',(0.014418253931786,-0.01815215964996,0.01295));
#1921=CARTESIAN_POINT('',(0.014418253931786,-0.01815215964996,0.00995));
#1922=CARTESIAN_POINT('',(0.0147801033682885,-0.0211280815298533,0.00995));
#1923=CARTESIAN_POINT('',(0.0147801033682885,-0.0211280815298533,0.01295));
#1924=CARTESIAN_POINT('',(0.0147801033682885,-0.0211280815298533,0.01295));
#1925=CARTESIAN_POINT('',(0.014418253931786,-0.01815215964996,0.01295));
#1926=CARTESIAN_POINT('',(0.0144234384407089,-0.0182371025342354,0.01295));
#1927=CARTESIAN_POINT('',(0.0144234384407089,-0.0182371025342354,0.00995));
#1928=CARTESIAN_POINT('',(0.0164831677219094,-0.0202968318154358,0.00995));
#1929=CARTESIAN_POINT('',(0.0164831677219094,-0.0202968318154358,0.01295));
#1930=CARTESIAN_POINT('',(0.0164831677219094,-0.0202968318154358,0.01295));
#1931=CARTESIAN_POINT('',(0.0144234384407089,-0.0182371025342354,0.01295));
#1932=CARTESIAN_POINT('',(0.0183949999188192,-0.0183849996185261,0.01295));
#1933=CARTESIAN_POINT('',(0.0183949999188192,-0.0183849996185261,0.00995));
#1934=CARTESIAN_POINT('',(0.0203068321157289,-0.0164731674216162,0.00995));
#1935=CARTESIAN_POINT('',(0.0203068321157289,-0.0164731674216162,0.01295));
#1936=CARTESIAN_POINT('',(0.0203068321157289,-0.0164731674216162,0.01295));
#1937=CARTESIAN_POINT('',(0.0183949999188192,-0.0183849996185261,0.01295));
#1938=CARTESIAN_POINT('',(0.0182471028345286,-0.0144134381404158,0.01295));
#1939=CARTESIAN_POINT('',(0.0182471028345286,-0.0144134381404158,0.00995));
#1940=CARTESIAN_POINT('',(0.0211380369759685,-0.0147704664495535,0.00995));
#1941=CARTESIAN_POINT('',(0.0211380369759685,-0.0147704664495535,0.01295));
#1942=CARTESIAN_POINT('',(0.0211380369759685,-0.0147704664495535,0.01295));
#1943=CARTESIAN_POINT('',(0.0182471028345286,-0.0144134381404158,0.01295));
#1944=CARTESIAN_POINT('',(0.0181621594083154,-0.0144082527663997,0.01295));
#1945=CARTESIAN_POINT('',(0.0181621594083154,-0.0144082527663997,0.00995));
#1946=CARTESIAN_POINT('',(0.0211599997416774,-0.0144081129687878,0.00995));
#1947=CARTESIAN_POINT('',(0.0211599997416774,-0.0144081129687878,0.01295));
#1948=CARTESIAN_POINT('',(0.0211599997416774,-0.0144081129687878,0.01295));
#1949=CARTESIAN_POINT('',(0.0181621594083154,-0.0144082527663997,0.01295));
#1950=CARTESIAN_POINT('',(0.021159999847412,-0.00720349979400505,0.01295));
#1951=CARTESIAN_POINT('',(0.021159999847412,-0.00720349979400505,0.00995));
#1952=CARTESIAN_POINT('',(0.0211599997416775,0.0144081129687952,0.00995));
#1953=CARTESIAN_POINT('',(0.0211599997416775,0.0144081129687952,0.01295));
#1954=CARTESIAN_POINT('',(0.0211599997416775,0.0144081129687952,0.01295));
#1955=CARTESIAN_POINT('',(0.021159999847412,-0.00720349979400505,0.01295));
#1956=CARTESIAN_POINT('',(0.0181621594083154,0.0144082527664077,0.01295));
#1957=CARTESIAN_POINT('',(0.0181621594083154,0.0144082527664077,0.00995));
#1958=CARTESIAN_POINT('',(0.0211380369760018,0.0147704664492876,0.00995));
#1959=CARTESIAN_POINT('',(0.0211380369760018,0.0147704664492876,0.01295));
#1960=CARTESIAN_POINT('',(0.0211380369760018,0.0147704664492876,0.01295));
#1961=CARTESIAN_POINT('',(0.0181621594083154,0.0144082527664077,0.01295));
#1962=CARTESIAN_POINT('',(0.0182471028345285,0.0144134381404199,0.01295));
#1963=CARTESIAN_POINT('',(0.0182471028345285,0.0144134381404199,0.00995));
#1964=CARTESIAN_POINT('',(0.0203068321157289,0.0164731674216203,0.00995));
#1965=CARTESIAN_POINT('',(0.0203068321157289,0.0164731674216203,0.01295));
#1966=CARTESIAN_POINT('',(0.0203068321157289,0.0164731674216203,0.01295));
#1967=CARTESIAN_POINT('',(0.0182471028345285,0.0144134381404199,0.01295));
#1968=CARTESIAN_POINT('',(0.0183949999188192,0.0183849996185301,0.01295));
#1969=CARTESIAN_POINT('',(0.0183949999188192,0.0183849996185301,0.00995));
#1970=CARTESIAN_POINT('',(0.0164831677219094,0.0202968318154399,0.00995));
#1971=CARTESIAN_POINT('',(0.0164831677219094,0.0202968318154399,0.01295));
#1972=CARTESIAN_POINT('',(0.0164831677219094,0.0202968318154399,0.01295));
#1973=CARTESIAN_POINT('',(0.0183949999188192,0.0183849996185301,0.01295));
#1974=CARTESIAN_POINT('',(0.0144234384407089,0.0182371025342395,0.01295));
#1975=CARTESIAN_POINT('',(0.0144234384407089,0.0182371025342395,0.00995));
#1976=CARTESIAN_POINT('',(0.0147801033671927,0.0211280815299925,0.00995));
#1977=CARTESIAN_POINT('',(0.0147801033671927,0.0211280815299925,0.01295));
#1978=CARTESIAN_POINT('',(0.0147801033671927,0.0211280815299925,0.01295));
#1979=CARTESIAN_POINT('',(0.0144234384407089,0.0182371025342395,0.01295));
#1980=CARTESIAN_POINT('',(0.014418253931786,0.018152159649966,0.01295));
#1981=CARTESIAN_POINT('',(0.014418253931786,0.018152159649966,0.00995));
#1982=CARTESIAN_POINT('',(0.014416999816895,0.0211499996185301,0.00995));
#1983=CARTESIAN_POINT('',(0.014416999816895,0.0211499996185301,0.01295));
#1984=CARTESIAN_POINT('',(0.014416999816895,0.0211499996185301,0.01295));
#1985=CARTESIAN_POINT('',(0.014418253931786,0.018152159649966,0.01295));
#1986=CARTESIAN_POINT('',(0.00720849990844828,0.0211499996185301,0.01295));
#1987=CARTESIAN_POINT('',(0.00720849990844828,0.0211499996185301,0.00995));
#1988=CARTESIAN_POINT('',(-0.01441699981689,0.0211499996185301,0.00995));
#1989=CARTESIAN_POINT('',(-0.01441699981689,0.0211499996185301,0.01295));
#1990=CARTESIAN_POINT('',(-0.01441699981689,0.0211499996185301,0.01295));
#1991=CARTESIAN_POINT('',(0.00720849990844828,0.0211499996185301,0.01295));
#1992=CARTESIAN_POINT('',(-0.01441825393178,0.018152159649966,0.01295));
#1993=CARTESIAN_POINT('',(-0.01441825393178,0.018152159649966,0.00995));
#1994=CARTESIAN_POINT('',(-0.0147801033673684,0.0211280815299704,0.00995));
#1995=CARTESIAN_POINT('',(-0.0147801033673684,0.0211280815299704,0.01295));
#1996=CARTESIAN_POINT('',(-0.0147801033673684,0.0211280815299704,0.01295));
#1997=CARTESIAN_POINT('',(-0.01441825393178,0.018152159649966,0.01295));
#1998=CARTESIAN_POINT('',(-0.0155000000000484,-0.0155000000000862,0.01295));
#1999=CARTESIAN_POINT('',(-0.0155000000000484,-0.0155000000000862,0.00995));
#2000=CARTESIAN_POINT('',(-0.0169749998887884,-0.0128876494630761,0.00995));
#2001=CARTESIAN_POINT('',(-0.0128841303210291,-0.0169687497481331,0.00995));
#2002=CARTESIAN_POINT('',(-0.0169749998887884,-0.0128876494630761,0.01295));
#2003=CARTESIAN_POINT('',(-0.0169749998887884,-0.0128876494630761,0.01295));
#2004=CARTESIAN_POINT('',(-0.0155000000000484,-0.0155000000000862,0.01295));
#2005=CARTESIAN_POINT('',(-0.0128841303210291,-0.0169687497481331,0.01295));
#2006=CARTESIAN_POINT('',(-0.0128841303210291,-0.0169687497481331,0.01295));
#2007=CARTESIAN_POINT('',(-0.0178599998221435,-0.0113202391409328,0.01295));
#2008=CARTESIAN_POINT('',(-0.0178599998221435,-0.0113202391409328,0.00995));
#2009=CARTESIAN_POINT('',(-0.0196599998221435,-0.0113202391408739,0.00995));
#2010=CARTESIAN_POINT('',(-0.0196599998221435,-0.0113202391408739,0.01295));
#2011=CARTESIAN_POINT('',(-0.0196599998221435,-0.0113202391408739,0.01295));
#2012=CARTESIAN_POINT('',(-0.0178599998221435,-0.0113202391409328,0.01295));
#2013=CARTESIAN_POINT('',(-0.0196599998219735,-0.00612561859387445,0.01295));
#2014=CARTESIAN_POINT('',(-0.0196599998219735,-0.00612561859387445,0.00995));
#2015=CARTESIAN_POINT('',(-0.0196599998219735,-0.00612561859387445,0.01295));
#2016=CARTESIAN_POINT('',(-0.01965999984741,-0.00566011957756998,0.01295));
#2017=CARTESIAN_POINT('',(-0.01965999984741,-0.00566011957756998,0.01295));
#2018=CARTESIAN_POINT('',(-0.01965999984741,0.0061778894586172,0.01295));
#2019=CARTESIAN_POINT('',(-0.01965999984741,0.01132023915514,0.01295));
#2020=CARTESIAN_POINT('',(-0.01965999984741,0.0061778894586172,0.01295));
#2021=CARTESIAN_POINT('',(-0.01965999984741,0.0061778894586172,0.00995));
#2022=CARTESIAN_POINT('',(-0.01965999984741,-0.00566011957756998,0.00995));
#2023=CARTESIAN_POINT('',(-0.01965999984741,0.01132023915514,0.00995));
#2024=CARTESIAN_POINT('',(-0.01965999984741,0.01132023915514,0.01295));
#2025=CARTESIAN_POINT('',(-0.01785999984741,0.01132023915514,0.01295));
#2026=CARTESIAN_POINT('',(-0.01785999984741,0.01132023915514,0.00995));
#2027=CARTESIAN_POINT('',(-0.0169749999046312,0.0128876494719625,0.00995));
#2028=CARTESIAN_POINT('',(-0.0169749999046312,0.0128876494719625,0.01295));
#2029=CARTESIAN_POINT('',(-0.0169749999046312,0.0128876494719625,0.01295));
#2030=CARTESIAN_POINT('',(-0.01785999984741,0.01132023915514,0.01295));
#2031=CARTESIAN_POINT('',(-0.0155,0.0155,0.01295));
#2032=CARTESIAN_POINT('',(-0.0155,0.0155,0.00995));
#2033=CARTESIAN_POINT('',(-0.0128841303209066,0.0169687497479148,0.00995));
#2034=CARTESIAN_POINT('',(-0.0128841303209066,0.0169687497479148,0.01295));
#2035=CARTESIAN_POINT('',(-0.0128841303209066,0.0169687497479148,0.01295));
#2036=CARTESIAN_POINT('',(-0.0155,0.0155,0.01295));
#2037=CARTESIAN_POINT('',(-0.0113146085134506,0.0178499995966637,0.01295));
#2038=CARTESIAN_POINT('',(-0.0113146085134506,0.0178499995966637,0.00995));
#2039=CARTESIAN_POINT('',(-0.0113146085134506,0.0196499995966637,0.00995));
#2040=CARTESIAN_POINT('',(-0.0113146085134506,0.0196499995966637,0.01295));
#2041=CARTESIAN_POINT('',(-0.0113146085134506,0.0196499995966637,0.01295));
#2042=CARTESIAN_POINT('',(-0.0113146085134506,0.0178499995966637,0.01295));
#2043=CARTESIAN_POINT('',(-0.00565730425672453,0.0196499995966637,0.01295));
#2044=CARTESIAN_POINT('',(-0.00565730425672453,0.0196499995966637,0.00995));
#2045=CARTESIAN_POINT('',(0.0113146085134506,0.0196499995966637,0.00995));
#2046=CARTESIAN_POINT('',(0.0113146085134506,0.0196499995966637,0.01295));
#2047=CARTESIAN_POINT('',(0.0113146085134506,0.0196499995966637,0.01295));
#2048=CARTESIAN_POINT('',(-0.00565730425672453,0.0196499995966637,0.01295));
#2049=CARTESIAN_POINT('',(0.0113146085134506,0.0178499995966637,0.01295));
#2050=CARTESIAN_POINT('',(0.0113146085134506,0.0178499995966637,0.00995));
#2051=CARTESIAN_POINT('',(0.0128841303209066,0.0169687497479148,0.00995));
#2052=CARTESIAN_POINT('',(0.0128841303209066,0.0169687497479148,0.01295));
#2053=CARTESIAN_POINT('',(0.0128841303209066,0.0169687497479148,0.01295));
#2054=CARTESIAN_POINT('',(0.0113146085134506,0.0178499995966637,0.01295));
#2055=CARTESIAN_POINT('',(0.0155,0.0155,0.01295));
#2056=CARTESIAN_POINT('',(0.0155,0.0155,0.00995));
#2057=CARTESIAN_POINT('',(0.0169749998888397,0.0128876494630462,0.00995));
#2058=CARTESIAN_POINT('',(0.0169749998888397,0.0128876494630462,0.01295));
#2059=CARTESIAN_POINT('',(0.0169749998888397,0.0128876494630462,0.01295));
#2060=CARTESIAN_POINT('',(0.0155,0.0155,0.01295));
#2061=CARTESIAN_POINT('',(0.0178599998221435,0.0113202391408739,0.01295));
#2062=CARTESIAN_POINT('',(0.0178599998221435,0.0113202391408739,0.00995));
#2063=CARTESIAN_POINT('',(0.0178599998221435,0.0113202391408739,0.01295));
#2064=CARTESIAN_POINT('',(0.0196599998210321,0.00566011957108037,0.01295));
#2065=CARTESIAN_POINT('',(0.0196599998210321,0.00566011957108037,0.01295));
#2066=CARTESIAN_POINT('',(0.0196599998220045,-0.00919651343407618,0.01295));
#2067=CARTESIAN_POINT('',(0.0196599998221435,-0.0113202391408739,0.01295));
#2068=CARTESIAN_POINT('',(0.0196599998220045,-0.00919651343407618,0.01295));
#2069=CARTESIAN_POINT('',(0.0196599998220045,-0.00919651343407618,0.00995));
#2070=CARTESIAN_POINT('',(0.0196599998210321,0.00566011957108037,0.00995));
#2071=CARTESIAN_POINT('',(0.0196599998221435,-0.0113202391408739,0.00995));
#2072=CARTESIAN_POINT('',(0.0196599998221435,-0.0113202391408739,0.01295));
#2073=CARTESIAN_POINT('',(0.0178599998221435,-0.0113202391408739,0.01295));
#2074=CARTESIAN_POINT('',(0.0178599998221435,-0.0113202391408739,0.00995));
#2075=CARTESIAN_POINT('',(0.0169749998888397,-0.0128876494630462,0.00995));
#2076=CARTESIAN_POINT('',(0.0169749998888397,-0.0128876494630462,0.01295));
#2077=CARTESIAN_POINT('',(0.0169749998888397,-0.0128876494630462,0.01295));
#2078=CARTESIAN_POINT('',(0.0178599998221435,-0.0113202391408739,0.01295));
#2079=CARTESIAN_POINT('',(0.0155,-0.0155,0.01295));
#2080=CARTESIAN_POINT('',(0.0155,-0.0155,0.00995));
#2081=CARTESIAN_POINT('',(0.0128841303210291,-0.0169687497481331,0.00995));
#2082=CARTESIAN_POINT('',(0.0128841303210291,-0.0169687497481331,0.01295));
#2083=CARTESIAN_POINT('',(0.0128841303210291,-0.0169687497481331,0.01295));
#2084=CARTESIAN_POINT('',(0.0155,-0.0155,0.01295));
#2085=CARTESIAN_POINT('',(0.0113146085136466,-0.0178499995970129,0.01295));
#2086=CARTESIAN_POINT('',(0.0113146085136466,-0.0178499995970129,0.00995));
#2087=CARTESIAN_POINT('',(0.0113146085136466,-0.0196499995970129,0.00995));
#2088=CARTESIAN_POINT('',(0.0113146085136466,-0.0196499995970129,0.01295));
#2089=CARTESIAN_POINT('',(0.0113146085136466,-0.0196499995970129,0.01295));
#2090=CARTESIAN_POINT('',(0.0113146085136466,-0.0178499995970129,0.01295));
#2091=CARTESIAN_POINT('',(0.00565730425682407,-0.0196499995970129,0.01295));
#2092=CARTESIAN_POINT('',(0.00565730425682407,-0.0196499995970129,0.00995));
#2093=CARTESIAN_POINT('',(0.00375289726239641,-0.0196499995970129,0.00995));
#2094=CARTESIAN_POINT('',(0.00375289726239641,-0.0196499995970129,0.01295));
#2095=CARTESIAN_POINT('',(0.00375289726239641,-0.0196499995970129,0.01295));
#2096=CARTESIAN_POINT('',(0.00565730425682407,-0.0196499995970129,0.01295));
#2097=CARTESIAN_POINT('',(0.00375289726239641,-0.0167371025127225,0.01295));
#2098=CARTESIAN_POINT('',(0.00375289726239641,-0.0167371025127225,0.00995));
#2099=CARTESIAN_POINT('',(0.00375289726239641,-0.0167371025127225,0.01295));
#2100=CARTESIAN_POINT('',(-0.0118728969061849,-0.016677522497833,0.01295));
#2101=CARTESIAN_POINT('',(-0.0118728969061849,-0.016677522497833,0.00995));
#2102=CARTESIAN_POINT('',(-0.0117795241533921,-0.0195889226683188,0.00995));
#2103=CARTESIAN_POINT('',(-0.0117795241533921,-0.0195889226683188,0.01295));
#2104=CARTESIAN_POINT('',(-0.0117795241533921,-0.0195889226683188,0.01295));
#2105=CARTESIAN_POINT('',(-0.0118728969061849,-0.016677522497833,0.01295));
#2106=CARTESIAN_POINT('',(0.0155,0.0155,0.01295));
#2107=CARTESIAN_POINT('',(0.0155,0.0155,0.01295));
#2108=CARTESIAN_POINT('',(0.01705,0.0155,0.01295));
#2109=CARTESIAN_POINT('',(0.0155,0.0155,0.00995));
#2110=CARTESIAN_POINT('',(0.01705,0.0155,0.00995));
#2111=CARTESIAN_POINT('',(-0.0155,-0.0155,0.01295));
#2112=CARTESIAN_POINT('',(-0.0155,-0.0155,0.01295));
#2113=CARTESIAN_POINT('',(-0.01395,-0.0155,0.01295));
#2114=CARTESIAN_POINT('',(-0.0155,-0.0155,0.00995));
#2115=CARTESIAN_POINT('',(-0.01395,-0.0155,0.00995));
#2116=CARTESIAN_POINT('',(0.0155,-0.0155,0.01295));
#2117=CARTESIAN_POINT('',(0.0155,-0.0155,0.01295));
#2118=CARTESIAN_POINT('',(0.0170681402105335,-0.0155,0.01295));
#2119=CARTESIAN_POINT('',(0.0155,-0.0155,0.00995));
#2120=CARTESIAN_POINT('',(0.0170681402105335,-0.0155,0.00995));
#2121=CARTESIAN_POINT('',(-0.0155,0.0155,0.01295));
#2122=CARTESIAN_POINT('',(-0.0155,0.0155,0.01295));
#2123=CARTESIAN_POINT('',(-0.0138971811646598,0.0155,0.01295));
#2124=CARTESIAN_POINT('',(-0.0155,0.0155,0.00995));
#2125=CARTESIAN_POINT('',(-0.0138971811646598,0.0155,0.00995));
#2126=CARTESIAN_POINT('',(-0.0113146085136466,-0.0178499995970129,0.01295));
#2127=CARTESIAN_POINT('',(-0.0113146085136466,-0.0178499995970129,0.00995));
#2128=CARTESIAN_POINT('',(-0.0113146085136466,-0.0178499995970129,0.01295));
#2129=CARTESIAN_POINT('',(-0.0144234384407054,0.0182371025342395,0.01295));
#2130=CARTESIAN_POINT('',(-0.0144234384407054,0.0182371025342395,0.00995));
#2131=CARTESIAN_POINT('',(-0.0144234384407054,0.0182371025342395,0.01295));
#2132=CARTESIAN_POINT('',(2.06085148946045E-15,5.55111512312578E-17,0.01295));
#2133=CARTESIAN_POINT('',(-0.0040599998218943,-0.0135139995970133,0.01295));
#2134=CARTESIAN_POINT('',(-0.02165999984741,0.00171666564814188,0.01295));
#2135=CARTESIAN_POINT('',(-0.0201293560092999,0.00300396104580927,0.01295));
#2136=CARTESIAN_POINT('',(-0.0190077163279056,0.00394727755337954,0.01295));
#2137=CARTESIAN_POINT('',(-0.0201293560092999,0.00489059406094981,0.01295));
#2138=CARTESIAN_POINT('',(-0.02165999984741,0.0061778894586172,0.01295));
#2139=CARTESIAN_POINT('',(0.0216599998217287,-0.00498251793031802,0.01295));
#2140=CARTESIAN_POINT('',(0.0200782540679712,-0.00620647886534422,0.01295));
#2141=CARTESIAN_POINT('',(0.0189370904117823,-0.00708951568230987,0.01295));
#2142=CARTESIAN_POINT('',(0.0200782540680868,-0.00797255249912613,0.01295));
#2143=CARTESIAN_POINT('',(0.0216599998220045,-0.00919651343394527,0.01295));
#2144=CARTESIAN_POINT('',(2.06085148946045E-15,5.55111512312578E-17,0.00995));
#2145=CARTESIAN_POINT('',(0.0189370904117823,-0.00708951568230987,0.00995));
#2146=CARTESIAN_POINT('',(0.0200782540680868,-0.00797255249912613,0.00995));
#2147=CARTESIAN_POINT('',(0.0200782540679712,-0.00620647886534422,0.00995));
#2148=CARTESIAN_POINT('',(0.0216599998217287,-0.00498251793031802,0.00995));
#2149=CARTESIAN_POINT('',(-0.02165999984741,0.0061778894586172,0.00995));
#2150=CARTESIAN_POINT('',(-0.0201293560092999,0.00489059406094981,0.00995));
#2151=CARTESIAN_POINT('',(-0.0190077163279056,0.00394727755337954,0.00995));
#2152=CARTESIAN_POINT('',(-0.0201293560092999,0.00300396104580927,0.00995));
#2153=CARTESIAN_POINT('',(-0.02165999984741,0.00171666564814188,0.00995));
#2154=CARTESIAN_POINT('',(-0.00777703517633149,-0.00489696424257626,0.00995));
#2155=CARTESIAN_POINT('',(-0.000342964467457354,-0.00489696424257605,0.00995));
#2156=CARTESIAN_POINT('',(0.0216599998220045,-0.00919651343394527,0.00995));
#2157=CARTESIAN_POINT('',(-0.00777703517633149,-0.00489696424257626,0.01295));
#2158=CARTESIAN_POINT('',(-0.00777703517633149,-0.00489696424257626,0.01245));
#2159=CARTESIAN_POINT('',(-0.000342964467457354,-0.00489696424257605,0.01295));
#2160=CARTESIAN_POINT('',(-0.000342964467457354,-0.00489696424257605,0.01245));
#2161=CARTESIAN_POINT('',(-0.0190077163279056,0.00394727755337954,0.0266495984594309));
#2162=CARTESIAN_POINT('',(-0.0201293560092999,0.00489059406094981,0.0266495984594309));
#2163=CARTESIAN_POINT('',(-0.0201293560092999,0.00300396104580927,0.0266495984594309));
#2164=CARTESIAN_POINT('',(0.0189370904117823,-0.00708951568230987,0.0266495984594309));
#2165=CARTESIAN_POINT('',(0.0200782540679712,-0.00620647886534422,0.0266495984594309));
#2166=CARTESIAN_POINT('',(0.0200782540680868,-0.00797255249912613,0.0266495984594309));
#2167=CARTESIAN_POINT('',(0.0216599998217287,-0.00498251793031802,0.0266495984594309));
#2168=CARTESIAN_POINT('',(0.0216599998220045,-0.00919651343394527,0.0266495984594309));
#2169=CARTESIAN_POINT('',(-0.02165999984741,0.0061778894586172,0.0266495984594309));
#2170=CARTESIAN_POINT('',(-0.02165999984741,0.00171666564814188,0.0266495984594309));
#2171=CARTESIAN_POINT('',(-0.0040599998218943,-0.0135139995970133,0.01245));
#2172=CARTESIAN_POINT('',(-0.0040599998218943,-0.0135139995970133,0.01245));
#2173=CARTESIAN_POINT('',(1.48492329543615E-15,5.55111512312578E-17,0.01245));
#2174=MECHANICAL_DESIGN_GEOMETRIC_PRESENTATION_REPRESENTATION('',(#1247),
#2175);
#2175=(
GEOMETRIC_REPRESENTATION_CONTEXT(3)
GLOBAL_UNCERTAINTY_ASSIGNED_CONTEXT((#2176))
GLOBAL_UNIT_ASSIGNED_CONTEXT((#2179,#2178,#2177))
REPRESENTATION_CONTEXT('Part 2','TOP_LEVEL_ASSEMBLY_PART')
);
#2176=UNCERTAINTY_MEASURE_WITH_UNIT(LENGTH_MEASURE(2.2E-7),#2179,
'DISTANCE_ACCURACY_VALUE','Maximum Tolerance applied to model');
#2177=(
NAMED_UNIT(*)
SI_UNIT($,.STERADIAN.)
SOLID_ANGLE_UNIT()
);
#2178=(
NAMED_UNIT(*)
PLANE_ANGLE_UNIT()
SI_UNIT($,.RADIAN.)
);
#2179=(
LENGTH_UNIT()
NAMED_UNIT(*)
SI_UNIT($,.METRE.)
);
#2180=PRODUCT_DEFINITION_SHAPE('','',#2181);
#2181=PRODUCT_DEFINITION('','',#2183,#2182);
#2182=PRODUCT_DEFINITION_CONTEXT('',#2189,'design');
#2183=PRODUCT_DEFINITION_FORMATION_WITH_SPECIFIED_SOURCE('','',#2185,
 .NOT_KNOWN.);
#2184=PRODUCT_RELATED_PRODUCT_CATEGORY('','',(#2185));
#2185=PRODUCT('Part 2','Part 2','Part 2',(#2187));
#2186=PRODUCT_CATEGORY('','');
#2187=PRODUCT_CONTEXT('',#2189,'mechanical');
#2188=APPLICATION_PROTOCOL_DEFINITION('international standard',
'ap242_managed_model_based_3d_engineering',2020,#2189);
#2189=APPLICATION_CONTEXT('managed model based 3d engineering');
ENDSEC;
END-ISO-10303-21;
