ISO-10303-21;
HEADER;
/* Generated by software containing ST-Developer
 * from STEP Tools, Inc. (www.steptools.com) 
 */
/* OPTION: using custom renumber hook */

FILE_DESCRIPTION(
/* description */ ('STEP AP242 Edition 2',
'CAx-IF Rec.Pracs.---Representation and Presentation of Product Manufa
cturing Information (PMI)---4.0---2014-10-13',
'CAx-IF Rec.Pracs.---3D Tessellated Geometry---0.4---2014-09-14','2;1',
'CAx-IF Rec.Pracs.---User Defined Attributes---1.5---2016-08-15'),
/* implementation_level */ '2;1');

FILE_NAME(
/* name */ 'BTT TMC2208 TMC2209 UART Stepper Driver - Heat_Sink',
/* time_stamp */ '2026-07-28T05:44:51Z',
/* author */ (''),
/* organization */ (''),
/* preprocessor_version */ 'ST-DEVELOPER v20',
/* originating_system */ 'ONSHAPE BY PTC INC, 1.218',
/* authorisation */ '  ');

FILE_SCHEMA (('AP242_MANAGED_MODEL_BASED_3D_ENGINEERING_MIM_LF { 1 0 10303 442 3 1 4 }'));
ENDSEC;

DATA;
#10=SHAPE_REPRESENTATION_RELATIONSHIP('','',#1309,#11);
#11=ADVANCED_BREP_SHAPE_REPRESENTATION('',(#1307),#2055);
#12=ORIENTED_EDGE('',*,*,#372,.F.);
#13=ORIENTED_EDGE('',*,*,#373,.T.);
#14=ORIENTED_EDGE('',*,*,#374,.T.);
#15=ORIENTED_EDGE('',*,*,#375,.F.);
#16=ORIENTED_EDGE('',*,*,#376,.F.);
#17=ORIENTED_EDGE('',*,*,#377,.F.);
#18=ORIENTED_EDGE('',*,*,#378,.F.);
#19=ORIENTED_EDGE('',*,*,#379,.T.);
#20=ORIENTED_EDGE('',*,*,#380,.F.);
#21=ORIENTED_EDGE('',*,*,#381,.F.);
#22=ORIENTED_EDGE('',*,*,#382,.T.);
#23=ORIENTED_EDGE('',*,*,#383,.F.);
#24=ORIENTED_EDGE('',*,*,#384,.F.);
#25=ORIENTED_EDGE('',*,*,#385,.F.);
#26=ORIENTED_EDGE('',*,*,#386,.F.);
#27=ORIENTED_EDGE('',*,*,#387,.F.);
#28=ORIENTED_EDGE('',*,*,#388,.F.);
#29=ORIENTED_EDGE('',*,*,#389,.F.);
#30=ORIENTED_EDGE('',*,*,#390,.T.);
#31=ORIENTED_EDGE('',*,*,#391,.F.);
#32=ORIENTED_EDGE('',*,*,#392,.F.);
#33=ORIENTED_EDGE('',*,*,#393,.F.);
#34=ORIENTED_EDGE('',*,*,#394,.F.);
#35=ORIENTED_EDGE('',*,*,#395,.F.);
#36=ORIENTED_EDGE('',*,*,#396,.F.);
#37=ORIENTED_EDGE('',*,*,#397,.F.);
#38=ORIENTED_EDGE('',*,*,#398,.T.);
#39=ORIENTED_EDGE('',*,*,#399,.F.);
#40=ORIENTED_EDGE('',*,*,#400,.F.);
#41=ORIENTED_EDGE('',*,*,#401,.F.);
#42=ORIENTED_EDGE('',*,*,#402,.F.);
#43=ORIENTED_EDGE('',*,*,#403,.F.);
#44=ORIENTED_EDGE('',*,*,#404,.F.);
#45=ORIENTED_EDGE('',*,*,#405,.F.);
#46=ORIENTED_EDGE('',*,*,#406,.T.);
#47=ORIENTED_EDGE('',*,*,#407,.T.);
#48=ORIENTED_EDGE('',*,*,#408,.F.);
#49=ORIENTED_EDGE('',*,*,#409,.T.);
#50=ORIENTED_EDGE('',*,*,#410,.F.);
#51=ORIENTED_EDGE('',*,*,#411,.F.);
#52=ORIENTED_EDGE('',*,*,#412,.F.);
#53=ORIENTED_EDGE('',*,*,#413,.T.);
#54=ORIENTED_EDGE('',*,*,#391,.T.);
#55=ORIENTED_EDGE('',*,*,#414,.F.);
#56=ORIENTED_EDGE('',*,*,#393,.T.);
#57=ORIENTED_EDGE('',*,*,#415,.T.);
#58=ORIENTED_EDGE('',*,*,#416,.F.);
#59=ORIENTED_EDGE('',*,*,#417,.T.);
#60=ORIENTED_EDGE('',*,*,#405,.T.);
#61=ORIENTED_EDGE('',*,*,#418,.T.);
#62=ORIENTED_EDGE('',*,*,#419,.F.);
#63=ORIENTED_EDGE('',*,*,#420,.T.);
#64=ORIENTED_EDGE('',*,*,#421,.F.);
#65=ORIENTED_EDGE('',*,*,#422,.T.);
#66=ORIENTED_EDGE('',*,*,#411,.T.);
#67=ORIENTED_EDGE('',*,*,#423,.T.);
#68=ORIENTED_EDGE('',*,*,#389,.T.);
#69=ORIENTED_EDGE('',*,*,#424,.T.);
#70=ORIENTED_EDGE('',*,*,#425,.F.);
#71=ORIENTED_EDGE('',*,*,#426,.T.);
#72=ORIENTED_EDGE('',*,*,#427,.F.);
#73=ORIENTED_EDGE('',*,*,#428,.T.);
#74=ORIENTED_EDGE('',*,*,#395,.T.);
#75=ORIENTED_EDGE('',*,*,#429,.T.);
#76=ORIENTED_EDGE('',*,*,#430,.F.);
#77=ORIENTED_EDGE('',*,*,#431,.T.);
#78=ORIENTED_EDGE('',*,*,#399,.T.);
#79=ORIENTED_EDGE('',*,*,#432,.F.);
#80=ORIENTED_EDGE('',*,*,#401,.T.);
#81=ORIENTED_EDGE('',*,*,#433,.T.);
#82=ORIENTED_EDGE('',*,*,#434,.F.);
#83=ORIENTED_EDGE('',*,*,#435,.T.);
#84=ORIENTED_EDGE('',*,*,#436,.F.);
#85=ORIENTED_EDGE('',*,*,#437,.T.);
#86=ORIENTED_EDGE('',*,*,#383,.T.);
#87=ORIENTED_EDGE('',*,*,#438,.F.);
#88=ORIENTED_EDGE('',*,*,#385,.T.);
#89=ORIENTED_EDGE('',*,*,#439,.T.);
#90=ORIENTED_EDGE('',*,*,#440,.F.);
#91=ORIENTED_EDGE('',*,*,#441,.T.);
#92=ORIENTED_EDGE('',*,*,#397,.T.);
#93=ORIENTED_EDGE('',*,*,#442,.T.);
#94=ORIENTED_EDGE('',*,*,#443,.F.);
#95=ORIENTED_EDGE('',*,*,#444,.T.);
#96=ORIENTED_EDGE('',*,*,#445,.F.);
#97=ORIENTED_EDGE('',*,*,#446,.T.);
#98=ORIENTED_EDGE('',*,*,#403,.T.);
#99=ORIENTED_EDGE('',*,*,#447,.T.);
#100=ORIENTED_EDGE('',*,*,#448,.F.);
#101=ORIENTED_EDGE('',*,*,#449,.T.);
#102=ORIENTED_EDGE('',*,*,#375,.T.);
#103=ORIENTED_EDGE('',*,*,#450,.F.);
#104=ORIENTED_EDGE('',*,*,#377,.T.);
#105=ORIENTED_EDGE('',*,*,#451,.T.);
#106=ORIENTED_EDGE('',*,*,#452,.F.);
#107=ORIENTED_EDGE('',*,*,#453,.T.);
#108=ORIENTED_EDGE('',*,*,#381,.T.);
#109=ORIENTED_EDGE('',*,*,#454,.T.);
#110=ORIENTED_EDGE('',*,*,#455,.F.);
#111=ORIENTED_EDGE('',*,*,#456,.T.);
#112=ORIENTED_EDGE('',*,*,#457,.F.);
#113=ORIENTED_EDGE('',*,*,#458,.T.);
#114=ORIENTED_EDGE('',*,*,#387,.T.);
#115=ORIENTED_EDGE('',*,*,#459,.T.);
#116=ORIENTED_EDGE('',*,*,#460,.F.);
#117=ORIENTED_EDGE('',*,*,#461,.F.);
#118=ORIENTED_EDGE('',*,*,#462,.T.);
#119=ORIENTED_EDGE('',*,*,#463,.T.);
#120=ORIENTED_EDGE('',*,*,#464,.F.);
#121=ORIENTED_EDGE('',*,*,#465,.F.);
#122=ORIENTED_EDGE('',*,*,#466,.T.);
#123=ORIENTED_EDGE('',*,*,#467,.F.);
#124=ORIENTED_EDGE('',*,*,#468,.F.);
#125=ORIENTED_EDGE('',*,*,#469,.F.);
#126=ORIENTED_EDGE('',*,*,#470,.T.);
#127=ORIENTED_EDGE('',*,*,#471,.F.);
#128=ORIENTED_EDGE('',*,*,#472,.F.);
#129=ORIENTED_EDGE('',*,*,#473,.F.);
#130=ORIENTED_EDGE('',*,*,#474,.T.);
#131=ORIENTED_EDGE('',*,*,#475,.F.);
#132=ORIENTED_EDGE('',*,*,#476,.F.);
#133=ORIENTED_EDGE('',*,*,#450,.T.);
#134=ORIENTED_EDGE('',*,*,#374,.F.);
#135=ORIENTED_EDGE('',*,*,#477,.T.);
#136=ORIENTED_EDGE('',*,*,#478,.T.);
#137=ORIENTED_EDGE('',*,*,#479,.F.);
#138=ORIENTED_EDGE('',*,*,#406,.F.);
#139=ORIENTED_EDGE('',*,*,#420,.F.);
#140=ORIENTED_EDGE('',*,*,#480,.F.);
#141=ORIENTED_EDGE('',*,*,#414,.T.);
#142=ORIENTED_EDGE('',*,*,#390,.F.);
#143=ORIENTED_EDGE('',*,*,#426,.F.);
#144=ORIENTED_EDGE('',*,*,#481,.F.);
#145=ORIENTED_EDGE('',*,*,#432,.T.);
#146=ORIENTED_EDGE('',*,*,#398,.F.);
#147=ORIENTED_EDGE('',*,*,#444,.F.);
#148=ORIENTED_EDGE('',*,*,#482,.F.);
#149=ORIENTED_EDGE('',*,*,#438,.T.);
#150=ORIENTED_EDGE('',*,*,#382,.F.);
#151=ORIENTED_EDGE('',*,*,#456,.F.);
#152=ORIENTED_EDGE('',*,*,#483,.T.);
#153=ORIENTED_EDGE('',*,*,#484,.T.);
#154=ORIENTED_EDGE('',*,*,#407,.F.);
#155=ORIENTED_EDGE('',*,*,#479,.T.);
#156=ORIENTED_EDGE('',*,*,#485,.T.);
#157=ORIENTED_EDGE('',*,*,#486,.F.);
#158=ORIENTED_EDGE('',*,*,#487,.F.);
#159=ORIENTED_EDGE('',*,*,#488,.F.);
#160=ORIENTED_EDGE('',*,*,#489,.T.);
#161=ORIENTED_EDGE('',*,*,#490,.T.);
#162=ORIENTED_EDGE('',*,*,#409,.F.);
#163=ORIENTED_EDGE('',*,*,#491,.F.);
#164=ORIENTED_EDGE('',*,*,#462,.F.);
#165=ORIENTED_EDGE('',*,*,#492,.F.);
#166=ORIENTED_EDGE('',*,*,#493,.F.);
#167=ORIENTED_EDGE('',*,*,#494,.T.);
#168=ORIENTED_EDGE('',*,*,#466,.F.);
#169=ORIENTED_EDGE('',*,*,#495,.F.);
#170=ORIENTED_EDGE('',*,*,#496,.F.);
#171=ORIENTED_EDGE('',*,*,#497,.T.);
#172=ORIENTED_EDGE('',*,*,#474,.F.);
#173=ORIENTED_EDGE('',*,*,#498,.F.);
#174=ORIENTED_EDGE('',*,*,#499,.F.);
#175=ORIENTED_EDGE('',*,*,#500,.T.);
#176=ORIENTED_EDGE('',*,*,#470,.F.);
#177=ORIENTED_EDGE('',*,*,#501,.F.);
#178=ORIENTED_EDGE('',*,*,#502,.F.);
#179=ORIENTED_EDGE('',*,*,#503,.T.);
#180=ORIENTED_EDGE('',*,*,#504,.F.);
#181=ORIENTED_EDGE('',*,*,#486,.T.);
#182=ORIENTED_EDGE('',*,*,#505,.T.);
#183=ORIENTED_EDGE('',*,*,#506,.F.);
#184=ORIENTED_EDGE('',*,*,#373,.F.);
#185=ORIENTED_EDGE('',*,*,#507,.F.);
#186=ORIENTED_EDGE('',*,*,#508,.T.);
#187=ORIENTED_EDGE('',*,*,#509,.T.);
#188=ORIENTED_EDGE('',*,*,#379,.F.);
#189=ORIENTED_EDGE('',*,*,#510,.F.);
#190=ORIENTED_EDGE('',*,*,#511,.T.);
#191=ORIENTED_EDGE('',*,*,#512,.T.);
#192=ORIENTED_EDGE('',*,*,#463,.F.);
#193=ORIENTED_EDGE('',*,*,#506,.T.);
#194=ORIENTED_EDGE('',*,*,#513,.T.);
#195=ORIENTED_EDGE('',*,*,#477,.F.);
#196=ORIENTED_EDGE('',*,*,#514,.F.);
#197=ORIENTED_EDGE('',*,*,#487,.T.);
#198=ORIENTED_EDGE('',*,*,#504,.T.);
#199=ORIENTED_EDGE('',*,*,#515,.F.);
#200=ORIENTED_EDGE('',*,*,#469,.T.);
#201=ORIENTED_EDGE('',*,*,#516,.T.);
#202=ORIENTED_EDGE('',*,*,#517,.F.);
#203=ORIENTED_EDGE('',*,*,#501,.T.);
#204=ORIENTED_EDGE('',*,*,#518,.F.);
#205=ORIENTED_EDGE('',*,*,#519,.T.);
#206=ORIENTED_EDGE('',*,*,#515,.T.);
#207=ORIENTED_EDGE('',*,*,#503,.F.);
#208=ORIENTED_EDGE('',*,*,#520,.F.);
#209=ORIENTED_EDGE('',*,*,#521,.T.);
#210=ORIENTED_EDGE('',*,*,#471,.T.);
#211=ORIENTED_EDGE('',*,*,#500,.F.);
#212=ORIENTED_EDGE('',*,*,#473,.T.);
#213=ORIENTED_EDGE('',*,*,#522,.T.);
#214=ORIENTED_EDGE('',*,*,#523,.F.);
#215=ORIENTED_EDGE('',*,*,#498,.T.);
#216=ORIENTED_EDGE('',*,*,#465,.T.);
#217=ORIENTED_EDGE('',*,*,#524,.T.);
#218=ORIENTED_EDGE('',*,*,#525,.F.);
#219=ORIENTED_EDGE('',*,*,#495,.T.);
#220=ORIENTED_EDGE('',*,*,#526,.F.);
#221=ORIENTED_EDGE('',*,*,#527,.T.);
#222=ORIENTED_EDGE('',*,*,#475,.T.);
#223=ORIENTED_EDGE('',*,*,#497,.F.);
#224=ORIENTED_EDGE('',*,*,#461,.T.);
#225=ORIENTED_EDGE('',*,*,#528,.T.);
#226=ORIENTED_EDGE('',*,*,#529,.F.);
#227=ORIENTED_EDGE('',*,*,#492,.T.);
#228=ORIENTED_EDGE('',*,*,#530,.F.);
#229=ORIENTED_EDGE('',*,*,#531,.T.);
#230=ORIENTED_EDGE('',*,*,#467,.T.);
#231=ORIENTED_EDGE('',*,*,#494,.F.);
#232=ORIENTED_EDGE('',*,*,#440,.T.);
#233=ORIENTED_EDGE('',*,*,#532,.F.);
#234=ORIENTED_EDGE('',*,*,#457,.T.);
#235=ORIENTED_EDGE('',*,*,#533,.F.);
#236=ORIENTED_EDGE('',*,*,#434,.T.);
#237=ORIENTED_EDGE('',*,*,#534,.F.);
#238=ORIENTED_EDGE('',*,*,#445,.T.);
#239=ORIENTED_EDGE('',*,*,#535,.F.);
#240=ORIENTED_EDGE('',*,*,#416,.T.);
#241=ORIENTED_EDGE('',*,*,#536,.F.);
#242=ORIENTED_EDGE('',*,*,#427,.T.);
#243=ORIENTED_EDGE('',*,*,#537,.F.);
#244=ORIENTED_EDGE('',*,*,#529,.T.);
#245=ORIENTED_EDGE('',*,*,#538,.F.);
#246=ORIENTED_EDGE('',*,*,#511,.F.);
#247=ORIENTED_EDGE('',*,*,#539,.F.);
#248=ORIENTED_EDGE('',*,*,#452,.T.);
#249=ORIENTED_EDGE('',*,*,#540,.F.);
#250=ORIENTED_EDGE('',*,*,#508,.F.);
#251=ORIENTED_EDGE('',*,*,#541,.F.);
#252=ORIENTED_EDGE('',*,*,#448,.T.);
#253=ORIENTED_EDGE('',*,*,#476,.T.);
#254=ORIENTED_EDGE('',*,*,#455,.T.);
#255=ORIENTED_EDGE('',*,*,#542,.F.);
#256=ORIENTED_EDGE('',*,*,#436,.T.);
#257=ORIENTED_EDGE('',*,*,#482,.T.);
#258=ORIENTED_EDGE('',*,*,#443,.T.);
#259=ORIENTED_EDGE('',*,*,#543,.F.);
#260=ORIENTED_EDGE('',*,*,#430,.T.);
#261=ORIENTED_EDGE('',*,*,#481,.T.);
#262=ORIENTED_EDGE('',*,*,#425,.T.);
#263=ORIENTED_EDGE('',*,*,#544,.F.);
#264=ORIENTED_EDGE('',*,*,#412,.T.);
#265=ORIENTED_EDGE('',*,*,#480,.T.);
#266=ORIENTED_EDGE('',*,*,#419,.T.);
#267=ORIENTED_EDGE('',*,*,#545,.F.);
#268=ORIENTED_EDGE('',*,*,#483,.F.);
#269=ORIENTED_EDGE('',*,*,#546,.F.);
#270=ORIENTED_EDGE('',*,*,#421,.T.);
#271=ORIENTED_EDGE('',*,*,#547,.F.);
#272=ORIENTED_EDGE('',*,*,#489,.F.);
#273=ORIENTED_EDGE('',*,*,#548,.F.);
#274=ORIENTED_EDGE('',*,*,#518,.T.);
#275=ORIENTED_EDGE('',*,*,#502,.T.);
#276=ORIENTED_EDGE('',*,*,#517,.T.);
#277=ORIENTED_EDGE('',*,*,#549,.F.);
#278=ORIENTED_EDGE('',*,*,#520,.T.);
#279=ORIENTED_EDGE('',*,*,#499,.T.);
#280=ORIENTED_EDGE('',*,*,#523,.T.);
#281=ORIENTED_EDGE('',*,*,#550,.F.);
#282=ORIENTED_EDGE('',*,*,#526,.T.);
#283=ORIENTED_EDGE('',*,*,#496,.T.);
#284=ORIENTED_EDGE('',*,*,#525,.T.);
#285=ORIENTED_EDGE('',*,*,#551,.F.);
#286=ORIENTED_EDGE('',*,*,#530,.T.);
#287=ORIENTED_EDGE('',*,*,#493,.T.);
#288=ORIENTED_EDGE('',*,*,#464,.T.);
#289=ORIENTED_EDGE('',*,*,#531,.F.);
#290=ORIENTED_EDGE('',*,*,#551,.T.);
#291=ORIENTED_EDGE('',*,*,#524,.F.);
#292=ORIENTED_EDGE('',*,*,#533,.T.);
#293=ORIENTED_EDGE('',*,*,#459,.F.);
#294=ORIENTED_EDGE('',*,*,#386,.T.);
#295=ORIENTED_EDGE('',*,*,#441,.F.);
#296=ORIENTED_EDGE('',*,*,#384,.T.);
#297=ORIENTED_EDGE('',*,*,#458,.F.);
#298=ORIENTED_EDGE('',*,*,#532,.T.);
#299=ORIENTED_EDGE('',*,*,#439,.F.);
#300=ORIENTED_EDGE('',*,*,#542,.T.);
#301=ORIENTED_EDGE('',*,*,#454,.F.);
#302=ORIENTED_EDGE('',*,*,#380,.T.);
#303=ORIENTED_EDGE('',*,*,#437,.F.);
#304=ORIENTED_EDGE('',*,*,#460,.T.);
#305=ORIENTED_EDGE('',*,*,#512,.F.);
#306=ORIENTED_EDGE('',*,*,#538,.T.);
#307=ORIENTED_EDGE('',*,*,#528,.F.);
#308=ORIENTED_EDGE('',*,*,#539,.T.);
#309=ORIENTED_EDGE('',*,*,#510,.T.);
#310=ORIENTED_EDGE('',*,*,#378,.T.);
#311=ORIENTED_EDGE('',*,*,#453,.F.);
#312=ORIENTED_EDGE('',*,*,#376,.T.);
#313=ORIENTED_EDGE('',*,*,#509,.F.);
#314=ORIENTED_EDGE('',*,*,#540,.T.);
#315=ORIENTED_EDGE('',*,*,#451,.F.);
#316=ORIENTED_EDGE('',*,*,#541,.T.);
#317=ORIENTED_EDGE('',*,*,#507,.T.);
#318=ORIENTED_EDGE('',*,*,#372,.T.);
#319=ORIENTED_EDGE('',*,*,#449,.F.);
#320=ORIENTED_EDGE('',*,*,#472,.T.);
#321=ORIENTED_EDGE('',*,*,#527,.F.);
#322=ORIENTED_EDGE('',*,*,#550,.T.);
#323=ORIENTED_EDGE('',*,*,#522,.F.);
#324=ORIENTED_EDGE('',*,*,#535,.T.);
#325=ORIENTED_EDGE('',*,*,#447,.F.);
#326=ORIENTED_EDGE('',*,*,#402,.T.);
#327=ORIENTED_EDGE('',*,*,#435,.F.);
#328=ORIENTED_EDGE('',*,*,#400,.T.);
#329=ORIENTED_EDGE('',*,*,#446,.F.);
#330=ORIENTED_EDGE('',*,*,#534,.T.);
#331=ORIENTED_EDGE('',*,*,#433,.F.);
#332=ORIENTED_EDGE('',*,*,#543,.T.);
#333=ORIENTED_EDGE('',*,*,#442,.F.);
#334=ORIENTED_EDGE('',*,*,#396,.T.);
#335=ORIENTED_EDGE('',*,*,#431,.F.);
#336=ORIENTED_EDGE('',*,*,#468,.T.);
#337=ORIENTED_EDGE('',*,*,#521,.F.);
#338=ORIENTED_EDGE('',*,*,#549,.T.);
#339=ORIENTED_EDGE('',*,*,#516,.F.);
#340=ORIENTED_EDGE('',*,*,#537,.T.);
#341=ORIENTED_EDGE('',*,*,#429,.F.);
#342=ORIENTED_EDGE('',*,*,#394,.T.);
#343=ORIENTED_EDGE('',*,*,#417,.F.);
#344=ORIENTED_EDGE('',*,*,#392,.T.);
#345=ORIENTED_EDGE('',*,*,#428,.F.);
#346=ORIENTED_EDGE('',*,*,#536,.T.);
#347=ORIENTED_EDGE('',*,*,#415,.F.);
#348=ORIENTED_EDGE('',*,*,#544,.T.);
#349=ORIENTED_EDGE('',*,*,#424,.F.);
#350=ORIENTED_EDGE('',*,*,#388,.T.);
#351=ORIENTED_EDGE('',*,*,#413,.F.);
#352=ORIENTED_EDGE('',*,*,#410,.T.);
#353=ORIENTED_EDGE('',*,*,#490,.F.);
#354=ORIENTED_EDGE('',*,*,#547,.T.);
#355=ORIENTED_EDGE('',*,*,#423,.F.);
#356=ORIENTED_EDGE('',*,*,#548,.T.);
#357=ORIENTED_EDGE('',*,*,#488,.T.);
#358=ORIENTED_EDGE('',*,*,#514,.T.);
#359=ORIENTED_EDGE('',*,*,#519,.F.);
#360=ORIENTED_EDGE('',*,*,#404,.T.);
#361=ORIENTED_EDGE('',*,*,#484,.F.);
#362=ORIENTED_EDGE('',*,*,#545,.T.);
#363=ORIENTED_EDGE('',*,*,#418,.F.);
#364=ORIENTED_EDGE('',*,*,#546,.T.);
#365=ORIENTED_EDGE('',*,*,#491,.T.);
#366=ORIENTED_EDGE('',*,*,#408,.T.);
#367=ORIENTED_EDGE('',*,*,#422,.F.);
#368=ORIENTED_EDGE('',*,*,#513,.F.);
#369=ORIENTED_EDGE('',*,*,#505,.F.);
#370=ORIENTED_EDGE('',*,*,#485,.F.);
#371=ORIENTED_EDGE('',*,*,#478,.F.);
#372=EDGE_CURVE('',#552,#553,#672,.T.);
#373=EDGE_CURVE('',#552,#554,#673,.T.);
#374=EDGE_CURVE('',#554,#555,#674,.T.);
#375=EDGE_CURVE('',#553,#555,#675,.T.);
#376=EDGE_CURVE('',#556,#557,#676,.T.);
#377=EDGE_CURVE('',#558,#556,#677,.T.);
#378=EDGE_CURVE('',#559,#558,#678,.T.);
#379=EDGE_CURVE('',#559,#557,#679,.T.);
#380=EDGE_CURVE('',#560,#561,#680,.T.);
#381=EDGE_CURVE('',#562,#560,#681,.T.);
#382=EDGE_CURVE('',#562,#563,#682,.T.);
#383=EDGE_CURVE('',#561,#563,#683,.T.);
#384=EDGE_CURVE('',#564,#565,#684,.T.);
#385=EDGE_CURVE('',#566,#564,#685,.T.);
#386=EDGE_CURVE('',#567,#566,#686,.T.);
#387=EDGE_CURVE('',#565,#567,#687,.T.);
#388=EDGE_CURVE('',#568,#569,#688,.T.);
#389=EDGE_CURVE('',#570,#568,#689,.T.);
#390=EDGE_CURVE('',#570,#571,#690,.T.);
#391=EDGE_CURVE('',#569,#571,#691,.T.);
#392=EDGE_CURVE('',#572,#573,#692,.T.);
#393=EDGE_CURVE('',#574,#572,#693,.T.);
#394=EDGE_CURVE('',#575,#574,#694,.T.);
#395=EDGE_CURVE('',#573,#575,#695,.T.);
#396=EDGE_CURVE('',#576,#577,#696,.T.);
#397=EDGE_CURVE('',#578,#576,#697,.T.);
#398=EDGE_CURVE('',#578,#579,#698,.T.);
#399=EDGE_CURVE('',#577,#579,#699,.T.);
#400=EDGE_CURVE('',#580,#581,#700,.T.);
#401=EDGE_CURVE('',#582,#580,#701,.T.);
#402=EDGE_CURVE('',#583,#582,#702,.T.);
#403=EDGE_CURVE('',#581,#583,#703,.T.);
#404=EDGE_CURVE('',#584,#585,#704,.T.);
#405=EDGE_CURVE('',#586,#584,#705,.T.);
#406=EDGE_CURVE('',#586,#587,#706,.T.);
#407=EDGE_CURVE('',#587,#585,#707,.T.);
#408=EDGE_CURVE('',#588,#589,#708,.T.);
#409=EDGE_CURVE('',#588,#590,#709,.T.);
#410=EDGE_CURVE('',#591,#590,#710,.T.);
#411=EDGE_CURVE('',#589,#591,#711,.T.);
#412=EDGE_CURVE('',#592,#593,#712,.T.);
#413=EDGE_CURVE('',#592,#569,#713,.T.);
#414=EDGE_CURVE('',#593,#571,#714,.T.);
#415=EDGE_CURVE('',#572,#594,#715,.T.);
#416=EDGE_CURVE('',#595,#594,#716,.T.);
#417=EDGE_CURVE('',#595,#574,#717,.T.);
#418=EDGE_CURVE('',#584,#596,#718,.T.);
#419=EDGE_CURVE('',#597,#596,#719,.T.);
#420=EDGE_CURVE('',#597,#586,#720,.T.);
#421=EDGE_CURVE('',#598,#599,#721,.T.);
#422=EDGE_CURVE('',#598,#589,#722,.T.);
#423=EDGE_CURVE('',#591,#599,#723,.T.);
#424=EDGE_CURVE('',#568,#600,#724,.T.);
#425=EDGE_CURVE('',#601,#600,#725,.T.);
#426=EDGE_CURVE('',#601,#570,#726,.T.);
#427=EDGE_CURVE('',#602,#603,#727,.T.);
#428=EDGE_CURVE('',#602,#573,#728,.T.);
#429=EDGE_CURVE('',#575,#603,#729,.T.);
#430=EDGE_CURVE('',#604,#605,#730,.T.);
#431=EDGE_CURVE('',#604,#577,#731,.T.);
#432=EDGE_CURVE('',#605,#579,#732,.T.);
#433=EDGE_CURVE('',#580,#606,#733,.T.);
#434=EDGE_CURVE('',#607,#606,#734,.T.);
#435=EDGE_CURVE('',#607,#582,#735,.T.);
#436=EDGE_CURVE('',#608,#609,#736,.T.);
#437=EDGE_CURVE('',#608,#561,#737,.T.);
#438=EDGE_CURVE('',#609,#563,#738,.T.);
#439=EDGE_CURVE('',#564,#610,#739,.T.);
#440=EDGE_CURVE('',#611,#610,#740,.T.);
#441=EDGE_CURVE('',#611,#566,#741,.T.);
#442=EDGE_CURVE('',#576,#612,#742,.T.);
#443=EDGE_CURVE('',#613,#612,#743,.T.);
#444=EDGE_CURVE('',#613,#578,#744,.T.);
#445=EDGE_CURVE('',#614,#615,#745,.T.);
#446=EDGE_CURVE('',#614,#581,#746,.T.);
#447=EDGE_CURVE('',#583,#615,#747,.T.);
#448=EDGE_CURVE('',#616,#617,#748,.T.);
#449=EDGE_CURVE('',#616,#553,#749,.T.);
#450=EDGE_CURVE('',#617,#555,#750,.T.);
#451=EDGE_CURVE('',#556,#618,#751,.T.);
#452=EDGE_CURVE('',#619,#618,#752,.T.);
#453=EDGE_CURVE('',#619,#558,#753,.T.);
#454=EDGE_CURVE('',#560,#620,#754,.T.);
#455=EDGE_CURVE('',#621,#620,#755,.T.);
#456=EDGE_CURVE('',#621,#562,#756,.T.);
#457=EDGE_CURVE('',#622,#623,#757,.T.);
#458=EDGE_CURVE('',#622,#565,#758,.T.);
#459=EDGE_CURVE('',#567,#623,#759,.T.);
#460=EDGE_CURVE('',#624,#625,#760,.T.);
#461=EDGE_CURVE('',#626,#624,#761,.T.);
#462=EDGE_CURVE('',#626,#627,#762,.T.);
#463=EDGE_CURVE('',#627,#625,#763,.T.);
#464=EDGE_CURVE('',#628,#629,#764,.T.);
#465=EDGE_CURVE('',#630,#628,#765,.T.);
#466=EDGE_CURVE('',#630,#631,#766,.T.);
#467=EDGE_CURVE('',#629,#631,#767,.T.);
#468=EDGE_CURVE('',#632,#633,#768,.T.);
#469=EDGE_CURVE('',#634,#632,#769,.T.);
#470=EDGE_CURVE('',#634,#635,#770,.T.);
#471=EDGE_CURVE('',#633,#635,#771,.T.);
#472=EDGE_CURVE('',#636,#637,#772,.T.);
#473=EDGE_CURVE('',#638,#636,#773,.T.);
#474=EDGE_CURVE('',#638,#639,#774,.T.);
#475=EDGE_CURVE('',#637,#639,#775,.T.);
#476=EDGE_CURVE('',#617,#621,#776,.T.);
#477=EDGE_CURVE('',#554,#640,#777,.T.);
#478=EDGE_CURVE('',#640,#641,#778,.T.);
#479=EDGE_CURVE('',#587,#641,#779,.T.);
#480=EDGE_CURVE('',#593,#597,#780,.T.);
#481=EDGE_CURVE('',#605,#601,#781,.T.);
#482=EDGE_CURVE('',#609,#613,#782,.T.);
#483=EDGE_CURVE('',#642,#643,#783,.T.);
#484=EDGE_CURVE('',#643,#585,#784,.T.);
#485=EDGE_CURVE('',#641,#644,#785,.T.);
#486=EDGE_CURVE('',#645,#644,#786,.T.);
#487=EDGE_CURVE('',#646,#645,#787,.T.);
#488=EDGE_CURVE('',#647,#646,#788,.T.);
#489=EDGE_CURVE('',#647,#648,#789,.T.);
#490=EDGE_CURVE('',#648,#590,#790,.T.);
#491=EDGE_CURVE('',#642,#588,#791,.T.);
#492=EDGE_CURVE('',#649,#626,#792,.T.);
#493=EDGE_CURVE('',#650,#649,#793,.T.);
#494=EDGE_CURVE('',#650,#631,#794,.T.);
#495=EDGE_CURVE('',#651,#630,#795,.T.);
#496=EDGE_CURVE('',#652,#651,#796,.T.);
#497=EDGE_CURVE('',#652,#639,#797,.T.);
#498=EDGE_CURVE('',#653,#638,#798,.T.);
#499=EDGE_CURVE('',#654,#653,#799,.T.);
#500=EDGE_CURVE('',#654,#635,#800,.T.);
#501=EDGE_CURVE('',#655,#634,#801,.T.);
#502=EDGE_CURVE('',#656,#655,#802,.T.);
#503=EDGE_CURVE('',#656,#657,#803,.T.);
#504=EDGE_CURVE('',#645,#657,#804,.T.);
#505=EDGE_CURVE('',#644,#658,#805,.T.);
#506=EDGE_CURVE('',#627,#658,#806,.T.);
#507=EDGE_CURVE('',#659,#552,#807,.T.);
#508=EDGE_CURVE('',#659,#660,#808,.T.);
#509=EDGE_CURVE('',#660,#557,#809,.T.);
#510=EDGE_CURVE('',#661,#559,#810,.T.);
#511=EDGE_CURVE('',#661,#662,#811,.T.);
#512=EDGE_CURVE('',#662,#625,#812,.T.);
#513=EDGE_CURVE('',#658,#640,#813,.T.);
#514=EDGE_CURVE('',#646,#663,#814,.T.);
#515=EDGE_CURVE('',#663,#657,#815,.T.);
#516=EDGE_CURVE('',#632,#664,#816,.T.);
#517=EDGE_CURVE('',#655,#664,#817,.T.);
#518=EDGE_CURVE('',#665,#656,#818,.T.);
#519=EDGE_CURVE('',#665,#663,#819,.T.);
#520=EDGE_CURVE('',#666,#654,#820,.T.);
#521=EDGE_CURVE('',#666,#633,#821,.T.);
#522=EDGE_CURVE('',#636,#667,#822,.T.);
#523=EDGE_CURVE('',#653,#667,#823,.T.);
#524=EDGE_CURVE('',#628,#668,#824,.T.);
#525=EDGE_CURVE('',#651,#668,#825,.T.);
#526=EDGE_CURVE('',#669,#652,#826,.T.);
#527=EDGE_CURVE('',#669,#637,#827,.T.);
#528=EDGE_CURVE('',#624,#670,#828,.T.);
#529=EDGE_CURVE('',#649,#670,#829,.T.);
#530=EDGE_CURVE('',#671,#650,#830,.T.);
#531=EDGE_CURVE('',#671,#629,#831,.T.);
#532=EDGE_CURVE('',#622,#610,#832,.T.);
#533=EDGE_CURVE('',#611,#623,#833,.T.);
#534=EDGE_CURVE('',#614,#606,#834,.T.);
#535=EDGE_CURVE('',#607,#615,#835,.T.);
#536=EDGE_CURVE('',#602,#594,#836,.T.);
#537=EDGE_CURVE('',#595,#603,#837,.T.);
#538=EDGE_CURVE('',#662,#670,#838,.T.);
#539=EDGE_CURVE('',#619,#661,#839,.T.);
#540=EDGE_CURVE('',#660,#618,#840,.T.);
#541=EDGE_CURVE('',#616,#659,#841,.T.);
#542=EDGE_CURVE('',#608,#620,#842,.T.);
#543=EDGE_CURVE('',#604,#612,#843,.T.);
#544=EDGE_CURVE('',#592,#600,#844,.T.);
#545=EDGE_CURVE('',#643,#596,#845,.T.);
#546=EDGE_CURVE('',#598,#642,#846,.T.);
#547=EDGE_CURVE('',#648,#599,#847,.T.);
#548=EDGE_CURVE('',#665,#647,#848,.T.);
#549=EDGE_CURVE('',#666,#664,#849,.T.);
#550=EDGE_CURVE('',#669,#667,#850,.T.);
#551=EDGE_CURVE('',#671,#668,#851,.T.);
#552=VERTEX_POINT('',#1691);
#553=VERTEX_POINT('',#1692);
#554=VERTEX_POINT('',#1694);
#555=VERTEX_POINT('',#1696);
#556=VERTEX_POINT('',#1700);
#557=VERTEX_POINT('',#1701);
#558=VERTEX_POINT('',#1703);
#559=VERTEX_POINT('',#1705);
#560=VERTEX_POINT('',#1709);
#561=VERTEX_POINT('',#1710);
#562=VERTEX_POINT('',#1712);
#563=VERTEX_POINT('',#1714);
#564=VERTEX_POINT('',#1718);
#565=VERTEX_POINT('',#1719);
#566=VERTEX_POINT('',#1721);
#567=VERTEX_POINT('',#1723);
#568=VERTEX_POINT('',#1727);
#569=VERTEX_POINT('',#1728);
#570=VERTEX_POINT('',#1730);
#571=VERTEX_POINT('',#1732);
#572=VERTEX_POINT('',#1736);
#573=VERTEX_POINT('',#1737);
#574=VERTEX_POINT('',#1739);
#575=VERTEX_POINT('',#1741);
#576=VERTEX_POINT('',#1745);
#577=VERTEX_POINT('',#1746);
#578=VERTEX_POINT('',#1748);
#579=VERTEX_POINT('',#1750);
#580=VERTEX_POINT('',#1754);
#581=VERTEX_POINT('',#1755);
#582=VERTEX_POINT('',#1757);
#583=VERTEX_POINT('',#1759);
#584=VERTEX_POINT('',#1763);
#585=VERTEX_POINT('',#1764);
#586=VERTEX_POINT('',#1766);
#587=VERTEX_POINT('',#1768);
#588=VERTEX_POINT('',#1772);
#589=VERTEX_POINT('',#1773);
#590=VERTEX_POINT('',#1775);
#591=VERTEX_POINT('',#1777);
#592=VERTEX_POINT('',#1781);
#593=VERTEX_POINT('',#1782);
#594=VERTEX_POINT('',#1787);
#595=VERTEX_POINT('',#1789);
#596=VERTEX_POINT('',#1793);
#597=VERTEX_POINT('',#1795);
#598=VERTEX_POINT('',#1799);
#599=VERTEX_POINT('',#1800);
#600=VERTEX_POINT('',#1805);
#601=VERTEX_POINT('',#1807);
#602=VERTEX_POINT('',#1811);
#603=VERTEX_POINT('',#1812);
#604=VERTEX_POINT('',#1817);
#605=VERTEX_POINT('',#1818);
#606=VERTEX_POINT('',#1823);
#607=VERTEX_POINT('',#1825);
#608=VERTEX_POINT('',#1829);
#609=VERTEX_POINT('',#1830);
#610=VERTEX_POINT('',#1835);
#611=VERTEX_POINT('',#1837);
#612=VERTEX_POINT('',#1841);
#613=VERTEX_POINT('',#1843);
#614=VERTEX_POINT('',#1847);
#615=VERTEX_POINT('',#1848);
#616=VERTEX_POINT('',#1853);
#617=VERTEX_POINT('',#1854);
#618=VERTEX_POINT('',#1859);
#619=VERTEX_POINT('',#1861);
#620=VERTEX_POINT('',#1865);
#621=VERTEX_POINT('',#1867);
#622=VERTEX_POINT('',#1871);
#623=VERTEX_POINT('',#1872);
#624=VERTEX_POINT('',#1877);
#625=VERTEX_POINT('',#1878);
#626=VERTEX_POINT('',#1880);
#627=VERTEX_POINT('',#1882);
#628=VERTEX_POINT('',#1886);
#629=VERTEX_POINT('',#1887);
#630=VERTEX_POINT('',#1889);
#631=VERTEX_POINT('',#1891);
#632=VERTEX_POINT('',#1895);
#633=VERTEX_POINT('',#1896);
#634=VERTEX_POINT('',#1898);
#635=VERTEX_POINT('',#1900);
#636=VERTEX_POINT('',#1904);
#637=VERTEX_POINT('',#1905);
#638=VERTEX_POINT('',#1907);
#639=VERTEX_POINT('',#1909);
#640=VERTEX_POINT('',#1914);
#641=VERTEX_POINT('',#1916);
#642=VERTEX_POINT('',#1923);
#643=VERTEX_POINT('',#1924);
#644=VERTEX_POINT('',#1927);
#645=VERTEX_POINT('',#1929);
#646=VERTEX_POINT('',#1931);
#647=VERTEX_POINT('',#1933);
#648=VERTEX_POINT('',#1935);
#649=VERTEX_POINT('',#1940);
#650=VERTEX_POINT('',#1942);
#651=VERTEX_POINT('',#1945);
#652=VERTEX_POINT('',#1947);
#653=VERTEX_POINT('',#1950);
#654=VERTEX_POINT('',#1952);
#655=VERTEX_POINT('',#1955);
#656=VERTEX_POINT('',#1957);
#657=VERTEX_POINT('',#1959);
#658=VERTEX_POINT('',#1962);
#659=VERTEX_POINT('',#1966);
#660=VERTEX_POINT('',#1968);
#661=VERTEX_POINT('',#1971);
#662=VERTEX_POINT('',#1973);
#663=VERTEX_POINT('',#1978);
#664=VERTEX_POINT('',#1982);
#665=VERTEX_POINT('',#1986);
#666=VERTEX_POINT('',#1990);
#667=VERTEX_POINT('',#1994);
#668=VERTEX_POINT('',#1998);
#669=VERTEX_POINT('',#2002);
#670=VERTEX_POINT('',#2006);
#671=VERTEX_POINT('',#2010);
#672=LINE('',#1690,#852);
#673=LINE('',#1693,#853);
#674=LINE('',#1695,#854);
#675=LINE('',#1697,#855);
#676=LINE('',#1699,#856);
#677=LINE('',#1702,#857);
#678=LINE('',#1704,#858);
#679=LINE('',#1706,#859);
#680=LINE('',#1708,#860);
#681=LINE('',#1711,#861);
#682=LINE('',#1713,#862);
#683=LINE('',#1715,#863);
#684=LINE('',#1717,#864);
#685=LINE('',#1720,#865);
#686=LINE('',#1722,#866);
#687=LINE('',#1724,#867);
#688=LINE('',#1726,#868);
#689=LINE('',#1729,#869);
#690=LINE('',#1731,#870);
#691=LINE('',#1733,#871);
#692=LINE('',#1735,#872);
#693=LINE('',#1738,#873);
#694=LINE('',#1740,#874);
#695=LINE('',#1742,#875);
#696=LINE('',#1744,#876);
#697=LINE('',#1747,#877);
#698=LINE('',#1749,#878);
#699=LINE('',#1751,#879);
#700=LINE('',#1753,#880);
#701=LINE('',#1756,#881);
#702=LINE('',#1758,#882);
#703=LINE('',#1760,#883);
#704=LINE('',#1762,#884);
#705=LINE('',#1765,#885);
#706=LINE('',#1767,#886);
#707=LINE('',#1769,#887);
#708=LINE('',#1771,#888);
#709=LINE('',#1774,#889);
#710=LINE('',#1776,#890);
#711=LINE('',#1778,#891);
#712=LINE('',#1780,#892);
#713=LINE('',#1783,#893);
#714=LINE('',#1784,#894);
#715=LINE('',#1786,#895);
#716=LINE('',#1788,#896);
#717=LINE('',#1790,#897);
#718=LINE('',#1792,#898);
#719=LINE('',#1794,#899);
#720=LINE('',#1796,#900);
#721=LINE('',#1798,#901);
#722=LINE('',#1801,#902);
#723=LINE('',#1802,#903);
#724=LINE('',#1804,#904);
#725=LINE('',#1806,#905);
#726=LINE('',#1808,#906);
#727=LINE('',#1810,#907);
#728=LINE('',#1813,#908);
#729=LINE('',#1814,#909);
#730=LINE('',#1816,#910);
#731=LINE('',#1819,#911);
#732=LINE('',#1820,#912);
#733=LINE('',#1822,#913);
#734=LINE('',#1824,#914);
#735=LINE('',#1826,#915);
#736=LINE('',#1828,#916);
#737=LINE('',#1831,#917);
#738=LINE('',#1832,#918);
#739=LINE('',#1834,#919);
#740=LINE('',#1836,#920);
#741=LINE('',#1838,#921);
#742=LINE('',#1840,#922);
#743=LINE('',#1842,#923);
#744=LINE('',#1844,#924);
#745=LINE('',#1846,#925);
#746=LINE('',#1849,#926);
#747=LINE('',#1850,#927);
#748=LINE('',#1852,#928);
#749=LINE('',#1855,#929);
#750=LINE('',#1856,#930);
#751=LINE('',#1858,#931);
#752=LINE('',#1860,#932);
#753=LINE('',#1862,#933);
#754=LINE('',#1864,#934);
#755=LINE('',#1866,#935);
#756=LINE('',#1868,#936);
#757=LINE('',#1870,#937);
#758=LINE('',#1873,#938);
#759=LINE('',#1874,#939);
#760=LINE('',#1876,#940);
#761=LINE('',#1879,#941);
#762=LINE('',#1881,#942);
#763=LINE('',#1883,#943);
#764=LINE('',#1885,#944);
#765=LINE('',#1888,#945);
#766=LINE('',#1890,#946);
#767=LINE('',#1892,#947);
#768=LINE('',#1894,#948);
#769=LINE('',#1897,#949);
#770=LINE('',#1899,#950);
#771=LINE('',#1901,#951);
#772=LINE('',#1903,#952);
#773=LINE('',#1906,#953);
#774=LINE('',#1908,#954);
#775=LINE('',#1910,#955);
#776=LINE('',#1912,#956);
#777=LINE('',#1913,#957);
#778=LINE('',#1915,#958);
#779=LINE('',#1917,#959);
#780=LINE('',#1918,#960);
#781=LINE('',#1919,#961);
#782=LINE('',#1920,#962);
#783=LINE('',#1922,#963);
#784=LINE('',#1925,#964);
#785=LINE('',#1926,#965);
#786=LINE('',#1928,#966);
#787=LINE('',#1930,#967);
#788=LINE('',#1932,#968);
#789=LINE('',#1934,#969);
#790=LINE('',#1936,#970);
#791=LINE('',#1937,#971);
#792=LINE('',#1939,#972);
#793=LINE('',#1941,#973);
#794=LINE('',#1943,#974);
#795=LINE('',#1944,#975);
#796=LINE('',#1946,#976);
#797=LINE('',#1948,#977);
#798=LINE('',#1949,#978);
#799=LINE('',#1951,#979);
#800=LINE('',#1953,#980);
#801=LINE('',#1954,#981);
#802=LINE('',#1956,#982);
#803=LINE('',#1958,#983);
#804=LINE('',#1960,#984);
#805=LINE('',#1961,#985);
#806=LINE('',#1963,#986);
#807=LINE('',#1965,#987);
#808=LINE('',#1967,#988);
#809=LINE('',#1969,#989);
#810=LINE('',#1970,#990);
#811=LINE('',#1972,#991);
#812=LINE('',#1974,#992);
#813=LINE('',#1975,#993);
#814=LINE('',#1977,#994);
#815=LINE('',#1979,#995);
#816=LINE('',#1981,#996);
#817=LINE('',#1983,#997);
#818=LINE('',#1985,#998);
#819=LINE('',#1987,#999);
#820=LINE('',#1989,#1000);
#821=LINE('',#1991,#1001);
#822=LINE('',#1993,#1002);
#823=LINE('',#1995,#1003);
#824=LINE('',#1997,#1004);
#825=LINE('',#1999,#1005);
#826=LINE('',#2001,#1006);
#827=LINE('',#2003,#1007);
#828=LINE('',#2005,#1008);
#829=LINE('',#2007,#1009);
#830=LINE('',#2009,#1010);
#831=LINE('',#2011,#1011);
#832=LINE('',#2013,#1012);
#833=LINE('',#2014,#1013);
#834=LINE('',#2015,#1014);
#835=LINE('',#2016,#1015);
#836=LINE('',#2017,#1016);
#837=LINE('',#2018,#1017);
#838=LINE('',#2019,#1018);
#839=LINE('',#2020,#1019);
#840=LINE('',#2021,#1020);
#841=LINE('',#2022,#1021);
#842=LINE('',#2023,#1022);
#843=LINE('',#2024,#1023);
#844=LINE('',#2025,#1024);
#845=LINE('',#2026,#1025);
#846=LINE('',#2027,#1026);
#847=LINE('',#2028,#1027);
#848=LINE('',#2029,#1028);
#849=LINE('',#2030,#1029);
#850=LINE('',#2031,#1030);
#851=LINE('',#2032,#1031);
#852=VECTOR('',#1380,1.);
#853=VECTOR('',#1381,1.);
#854=VECTOR('',#1382,1.);
#855=VECTOR('',#1383,1.);
#856=VECTOR('',#1386,1.);
#857=VECTOR('',#1387,1.);
#858=VECTOR('',#1388,1.);
#859=VECTOR('',#1389,1.);
#860=VECTOR('',#1392,1.);
#861=VECTOR('',#1393,1.);
#862=VECTOR('',#1394,1.);
#863=VECTOR('',#1395,1.);
#864=VECTOR('',#1398,1.);
#865=VECTOR('',#1399,1.);
#866=VECTOR('',#1400,1.);
#867=VECTOR('',#1401,1.);
#868=VECTOR('',#1404,1.);
#869=VECTOR('',#1405,1.);
#870=VECTOR('',#1406,1.);
#871=VECTOR('',#1407,1.);
#872=VECTOR('',#1410,1.);
#873=VECTOR('',#1411,1.);
#874=VECTOR('',#1412,1.);
#875=VECTOR('',#1413,1.);
#876=VECTOR('',#1416,1.);
#877=VECTOR('',#1417,1.);
#878=VECTOR('',#1418,1.);
#879=VECTOR('',#1419,1.);
#880=VECTOR('',#1422,1.);
#881=VECTOR('',#1423,1.);
#882=VECTOR('',#1424,1.);
#883=VECTOR('',#1425,1.);
#884=VECTOR('',#1428,1.);
#885=VECTOR('',#1429,1.);
#886=VECTOR('',#1430,1.);
#887=VECTOR('',#1431,1.);
#888=VECTOR('',#1434,1.);
#889=VECTOR('',#1435,1.);
#890=VECTOR('',#1436,1.);
#891=VECTOR('',#1437,1.);
#892=VECTOR('',#1440,1.);
#893=VECTOR('',#1441,1.);
#894=VECTOR('',#1442,1.);
#895=VECTOR('',#1445,1.);
#896=VECTOR('',#1446,1.);
#897=VECTOR('',#1447,1.);
#898=VECTOR('',#1450,1.);
#899=VECTOR('',#1451,1.);
#900=VECTOR('',#1452,1.);
#901=VECTOR('',#1455,1.);
#902=VECTOR('',#1456,1.);
#903=VECTOR('',#1457,1.);
#904=VECTOR('',#1460,1.);
#905=VECTOR('',#1461,1.);
#906=VECTOR('',#1462,1.);
#907=VECTOR('',#1465,1.);
#908=VECTOR('',#1466,1.);
#909=VECTOR('',#1467,1.);
#910=VECTOR('',#1470,1.);
#911=VECTOR('',#1471,1.);
#912=VECTOR('',#1472,1.);
#913=VECTOR('',#1475,1.);
#914=VECTOR('',#1476,1.);
#915=VECTOR('',#1477,1.);
#916=VECTOR('',#1480,1.);
#917=VECTOR('',#1481,1.);
#918=VECTOR('',#1482,1.);
#919=VECTOR('',#1485,1.);
#920=VECTOR('',#1486,1.);
#921=VECTOR('',#1487,1.);
#922=VECTOR('',#1490,1.);
#923=VECTOR('',#1491,1.);
#924=VECTOR('',#1492,1.);
#925=VECTOR('',#1495,1.);
#926=VECTOR('',#1496,1.);
#927=VECTOR('',#1497,1.);
#928=VECTOR('',#1500,1.);
#929=VECTOR('',#1501,1.);
#930=VECTOR('',#1502,1.);
#931=VECTOR('',#1505,1.);
#932=VECTOR('',#1506,1.);
#933=VECTOR('',#1507,1.);
#934=VECTOR('',#1510,1.);
#935=VECTOR('',#1511,1.);
#936=VECTOR('',#1512,1.);
#937=VECTOR('',#1515,1.);
#938=VECTOR('',#1516,1.);
#939=VECTOR('',#1517,1.);
#940=VECTOR('',#1520,1.);
#941=VECTOR('',#1521,1.);
#942=VECTOR('',#1522,1.);
#943=VECTOR('',#1523,1.);
#944=VECTOR('',#1526,1.);
#945=VECTOR('',#1527,1.);
#946=VECTOR('',#1528,1.);
#947=VECTOR('',#1529,1.);
#948=VECTOR('',#1532,1.);
#949=VECTOR('',#1533,1.);
#950=VECTOR('',#1534,1.);
#951=VECTOR('',#1535,1.);
#952=VECTOR('',#1538,1.);
#953=VECTOR('',#1539,1.);
#954=VECTOR('',#1540,1.);
#955=VECTOR('',#1541,1.);
#956=VECTOR('',#1544,1.);
#957=VECTOR('',#1545,1.);
#958=VECTOR('',#1546,1.);
#959=VECTOR('',#1547,1.);
#960=VECTOR('',#1548,1.);
#961=VECTOR('',#1549,1.);
#962=VECTOR('',#1550,1.);
#963=VECTOR('',#1553,1.);
#964=VECTOR('',#1554,1.);
#965=VECTOR('',#1555,1.);
#966=VECTOR('',#1556,1.);
#967=VECTOR('',#1557,1.);
#968=VECTOR('',#1558,1.);
#969=VECTOR('',#1559,1.);
#970=VECTOR('',#1560,1.);
#971=VECTOR('',#1561,1.);
#972=VECTOR('',#1564,1.);
#973=VECTOR('',#1565,1.);
#974=VECTOR('',#1566,1.);
#975=VECTOR('',#1567,1.);
#976=VECTOR('',#1568,1.);
#977=VECTOR('',#1569,1.);
#978=VECTOR('',#1570,1.);
#979=VECTOR('',#1571,1.);
#980=VECTOR('',#1572,1.);
#981=VECTOR('',#1573,1.);
#982=VECTOR('',#1574,1.);
#983=VECTOR('',#1575,1.);
#984=VECTOR('',#1576,1.);
#985=VECTOR('',#1577,1.);
#986=VECTOR('',#1578,1.);
#987=VECTOR('',#1581,1.);
#988=VECTOR('',#1582,1.);
#989=VECTOR('',#1583,1.);
#990=VECTOR('',#1584,1.);
#991=VECTOR('',#1585,1.);
#992=VECTOR('',#1586,1.);
#993=VECTOR('',#1587,1.);
#994=VECTOR('',#1590,1.);
#995=VECTOR('',#1591,1.);
#996=VECTOR('',#1594,1.);
#997=VECTOR('',#1595,1.);
#998=VECTOR('',#1598,1.);
#999=VECTOR('',#1599,1.);
#1000=VECTOR('',#1602,1.);
#1001=VECTOR('',#1603,1.);
#1002=VECTOR('',#1606,1.);
#1003=VECTOR('',#1607,1.);
#1004=VECTOR('',#1610,1.);
#1005=VECTOR('',#1611,1.);
#1006=VECTOR('',#1614,1.);
#1007=VECTOR('',#1615,1.);
#1008=VECTOR('',#1618,1.);
#1009=VECTOR('',#1619,1.);
#1010=VECTOR('',#1622,1.);
#1011=VECTOR('',#1623,1.);
#1012=VECTOR('',#1626,1.);
#1013=VECTOR('',#1627,1.);
#1014=VECTOR('',#1628,1.);
#1015=VECTOR('',#1629,1.);
#1016=VECTOR('',#1630,1.);
#1017=VECTOR('',#1631,1.);
#1018=VECTOR('',#1632,1.);
#1019=VECTOR('',#1633,1.);
#1020=VECTOR('',#1634,1.);
#1021=VECTOR('',#1635,1.);
#1022=VECTOR('',#1636,1.);
#1023=VECTOR('',#1637,1.);
#1024=VECTOR('',#1638,1.);
#1025=VECTOR('',#1639,1.);
#1026=VECTOR('',#1640,1.);
#1027=VECTOR('',#1641,1.);
#1028=VECTOR('',#1642,1.);
#1029=VECTOR('',#1643,1.);
#1030=VECTOR('',#1644,1.);
#1031=VECTOR('',#1645,1.);
#1032=EDGE_LOOP('',(#12,#13,#14,#15));
#1033=EDGE_LOOP('',(#16,#17,#18,#19));
#1034=EDGE_LOOP('',(#20,#21,#22,#23));
#1035=EDGE_LOOP('',(#24,#25,#26,#27));
#1036=EDGE_LOOP('',(#28,#29,#30,#31));
#1037=EDGE_LOOP('',(#32,#33,#34,#35));
#1038=EDGE_LOOP('',(#36,#37,#38,#39));
#1039=EDGE_LOOP('',(#40,#41,#42,#43));
#1040=EDGE_LOOP('',(#44,#45,#46,#47));
#1041=EDGE_LOOP('',(#48,#49,#50,#51));
#1042=EDGE_LOOP('',(#52,#53,#54,#55));
#1043=EDGE_LOOP('',(#56,#57,#58,#59));
#1044=EDGE_LOOP('',(#60,#61,#62,#63));
#1045=EDGE_LOOP('',(#64,#65,#66,#67));
#1046=EDGE_LOOP('',(#68,#69,#70,#71));
#1047=EDGE_LOOP('',(#72,#73,#74,#75));
#1048=EDGE_LOOP('',(#76,#77,#78,#79));
#1049=EDGE_LOOP('',(#80,#81,#82,#83));
#1050=EDGE_LOOP('',(#84,#85,#86,#87));
#1051=EDGE_LOOP('',(#88,#89,#90,#91));
#1052=EDGE_LOOP('',(#92,#93,#94,#95));
#1053=EDGE_LOOP('',(#96,#97,#98,#99));
#1054=EDGE_LOOP('',(#100,#101,#102,#103));
#1055=EDGE_LOOP('',(#104,#105,#106,#107));
#1056=EDGE_LOOP('',(#108,#109,#110,#111));
#1057=EDGE_LOOP('',(#112,#113,#114,#115));
#1058=EDGE_LOOP('',(#116,#117,#118,#119));
#1059=EDGE_LOOP('',(#120,#121,#122,#123));
#1060=EDGE_LOOP('',(#124,#125,#126,#127));
#1061=EDGE_LOOP('',(#128,#129,#130,#131));
#1062=EDGE_LOOP('',(#132,#133,#134,#135,#136,#137,#138,#139,#140,#141,#142,
#143,#144,#145,#146,#147,#148,#149,#150,#151));
#1063=EDGE_LOOP('',(#152,#153,#154,#155,#156,#157,#158,#159,#160,#161,#162,
#163));
#1064=EDGE_LOOP('',(#164,#165,#166,#167,#168,#169,#170,#171,#172,#173,#174,
#175,#176,#177,#178,#179,#180,#181,#182,#183));
#1065=EDGE_LOOP('',(#184,#185,#186,#187,#188,#189,#190,#191,#192,#193,#194,
#195));
#1066=EDGE_LOOP('',(#196,#197,#198,#199));
#1067=EDGE_LOOP('',(#200,#201,#202,#203));
#1068=EDGE_LOOP('',(#204,#205,#206,#207));
#1069=EDGE_LOOP('',(#208,#209,#210,#211));
#1070=EDGE_LOOP('',(#212,#213,#214,#215));
#1071=EDGE_LOOP('',(#216,#217,#218,#219));
#1072=EDGE_LOOP('',(#220,#221,#222,#223));
#1073=EDGE_LOOP('',(#224,#225,#226,#227));
#1074=EDGE_LOOP('',(#228,#229,#230,#231));
#1075=EDGE_LOOP('',(#232,#233,#234,#235));
#1076=EDGE_LOOP('',(#236,#237,#238,#239));
#1077=EDGE_LOOP('',(#240,#241,#242,#243));
#1078=EDGE_LOOP('',(#244,#245,#246,#247,#248,#249,#250,#251,#252,#253,#254,
#255,#256,#257,#258,#259,#260,#261,#262,#263,#264,#265,#266,#267,#268,#269,
#270,#271,#272,#273,#274,#275,#276,#277,#278,#279,#280,#281,#282,#283,#284,
#285,#286,#287));
#1079=EDGE_LOOP('',(#288,#289,#290,#291));
#1080=EDGE_LOOP('',(#292,#293,#294,#295));
#1081=EDGE_LOOP('',(#296,#297,#298,#299));
#1082=EDGE_LOOP('',(#300,#301,#302,#303));
#1083=EDGE_LOOP('',(#304,#305,#306,#307));
#1084=EDGE_LOOP('',(#308,#309,#310,#311));
#1085=EDGE_LOOP('',(#312,#313,#314,#315));
#1086=EDGE_LOOP('',(#316,#317,#318,#319));
#1087=EDGE_LOOP('',(#320,#321,#322,#323));
#1088=EDGE_LOOP('',(#324,#325,#326,#327));
#1089=EDGE_LOOP('',(#328,#329,#330,#331));
#1090=EDGE_LOOP('',(#332,#333,#334,#335));
#1091=EDGE_LOOP('',(#336,#337,#338,#339));
#1092=EDGE_LOOP('',(#340,#341,#342,#343));
#1093=EDGE_LOOP('',(#344,#345,#346,#347));
#1094=EDGE_LOOP('',(#348,#349,#350,#351));
#1095=EDGE_LOOP('',(#352,#353,#354,#355));
#1096=EDGE_LOOP('',(#356,#357,#358,#359));
#1097=EDGE_LOOP('',(#360,#361,#362,#363));
#1098=EDGE_LOOP('',(#364,#365,#366,#367));
#1099=EDGE_LOOP('',(#368,#369,#370,#371));
#1100=FACE_BOUND('',#1032,.T.);
#1101=FACE_BOUND('',#1033,.T.);
#1102=FACE_BOUND('',#1034,.T.);
#1103=FACE_BOUND('',#1035,.T.);
#1104=FACE_BOUND('',#1036,.T.);
#1105=FACE_BOUND('',#1037,.T.);
#1106=FACE_BOUND('',#1038,.T.);
#1107=FACE_BOUND('',#1039,.T.);
#1108=FACE_BOUND('',#1040,.T.);
#1109=FACE_BOUND('',#1041,.T.);
#1110=FACE_BOUND('',#1042,.T.);
#1111=FACE_BOUND('',#1043,.T.);
#1112=FACE_BOUND('',#1044,.T.);
#1113=FACE_BOUND('',#1045,.T.);
#1114=FACE_BOUND('',#1046,.T.);
#1115=FACE_BOUND('',#1047,.T.);
#1116=FACE_BOUND('',#1048,.T.);
#1117=FACE_BOUND('',#1049,.T.);
#1118=FACE_BOUND('',#1050,.T.);
#1119=FACE_BOUND('',#1051,.T.);
#1120=FACE_BOUND('',#1052,.T.);
#1121=FACE_BOUND('',#1053,.T.);
#1122=FACE_BOUND('',#1054,.T.);
#1123=FACE_BOUND('',#1055,.T.);
#1124=FACE_BOUND('',#1056,.T.);
#1125=FACE_BOUND('',#1057,.T.);
#1126=FACE_BOUND('',#1058,.T.);
#1127=FACE_BOUND('',#1059,.T.);
#1128=FACE_BOUND('',#1060,.T.);
#1129=FACE_BOUND('',#1061,.T.);
#1130=FACE_BOUND('',#1062,.T.);
#1131=FACE_BOUND('',#1063,.T.);
#1132=FACE_BOUND('',#1064,.T.);
#1133=FACE_BOUND('',#1065,.T.);
#1134=FACE_BOUND('',#1066,.T.);
#1135=FACE_BOUND('',#1067,.T.);
#1136=FACE_BOUND('',#1068,.T.);
#1137=FACE_BOUND('',#1069,.T.);
#1138=FACE_BOUND('',#1070,.T.);
#1139=FACE_BOUND('',#1071,.T.);
#1140=FACE_BOUND('',#1072,.T.);
#1141=FACE_BOUND('',#1073,.T.);
#1142=FACE_BOUND('',#1074,.T.);
#1143=FACE_BOUND('',#1075,.T.);
#1144=FACE_BOUND('',#1076,.T.);
#1145=FACE_BOUND('',#1077,.T.);
#1146=FACE_BOUND('',#1078,.T.);
#1147=FACE_BOUND('',#1079,.T.);
#1148=FACE_BOUND('',#1080,.T.);
#1149=FACE_BOUND('',#1081,.T.);
#1150=FACE_BOUND('',#1082,.T.);
#1151=FACE_BOUND('',#1083,.T.);
#1152=FACE_BOUND('',#1084,.T.);
#1153=FACE_BOUND('',#1085,.T.);
#1154=FACE_BOUND('',#1086,.T.);
#1155=FACE_BOUND('',#1087,.T.);
#1156=FACE_BOUND('',#1088,.T.);
#1157=FACE_BOUND('',#1089,.T.);
#1158=FACE_BOUND('',#1090,.T.);
#1159=FACE_BOUND('',#1091,.T.);
#1160=FACE_BOUND('',#1092,.T.);
#1161=FACE_BOUND('',#1093,.T.);
#1162=FACE_BOUND('',#1094,.T.);
#1163=FACE_BOUND('',#1095,.T.);
#1164=FACE_BOUND('',#1096,.T.);
#1165=FACE_BOUND('',#1097,.T.);
#1166=FACE_BOUND('',#1098,.T.);
#1167=FACE_BOUND('',#1099,.T.);
#1168=PLANE('',#1311);
#1169=PLANE('',#1312);
#1170=PLANE('',#1313);
#1171=PLANE('',#1314);
#1172=PLANE('',#1315);
#1173=PLANE('',#1316);
#1174=PLANE('',#1317);
#1175=PLANE('',#1318);
#1176=PLANE('',#1319);
#1177=PLANE('',#1320);
#1178=PLANE('',#1321);
#1179=PLANE('',#1322);
#1180=PLANE('',#1323);
#1181=PLANE('',#1324);
#1182=PLANE('',#1325);
#1183=PLANE('',#1326);
#1184=PLANE('',#1327);
#1185=PLANE('',#1328);
#1186=PLANE('',#1329);
#1187=PLANE('',#1330);
#1188=PLANE('',#1331);
#1189=PLANE('',#1332);
#1190=PLANE('',#1333);
#1191=PLANE('',#1334);
#1192=PLANE('',#1335);
#1193=PLANE('',#1336);
#1194=PLANE('',#1337);
#1195=PLANE('',#1338);
#1196=PLANE('',#1339);
#1197=PLANE('',#1340);
#1198=PLANE('',#1341);
#1199=PLANE('',#1342);
#1200=PLANE('',#1343);
#1201=PLANE('',#1344);
#1202=PLANE('',#1345);
#1203=PLANE('',#1346);
#1204=PLANE('',#1347);
#1205=PLANE('',#1348);
#1206=PLANE('',#1349);
#1207=PLANE('',#1350);
#1208=PLANE('',#1351);
#1209=PLANE('',#1352);
#1210=PLANE('',#1353);
#1211=PLANE('',#1354);
#1212=PLANE('',#1355);
#1213=PLANE('',#1356);
#1214=PLANE('',#1357);
#1215=PLANE('',#1358);
#1216=PLANE('',#1359);
#1217=PLANE('',#1360);
#1218=PLANE('',#1361);
#1219=PLANE('',#1362);
#1220=PLANE('',#1363);
#1221=PLANE('',#1364);
#1222=PLANE('',#1365);
#1223=PLANE('',#1366);
#1224=PLANE('',#1367);
#1225=PLANE('',#1368);
#1226=PLANE('',#1369);
#1227=PLANE('',#1370);
#1228=PLANE('',#1371);
#1229=PLANE('',#1372);
#1230=PLANE('',#1373);
#1231=PLANE('',#1374);
#1232=PLANE('',#1375);
#1233=ADVANCED_FACE('',(#1100),#1168,.T.);
#1234=ADVANCED_FACE('',(#1101),#1169,.T.);
#1235=ADVANCED_FACE('',(#1102),#1170,.T.);
#1236=ADVANCED_FACE('',(#1103),#1171,.T.);
#1237=ADVANCED_FACE('',(#1104),#1172,.T.);
#1238=ADVANCED_FACE('',(#1105),#1173,.T.);
#1239=ADVANCED_FACE('',(#1106),#1174,.T.);
#1240=ADVANCED_FACE('',(#1107),#1175,.T.);
#1241=ADVANCED_FACE('',(#1108),#1176,.T.);
#1242=ADVANCED_FACE('',(#1109),#1177,.T.);
#1243=ADVANCED_FACE('',(#1110),#1178,.F.);
#1244=ADVANCED_FACE('',(#1111),#1179,.F.);
#1245=ADVANCED_FACE('',(#1112),#1180,.F.);
#1246=ADVANCED_FACE('',(#1113),#1181,.F.);
#1247=ADVANCED_FACE('',(#1114),#1182,.F.);
#1248=ADVANCED_FACE('',(#1115),#1183,.F.);
#1249=ADVANCED_FACE('',(#1116),#1184,.F.);
#1250=ADVANCED_FACE('',(#1117),#1185,.F.);
#1251=ADVANCED_FACE('',(#1118),#1186,.F.);
#1252=ADVANCED_FACE('',(#1119),#1187,.F.);
#1253=ADVANCED_FACE('',(#1120),#1188,.F.);
#1254=ADVANCED_FACE('',(#1121),#1189,.F.);
#1255=ADVANCED_FACE('',(#1122),#1190,.F.);
#1256=ADVANCED_FACE('',(#1123),#1191,.F.);
#1257=ADVANCED_FACE('',(#1124),#1192,.F.);
#1258=ADVANCED_FACE('',(#1125),#1193,.F.);
#1259=ADVANCED_FACE('',(#1126),#1194,.T.);
#1260=ADVANCED_FACE('',(#1127),#1195,.T.);
#1261=ADVANCED_FACE('',(#1128),#1196,.T.);
#1262=ADVANCED_FACE('',(#1129),#1197,.T.);
#1263=ADVANCED_FACE('',(#1130),#1198,.F.);
#1264=ADVANCED_FACE('',(#1131),#1199,.F.);
#1265=ADVANCED_FACE('',(#1132),#1200,.F.);
#1266=ADVANCED_FACE('',(#1133),#1201,.F.);
#1267=ADVANCED_FACE('',(#1134),#1202,.T.);
#1268=ADVANCED_FACE('',(#1135),#1203,.F.);
#1269=ADVANCED_FACE('',(#1136),#1204,.F.);
#1270=ADVANCED_FACE('',(#1137),#1205,.F.);
#1271=ADVANCED_FACE('',(#1138),#1206,.F.);
#1272=ADVANCED_FACE('',(#1139),#1207,.F.);
#1273=ADVANCED_FACE('',(#1140),#1208,.F.);
#1274=ADVANCED_FACE('',(#1141),#1209,.F.);
#1275=ADVANCED_FACE('',(#1142),#1210,.F.);
#1276=ADVANCED_FACE('',(#1143,#1144,#1145,#1146),#1211,.T.);
#1277=ADVANCED_FACE('',(#1147),#1212,.F.);
#1278=ADVANCED_FACE('',(#1148),#1213,.F.);
#1279=ADVANCED_FACE('',(#1149),#1214,.F.);
#1280=ADVANCED_FACE('',(#1150),#1215,.F.);
#1281=ADVANCED_FACE('',(#1151),#1216,.F.);
#1282=ADVANCED_FACE('',(#1152),#1217,.F.);
#1283=ADVANCED_FACE('',(#1153),#1218,.F.);
#1284=ADVANCED_FACE('',(#1154),#1219,.F.);
#1285=ADVANCED_FACE('',(#1155),#1220,.F.);
#1286=ADVANCED_FACE('',(#1156),#1221,.F.);
#1287=ADVANCED_FACE('',(#1157),#1222,.F.);
#1288=ADVANCED_FACE('',(#1158),#1223,.F.);
#1289=ADVANCED_FACE('',(#1159),#1224,.F.);
#1290=ADVANCED_FACE('',(#1160),#1225,.F.);
#1291=ADVANCED_FACE('',(#1161),#1226,.F.);
#1292=ADVANCED_FACE('',(#1162),#1227,.F.);
#1293=ADVANCED_FACE('',(#1163),#1228,.F.);
#1294=ADVANCED_FACE('',(#1164),#1229,.F.);
#1295=ADVANCED_FACE('',(#1165),#1230,.F.);
#1296=ADVANCED_FACE('',(#1166),#1231,.F.);
#1297=ADVANCED_FACE('',(#1167),#1232,.F.);
#1298=CLOSED_SHELL('',(#1233,#1234,#1235,#1236,#1237,#1238,#1239,#1240,
#1241,#1242,#1243,#1244,#1245,#1246,#1247,#1248,#1249,#1250,#1251,#1252,
#1253,#1254,#1255,#1256,#1257,#1258,#1259,#1260,#1261,#1262,#1263,#1264,
#1265,#1266,#1267,#1268,#1269,#1270,#1271,#1272,#1273,#1274,#1275,#1276,
#1277,#1278,#1279,#1280,#1281,#1282,#1283,#1284,#1285,#1286,#1287,#1288,
#1289,#1290,#1291,#1292,#1293,#1294,#1295,#1296,#1297));
#1299=STYLED_ITEM('',(#1300),#1307);
#1300=PRESENTATION_STYLE_ASSIGNMENT((#1301));
#1301=SURFACE_STYLE_USAGE(.BOTH.,#1302);
#1302=SURFACE_SIDE_STYLE('',(#1303));
#1303=SURFACE_STYLE_FILL_AREA(#1304);
#1304=FILL_AREA_STYLE('',(#1305));
#1305=FILL_AREA_STYLE_COLOUR('',#1306);
#1306=COLOUR_RGB('',0.349019607843138,0.584313725490196,0.854901960784314);
#1307=MANIFOLD_SOLID_BREP('Heat_Sink',#1298);
#1308=SHAPE_DEFINITION_REPRESENTATION(#2060,#1309);
#1309=SHAPE_REPRESENTATION('Heat_Sink',(#1310),#2055);
#1310=AXIS2_PLACEMENT_3D('',#1688,#1376,#1377);
#1311=AXIS2_PLACEMENT_3D('',#1689,#1378,#1379);
#1312=AXIS2_PLACEMENT_3D('',#1698,#1384,#1385);
#1313=AXIS2_PLACEMENT_3D('',#1707,#1390,#1391);
#1314=AXIS2_PLACEMENT_3D('',#1716,#1396,#1397);
#1315=AXIS2_PLACEMENT_3D('',#1725,#1402,#1403);
#1316=AXIS2_PLACEMENT_3D('',#1734,#1408,#1409);
#1317=AXIS2_PLACEMENT_3D('',#1743,#1414,#1415);
#1318=AXIS2_PLACEMENT_3D('',#1752,#1420,#1421);
#1319=AXIS2_PLACEMENT_3D('',#1761,#1426,#1427);
#1320=AXIS2_PLACEMENT_3D('',#1770,#1432,#1433);
#1321=AXIS2_PLACEMENT_3D('',#1779,#1438,#1439);
#1322=AXIS2_PLACEMENT_3D('',#1785,#1443,#1444);
#1323=AXIS2_PLACEMENT_3D('',#1791,#1448,#1449);
#1324=AXIS2_PLACEMENT_3D('',#1797,#1453,#1454);
#1325=AXIS2_PLACEMENT_3D('',#1803,#1458,#1459);
#1326=AXIS2_PLACEMENT_3D('',#1809,#1463,#1464);
#1327=AXIS2_PLACEMENT_3D('',#1815,#1468,#1469);
#1328=AXIS2_PLACEMENT_3D('',#1821,#1473,#1474);
#1329=AXIS2_PLACEMENT_3D('',#1827,#1478,#1479);
#1330=AXIS2_PLACEMENT_3D('',#1833,#1483,#1484);
#1331=AXIS2_PLACEMENT_3D('',#1839,#1488,#1489);
#1332=AXIS2_PLACEMENT_3D('',#1845,#1493,#1494);
#1333=AXIS2_PLACEMENT_3D('',#1851,#1498,#1499);
#1334=AXIS2_PLACEMENT_3D('',#1857,#1503,#1504);
#1335=AXIS2_PLACEMENT_3D('',#1863,#1508,#1509);
#1336=AXIS2_PLACEMENT_3D('',#1869,#1513,#1514);
#1337=AXIS2_PLACEMENT_3D('',#1875,#1518,#1519);
#1338=AXIS2_PLACEMENT_3D('',#1884,#1524,#1525);
#1339=AXIS2_PLACEMENT_3D('',#1893,#1530,#1531);
#1340=AXIS2_PLACEMENT_3D('',#1902,#1536,#1537);
#1341=AXIS2_PLACEMENT_3D('',#1911,#1542,#1543);
#1342=AXIS2_PLACEMENT_3D('',#1921,#1551,#1552);
#1343=AXIS2_PLACEMENT_3D('',#1938,#1562,#1563);
#1344=AXIS2_PLACEMENT_3D('',#1964,#1579,#1580);
#1345=AXIS2_PLACEMENT_3D('',#1976,#1588,#1589);
#1346=AXIS2_PLACEMENT_3D('',#1980,#1592,#1593);
#1347=AXIS2_PLACEMENT_3D('',#1984,#1596,#1597);
#1348=AXIS2_PLACEMENT_3D('',#1988,#1600,#1601);
#1349=AXIS2_PLACEMENT_3D('',#1992,#1604,#1605);
#1350=AXIS2_PLACEMENT_3D('',#1996,#1608,#1609);
#1351=AXIS2_PLACEMENT_3D('',#2000,#1612,#1613);
#1352=AXIS2_PLACEMENT_3D('',#2004,#1616,#1617);
#1353=AXIS2_PLACEMENT_3D('',#2008,#1620,#1621);
#1354=AXIS2_PLACEMENT_3D('',#2012,#1624,#1625);
#1355=AXIS2_PLACEMENT_3D('',#2033,#1646,#1647);
#1356=AXIS2_PLACEMENT_3D('',#2034,#1648,#1649);
#1357=AXIS2_PLACEMENT_3D('',#2035,#1650,#1651);
#1358=AXIS2_PLACEMENT_3D('',#2036,#1652,#1653);
#1359=AXIS2_PLACEMENT_3D('',#2037,#1654,#1655);
#1360=AXIS2_PLACEMENT_3D('',#2038,#1656,#1657);
#1361=AXIS2_PLACEMENT_3D('',#2039,#1658,#1659);
#1362=AXIS2_PLACEMENT_3D('',#2040,#1660,#1661);
#1363=AXIS2_PLACEMENT_3D('',#2041,#1662,#1663);
#1364=AXIS2_PLACEMENT_3D('',#2042,#1664,#1665);
#1365=AXIS2_PLACEMENT_3D('',#2043,#1666,#1667);
#1366=AXIS2_PLACEMENT_3D('',#2044,#1668,#1669);
#1367=AXIS2_PLACEMENT_3D('',#2045,#1670,#1671);
#1368=AXIS2_PLACEMENT_3D('',#2046,#1672,#1673);
#1369=AXIS2_PLACEMENT_3D('',#2047,#1674,#1675);
#1370=AXIS2_PLACEMENT_3D('',#2048,#1676,#1677);
#1371=AXIS2_PLACEMENT_3D('',#2049,#1678,#1679);
#1372=AXIS2_PLACEMENT_3D('',#2050,#1680,#1681);
#1373=AXIS2_PLACEMENT_3D('',#2051,#1682,#1683);
#1374=AXIS2_PLACEMENT_3D('',#2052,#1684,#1685);
#1375=AXIS2_PLACEMENT_3D('',#2053,#1686,#1687);
#1376=DIRECTION('',(0.,0.,1.));
#1377=DIRECTION('',(1.,0.,0.));
#1378=DIRECTION('',(0.,0.,1.));
#1379=DIRECTION('',(1.,0.,0.));
#1380=DIRECTION('',(0.,1.,0.));
#1381=DIRECTION('',(1.,0.,0.));
#1382=DIRECTION('',(0.,1.,0.));
#1383=DIRECTION('',(1.,1.79950568047387E-16,0.));
#1384=DIRECTION('',(0.,0.,1.));
#1385=DIRECTION('',(1.,0.,0.));
#1386=DIRECTION('',(0.,-1.,0.));
#1387=DIRECTION('',(1.,1.79950568047387E-16,0.));
#1388=DIRECTION('',(5.70632722360792E-18,1.,0.));
#1389=DIRECTION('',(1.,0.,0.));
#1390=DIRECTION('',(0.,0.,1.));
#1391=DIRECTION('',(1.,0.,0.));
#1392=DIRECTION('',(0.,1.,0.));
#1393=DIRECTION('',(-1.,0.,0.));
#1394=DIRECTION('',(0.,1.,0.));
#1395=DIRECTION('',(1.,0.,0.));
#1396=DIRECTION('',(0.,0.,1.));
#1397=DIRECTION('',(1.,0.,0.));
#1398=DIRECTION('',(0.,-1.,0.));
#1399=DIRECTION('',(1.,0.,0.));
#1400=DIRECTION('',(5.70632722360792E-18,1.,0.));
#1401=DIRECTION('',(-1.,0.,0.));
#1402=DIRECTION('',(0.,0.,1.));
#1403=DIRECTION('',(1.,0.,0.));
#1404=DIRECTION('',(0.,1.,0.));
#1405=DIRECTION('',(-1.,0.,0.));
#1406=DIRECTION('',(0.,1.,0.));
#1407=DIRECTION('',(1.,0.,0.));
#1408=DIRECTION('',(0.,0.,1.));
#1409=DIRECTION('',(1.,0.,0.));
#1410=DIRECTION('',(0.,-1.,0.));
#1411=DIRECTION('',(1.,0.,0.));
#1412=DIRECTION('',(5.70632722360792E-18,1.,0.));
#1413=DIRECTION('',(-1.,0.,0.));
#1414=DIRECTION('',(0.,0.,1.));
#1415=DIRECTION('',(1.,0.,0.));
#1416=DIRECTION('',(0.,1.,0.));
#1417=DIRECTION('',(-1.,0.,0.));
#1418=DIRECTION('',(0.,1.,0.));
#1419=DIRECTION('',(1.,0.,0.));
#1420=DIRECTION('',(0.,0.,1.));
#1421=DIRECTION('',(1.,0.,0.));
#1422=DIRECTION('',(0.,-1.,0.));
#1423=DIRECTION('',(1.,0.,0.));
#1424=DIRECTION('',(5.70632722360792E-18,1.,0.));
#1425=DIRECTION('',(-1.,0.,0.));
#1426=DIRECTION('',(0.,0.,1.));
#1427=DIRECTION('',(1.,0.,0.));
#1428=DIRECTION('',(0.,1.,0.));
#1429=DIRECTION('',(-1.,0.,0.));
#1430=DIRECTION('',(0.,1.,0.));
#1431=DIRECTION('',(-1.,0.,0.));
#1432=DIRECTION('',(0.,0.,1.));
#1433=DIRECTION('',(1.,0.,0.));
#1434=DIRECTION('',(0.,-1.,0.));
#1435=DIRECTION('',(-1.,0.,0.));
#1436=DIRECTION('',(5.70632722360792E-18,1.,0.));
#1437=DIRECTION('',(-1.,0.,0.));
#1438=DIRECTION('',(0.,-1.,0.));
#1439=DIRECTION('',(0.,0.,-1.));
#1440=DIRECTION('',(1.,0.,0.));
#1441=DIRECTION('',(0.,0.,1.));
#1442=DIRECTION('',(0.,0.,1.));
#1443=DIRECTION('',(0.,-1.,0.));
#1444=DIRECTION('',(0.,0.,-1.));
#1445=DIRECTION('',(0.,0.,-1.));
#1446=DIRECTION('',(1.,0.,0.));
#1447=DIRECTION('',(0.,0.,1.));
#1448=DIRECTION('',(0.,1.,0.));
#1449=DIRECTION('',(0.,0.,1.));
#1450=DIRECTION('',(0.,0.,-1.));
#1451=DIRECTION('',(-1.,0.,0.));
#1452=DIRECTION('',(0.,0.,1.));
#1453=DIRECTION('',(0.,1.,0.));
#1454=DIRECTION('',(0.,0.,1.));
#1455=DIRECTION('',(-1.,0.,0.));
#1456=DIRECTION('',(0.,0.,1.));
#1457=DIRECTION('',(0.,0.,-1.));
#1458=DIRECTION('',(0.,1.,0.));
#1459=DIRECTION('',(0.,0.,1.));
#1460=DIRECTION('',(0.,0.,-1.));
#1461=DIRECTION('',(-1.,0.,0.));
#1462=DIRECTION('',(0.,0.,1.));
#1463=DIRECTION('',(0.,1.,0.));
#1464=DIRECTION('',(0.,0.,1.));
#1465=DIRECTION('',(-1.,0.,0.));
#1466=DIRECTION('',(0.,0.,1.));
#1467=DIRECTION('',(0.,0.,-1.));
#1468=DIRECTION('',(0.,-1.,0.));
#1469=DIRECTION('',(0.,0.,-1.));
#1470=DIRECTION('',(1.,0.,0.));
#1471=DIRECTION('',(0.,0.,1.));
#1472=DIRECTION('',(0.,0.,1.));
#1473=DIRECTION('',(0.,-1.,0.));
#1474=DIRECTION('',(0.,0.,-1.));
#1475=DIRECTION('',(0.,0.,-1.));
#1476=DIRECTION('',(1.,0.,0.));
#1477=DIRECTION('',(0.,0.,1.));
#1478=DIRECTION('',(0.,-1.,0.));
#1479=DIRECTION('',(0.,0.,-1.));
#1480=DIRECTION('',(1.,0.,0.));
#1481=DIRECTION('',(0.,0.,1.));
#1482=DIRECTION('',(0.,0.,1.));
#1483=DIRECTION('',(0.,-1.,0.));
#1484=DIRECTION('',(0.,0.,-1.));
#1485=DIRECTION('',(0.,0.,-1.));
#1486=DIRECTION('',(1.,0.,0.));
#1487=DIRECTION('',(0.,0.,1.));
#1488=DIRECTION('',(0.,1.,0.));
#1489=DIRECTION('',(0.,0.,1.));
#1490=DIRECTION('',(0.,0.,-1.));
#1491=DIRECTION('',(-1.,0.,0.));
#1492=DIRECTION('',(0.,0.,1.));
#1493=DIRECTION('',(0.,1.,0.));
#1494=DIRECTION('',(0.,0.,1.));
#1495=DIRECTION('',(-1.,0.,0.));
#1496=DIRECTION('',(0.,0.,1.));
#1497=DIRECTION('',(0.,0.,-1.));
#1498=DIRECTION('',(0.,-1.,0.));
#1499=DIRECTION('',(1.,0.,0.));
#1500=DIRECTION('',(1.,1.79950568047387E-16,0.));
#1501=DIRECTION('',(0.,0.,1.));
#1502=DIRECTION('',(0.,0.,1.));
#1503=DIRECTION('',(0.,-1.,0.));
#1504=DIRECTION('',(1.,0.,0.));
#1505=DIRECTION('',(0.,0.,-1.));
#1506=DIRECTION('',(1.,1.79950568047387E-16,0.));
#1507=DIRECTION('',(0.,0.,1.));
#1508=DIRECTION('',(0.,1.,0.));
#1509=DIRECTION('',(0.,0.,1.));
#1510=DIRECTION('',(0.,0.,-1.));
#1511=DIRECTION('',(-1.,0.,0.));
#1512=DIRECTION('',(0.,0.,1.));
#1513=DIRECTION('',(0.,1.,0.));
#1514=DIRECTION('',(0.,0.,1.));
#1515=DIRECTION('',(-1.,0.,0.));
#1516=DIRECTION('',(0.,0.,1.));
#1517=DIRECTION('',(0.,0.,-1.));
#1518=DIRECTION('',(0.,0.,1.));
#1519=DIRECTION('',(1.,0.,0.));
#1520=DIRECTION('',(0.,-1.,0.));
#1521=DIRECTION('',(1.,1.79950568047387E-16,0.));
#1522=DIRECTION('',(0.,-1.,0.));
#1523=DIRECTION('',(1.,0.,0.));
#1524=DIRECTION('',(0.,0.,1.));
#1525=DIRECTION('',(1.,0.,0.));
#1526=DIRECTION('',(0.,-1.,0.));
#1527=DIRECTION('',(1.,0.,0.));
#1528=DIRECTION('',(0.,-1.,0.));
#1529=DIRECTION('',(-1.,0.,0.));
#1530=DIRECTION('',(0.,0.,1.));
#1531=DIRECTION('',(1.,0.,0.));
#1532=DIRECTION('',(0.,-1.,0.));
#1533=DIRECTION('',(1.,0.,0.));
#1534=DIRECTION('',(0.,-1.,0.));
#1535=DIRECTION('',(-1.,0.,0.));
#1536=DIRECTION('',(0.,0.,1.));
#1537=DIRECTION('',(1.,0.,0.));
#1538=DIRECTION('',(0.,-1.,0.));
#1539=DIRECTION('',(1.,0.,0.));
#1540=DIRECTION('',(0.,-1.,0.));
#1541=DIRECTION('',(-1.,0.,0.));
#1542=DIRECTION('',(-1.,0.,0.));
#1543=DIRECTION('',(0.,0.,1.));
#1544=DIRECTION('',(0.,1.,0.));
#1545=DIRECTION('',(0.,0.,-1.));
#1546=DIRECTION('',(0.,1.,0.));
#1547=DIRECTION('',(0.,0.,-1.));
#1548=DIRECTION('',(0.,1.,0.));
#1549=DIRECTION('',(0.,1.,0.));
#1550=DIRECTION('',(0.,1.,0.));
#1551=DIRECTION('',(0.,-1.,0.));
#1552=DIRECTION('',(0.,0.,-1.));
#1553=DIRECTION('',(1.,0.,0.));
#1554=DIRECTION('',(0.,0.,1.));
#1555=DIRECTION('',(-1.,0.,0.));
#1556=DIRECTION('',(0.,0.,-1.));
#1557=DIRECTION('',(-1.,0.,0.));
#1558=DIRECTION('',(0.,0.,1.));
#1559=DIRECTION('',(1.,0.,0.));
#1560=DIRECTION('',(0.,0.,1.));
#1561=DIRECTION('',(0.,0.,1.));
#1562=DIRECTION('',(1.,0.,0.));
#1563=DIRECTION('',(0.,0.,-1.));
#1564=DIRECTION('',(0.,0.,1.));
#1565=DIRECTION('',(0.,-1.,0.));
#1566=DIRECTION('',(0.,0.,1.));
#1567=DIRECTION('',(0.,0.,1.));
#1568=DIRECTION('',(0.,-1.,0.));
#1569=DIRECTION('',(0.,0.,1.));
#1570=DIRECTION('',(0.,0.,1.));
#1571=DIRECTION('',(0.,-1.,0.));
#1572=DIRECTION('',(0.,0.,1.));
#1573=DIRECTION('',(0.,0.,1.));
#1574=DIRECTION('',(0.,-1.,0.));
#1575=DIRECTION('',(0.,0.,1.));
#1576=DIRECTION('',(0.,-1.,0.));
#1577=DIRECTION('',(0.,-1.,0.));
#1578=DIRECTION('',(0.,0.,-1.));
#1579=DIRECTION('',(0.,1.,0.));
#1580=DIRECTION('',(0.,0.,1.));
#1581=DIRECTION('',(0.,0.,1.));
#1582=DIRECTION('',(-1.,0.,0.));
#1583=DIRECTION('',(0.,0.,1.));
#1584=DIRECTION('',(0.,0.,1.));
#1585=DIRECTION('',(-1.,0.,0.));
#1586=DIRECTION('',(0.,0.,1.));
#1587=DIRECTION('',(1.,0.,0.));
#1588=DIRECTION('',(0.,0.,1.));
#1589=DIRECTION('',(1.,0.,0.));
#1590=DIRECTION('',(0.,-1.,0.));
#1591=DIRECTION('',(-1.,0.,0.));
#1592=DIRECTION('',(0.,-1.,0.));
#1593=DIRECTION('',(0.,0.,-1.));
#1594=DIRECTION('',(0.,0.,-1.));
#1595=DIRECTION('',(1.,0.,0.));
#1596=DIRECTION('',(0.,1.,0.));
#1597=DIRECTION('',(0.,0.,1.));
#1598=DIRECTION('',(-1.,0.,0.));
#1599=DIRECTION('',(0.,0.,1.));
#1600=DIRECTION('',(0.,1.,0.));
#1601=DIRECTION('',(0.,0.,1.));
#1602=DIRECTION('',(-1.,0.,0.));
#1603=DIRECTION('',(0.,0.,1.));
#1604=DIRECTION('',(0.,-1.,0.));
#1605=DIRECTION('',(0.,0.,-1.));
#1606=DIRECTION('',(0.,0.,-1.));
#1607=DIRECTION('',(1.,0.,0.));
#1608=DIRECTION('',(0.,-1.,0.));
#1609=DIRECTION('',(0.,0.,-1.));
#1610=DIRECTION('',(0.,0.,-1.));
#1611=DIRECTION('',(1.,0.,0.));
#1612=DIRECTION('',(0.,1.,0.));
#1613=DIRECTION('',(0.,0.,1.));
#1614=DIRECTION('',(-1.,0.,0.));
#1615=DIRECTION('',(0.,0.,1.));
#1616=DIRECTION('',(0.,-1.,0.));
#1617=DIRECTION('',(1.,0.,0.));
#1618=DIRECTION('',(0.,0.,-1.));
#1619=DIRECTION('',(1.,1.79950568047387E-16,0.));
#1620=DIRECTION('',(0.,1.,0.));
#1621=DIRECTION('',(0.,0.,1.));
#1622=DIRECTION('',(-1.,0.,0.));
#1623=DIRECTION('',(0.,0.,1.));
#1624=DIRECTION('',(0.,0.,1.));
#1625=DIRECTION('',(1.,0.,0.));
#1626=DIRECTION('',(0.,1.,0.));
#1627=DIRECTION('',(-5.70632722360792E-18,-1.,0.));
#1628=DIRECTION('',(0.,1.,0.));
#1629=DIRECTION('',(-5.70632722360792E-18,-1.,0.));
#1630=DIRECTION('',(0.,1.,0.));
#1631=DIRECTION('',(-5.70632722360792E-18,-1.,0.));
#1632=DIRECTION('',(0.,1.,0.));
#1633=DIRECTION('',(-5.70632722360792E-18,-1.,0.));
#1634=DIRECTION('',(0.,1.,0.));
#1635=DIRECTION('',(0.,-1.,0.));
#1636=DIRECTION('',(0.,-1.,0.));
#1637=DIRECTION('',(0.,-1.,0.));
#1638=DIRECTION('',(0.,-1.,0.));
#1639=DIRECTION('',(0.,-1.,0.));
#1640=DIRECTION('',(0.,1.,0.));
#1641=DIRECTION('',(-5.70632722360792E-18,-1.,0.));
#1642=DIRECTION('',(0.,1.,0.));
#1643=DIRECTION('',(0.,1.,0.));
#1644=DIRECTION('',(0.,1.,0.));
#1645=DIRECTION('',(0.,1.,0.));
#1646=DIRECTION('',(-1.,0.,0.));
#1647=DIRECTION('',(0.,0.,1.));
#1648=DIRECTION('',(1.,-5.70632722360792E-18,0.));
#1649=DIRECTION('',(5.70632722360792E-18,1.,0.));
#1650=DIRECTION('',(-1.,0.,0.));
#1651=DIRECTION('',(0.,0.,1.));
#1652=DIRECTION('',(1.,0.,0.));
#1653=DIRECTION('',(0.,0.,-1.));
#1654=DIRECTION('',(-1.,0.,0.));
#1655=DIRECTION('',(0.,0.,1.));
#1656=DIRECTION('',(1.,-5.70632722360792E-18,0.));
#1657=DIRECTION('',(5.70632722360792E-18,1.,0.));
#1658=DIRECTION('',(-1.,0.,0.));
#1659=DIRECTION('',(0.,0.,1.));
#1660=DIRECTION('',(1.,0.,0.));
#1661=DIRECTION('',(0.,0.,-1.));
#1662=DIRECTION('',(-1.,0.,0.));
#1663=DIRECTION('',(0.,0.,1.));
#1664=DIRECTION('',(1.,-5.70632722360792E-18,0.));
#1665=DIRECTION('',(5.70632722360792E-18,1.,0.));
#1666=DIRECTION('',(-1.,0.,0.));
#1667=DIRECTION('',(0.,0.,1.));
#1668=DIRECTION('',(1.,0.,0.));
#1669=DIRECTION('',(0.,0.,-1.));
#1670=DIRECTION('',(-1.,0.,0.));
#1671=DIRECTION('',(0.,0.,1.));
#1672=DIRECTION('',(1.,-5.70632722360792E-18,0.));
#1673=DIRECTION('',(5.70632722360792E-18,1.,0.));
#1674=DIRECTION('',(-1.,0.,0.));
#1675=DIRECTION('',(0.,0.,1.));
#1676=DIRECTION('',(1.,0.,0.));
#1677=DIRECTION('',(0.,0.,-1.));
#1678=DIRECTION('',(1.,-5.70632722360792E-18,0.));
#1679=DIRECTION('',(5.70632722360792E-18,1.,0.));
#1680=DIRECTION('',(-1.,0.,0.));
#1681=DIRECTION('',(0.,0.,1.));
#1682=DIRECTION('',(1.,0.,0.));
#1683=DIRECTION('',(0.,0.,-1.));
#1684=DIRECTION('',(-1.,0.,0.));
#1685=DIRECTION('',(0.,0.,1.));
#1686=DIRECTION('',(0.,0.,1.));
#1687=DIRECTION('',(1.,0.,0.));
#1688=CARTESIAN_POINT('',(0.,0.,0.));
#1689=CARTESIAN_POINT('',(0.,0.,0.01388));
#1690=CARTESIAN_POINT('',(0.00317,-0.004805,0.01388));
#1691=CARTESIAN_POINT('',(0.00317,-0.004805,0.01388));
#1692=CARTESIAN_POINT('',(0.00317,-0.004035,0.01388));
#1693=CARTESIAN_POINT('',(0.00555,-0.004805,0.01388));
#1694=CARTESIAN_POINT('',(0.00555,-0.004805,0.01388));
#1695=CARTESIAN_POINT('',(0.00555,-0.004805,0.01388));
#1696=CARTESIAN_POINT('',(0.00555,-0.004035,0.01388));
#1697=CARTESIAN_POINT('',(0.00555,-0.004035,0.01388));
#1698=CARTESIAN_POINT('',(0.,0.,0.01388));
#1699=CARTESIAN_POINT('',(0.00192,-0.004805,0.01388));
#1700=CARTESIAN_POINT('',(0.00192,-0.004035,0.01388));
#1701=CARTESIAN_POINT('',(0.00192,-0.004805,0.01388));
#1702=CARTESIAN_POINT('',(0.00555,-0.004035,0.01388));
#1703=CARTESIAN_POINT('',(-0.000460000000000018,-0.004035,0.01388));
#1704=CARTESIAN_POINT('',(-0.000460000000000018,0.004695,0.01388));
#1705=CARTESIAN_POINT('',(-0.000460000000000018,-0.004805,0.01388));
#1706=CARTESIAN_POINT('',(0.00555,-0.004805,0.01388));
#1707=CARTESIAN_POINT('',(0.,0.,0.01388));
#1708=CARTESIAN_POINT('',(0.00317,-0.004805,0.01388));
#1709=CARTESIAN_POINT('',(0.00317,-0.0026225,0.01388));
#1710=CARTESIAN_POINT('',(0.00317,-0.0018525,0.01388));
#1711=CARTESIAN_POINT('',(0.00555,-0.0026225,0.01388));
#1712=CARTESIAN_POINT('',(0.00555,-0.0026225,0.01388));
#1713=CARTESIAN_POINT('',(0.00555,-0.004805,0.01388));
#1714=CARTESIAN_POINT('',(0.00555,-0.0018525,0.01388));
#1715=CARTESIAN_POINT('',(0.00555,-0.0018525,0.01388));
#1716=CARTESIAN_POINT('',(0.,0.,0.01388));
#1717=CARTESIAN_POINT('',(0.00192,-0.004805,0.01388));
#1718=CARTESIAN_POINT('',(0.00192,-0.0018525,0.01388));
#1719=CARTESIAN_POINT('',(0.00192,-0.0026225,0.01388));
#1720=CARTESIAN_POINT('',(0.00555,-0.0018525,0.01388));
#1721=CARTESIAN_POINT('',(-0.000460000000000018,-0.0018525,0.01388));
#1722=CARTESIAN_POINT('',(-0.000460000000000018,0.004695,0.01388));
#1723=CARTESIAN_POINT('',(-0.000460000000000018,-0.0026225,0.01388));
#1724=CARTESIAN_POINT('',(0.00555,-0.0026225,0.01388));
#1725=CARTESIAN_POINT('',(0.,0.,0.01388));
#1726=CARTESIAN_POINT('',(0.00317,-0.004805,0.01388));
#1727=CARTESIAN_POINT('',(0.00317,0.0017425,0.01388));
#1728=CARTESIAN_POINT('',(0.00317,0.0025125,0.01388));
#1729=CARTESIAN_POINT('',(-0.00409,0.0017425,0.01388));
#1730=CARTESIAN_POINT('',(0.00555,0.0017425,0.01388));
#1731=CARTESIAN_POINT('',(0.00555,-0.004805,0.01388));
#1732=CARTESIAN_POINT('',(0.00555,0.0025125,0.01388));
#1733=CARTESIAN_POINT('',(0.00555,0.0025125,0.01388));
#1734=CARTESIAN_POINT('',(0.,0.,0.01388));
#1735=CARTESIAN_POINT('',(0.00192,-0.004805,0.01388));
#1736=CARTESIAN_POINT('',(0.00192,0.0025125,0.01388));
#1737=CARTESIAN_POINT('',(0.00192,0.0017425,0.01388));
#1738=CARTESIAN_POINT('',(0.00555,0.0025125,0.01388));
#1739=CARTESIAN_POINT('',(-0.000460000000000018,0.0025125,0.01388));
#1740=CARTESIAN_POINT('',(-0.000460000000000018,0.004695,0.01388));
#1741=CARTESIAN_POINT('',(-0.000460000000000018,0.0017425,0.01388));
#1742=CARTESIAN_POINT('',(-0.00409,0.0017425,0.01388));
#1743=CARTESIAN_POINT('',(0.,0.,0.01388));
#1744=CARTESIAN_POINT('',(0.00317,-0.004805,0.01388));
#1745=CARTESIAN_POINT('',(0.00317,-0.00044,0.01388));
#1746=CARTESIAN_POINT('',(0.00317,0.00033,0.01388));
#1747=CARTESIAN_POINT('',(0.00555,-0.00044,0.01388));
#1748=CARTESIAN_POINT('',(0.00555,-0.00044,0.01388));
#1749=CARTESIAN_POINT('',(0.00555,-0.004805,0.01388));
#1750=CARTESIAN_POINT('',(0.00555,0.00033,0.01388));
#1751=CARTESIAN_POINT('',(-0.00409,0.00033,0.01388));
#1752=CARTESIAN_POINT('',(0.,0.,0.01388));
#1753=CARTESIAN_POINT('',(0.00192,-0.004805,0.01388));
#1754=CARTESIAN_POINT('',(0.00192,0.00033,0.01388));
#1755=CARTESIAN_POINT('',(0.00192,-0.00044,0.01388));
#1756=CARTESIAN_POINT('',(-0.00409,0.00033,0.01388));
#1757=CARTESIAN_POINT('',(-0.000460000000000018,0.00033,0.01388));
#1758=CARTESIAN_POINT('',(-0.000460000000000018,0.004695,0.01388));
#1759=CARTESIAN_POINT('',(-0.000460000000000018,-0.00044,0.01388));
#1760=CARTESIAN_POINT('',(0.00555,-0.00044,0.01388));
#1761=CARTESIAN_POINT('',(0.,0.,0.01388));
#1762=CARTESIAN_POINT('',(0.00317,-0.004805,0.01388));
#1763=CARTESIAN_POINT('',(0.00317,0.003925,0.01388));
#1764=CARTESIAN_POINT('',(0.00317,0.004695,0.01388));
#1765=CARTESIAN_POINT('',(0.00555,0.003925,0.01388));
#1766=CARTESIAN_POINT('',(0.00555,0.003925,0.01388));
#1767=CARTESIAN_POINT('',(0.00555,-0.004805,0.01388));
#1768=CARTESIAN_POINT('',(0.00555,0.004695,0.01388));
#1769=CARTESIAN_POINT('',(0.00555,0.004695,0.01388));
#1770=CARTESIAN_POINT('',(0.,0.,0.01388));
#1771=CARTESIAN_POINT('',(0.00192,-0.004805,0.01388));
#1772=CARTESIAN_POINT('',(0.00192,0.004695,0.01388));
#1773=CARTESIAN_POINT('',(0.00192,0.003925,0.01388));
#1774=CARTESIAN_POINT('',(0.00555,0.004695,0.01388));
#1775=CARTESIAN_POINT('',(-0.000460000000000018,0.004695,0.01388));
#1776=CARTESIAN_POINT('',(-0.000460000000000018,0.004695,0.01388));
#1777=CARTESIAN_POINT('',(-0.000460000000000018,0.003925,0.01388));
#1778=CARTESIAN_POINT('',(0.00555,0.003925,0.01388));
#1779=CARTESIAN_POINT('',(0.00555,0.0025125,0.00388));
#1780=CARTESIAN_POINT('',(0.00555,0.0025125,0.00388));
#1781=CARTESIAN_POINT('',(0.00317,0.0025125,0.00388));
#1782=CARTESIAN_POINT('',(0.00555,0.0025125,0.00388));
#1783=CARTESIAN_POINT('',(0.00317,0.0025125,0.00388));
#1784=CARTESIAN_POINT('',(0.00555,0.0025125,0.00388));
#1785=CARTESIAN_POINT('',(0.00555,0.0025125,0.00388));
#1786=CARTESIAN_POINT('',(0.00192,0.0025125,0.00388));
#1787=CARTESIAN_POINT('',(0.00192,0.0025125,0.00388));
#1788=CARTESIAN_POINT('',(0.00555,0.0025125,0.00388));
#1789=CARTESIAN_POINT('',(-0.000460000000000018,0.0025125,0.00388));
#1790=CARTESIAN_POINT('',(-0.000460000000000018,0.0025125,0.00388));
#1791=CARTESIAN_POINT('',(0.00555,0.003925,0.00388));
#1792=CARTESIAN_POINT('',(0.00317,0.003925,0.00388));
#1793=CARTESIAN_POINT('',(0.00317,0.003925,0.00388));
#1794=CARTESIAN_POINT('',(0.00555,0.003925,0.00388));
#1795=CARTESIAN_POINT('',(0.00555,0.003925,0.00388));
#1796=CARTESIAN_POINT('',(0.00555,0.003925,0.00388));
#1797=CARTESIAN_POINT('',(0.00555,0.003925,0.00388));
#1798=CARTESIAN_POINT('',(0.00555,0.003925,0.00388));
#1799=CARTESIAN_POINT('',(0.00192,0.003925,0.00388));
#1800=CARTESIAN_POINT('',(-0.000460000000000018,0.003925,0.00388));
#1801=CARTESIAN_POINT('',(0.00192,0.003925,0.00388));
#1802=CARTESIAN_POINT('',(-0.000460000000000018,0.003925,0.00388));
#1803=CARTESIAN_POINT('',(-0.00409,0.0017425,0.00388));
#1804=CARTESIAN_POINT('',(0.00317,0.0017425,0.00388));
#1805=CARTESIAN_POINT('',(0.00317,0.0017425,0.00388));
#1806=CARTESIAN_POINT('',(-0.00409,0.0017425,0.00388));
#1807=CARTESIAN_POINT('',(0.00555,0.0017425,0.00388));
#1808=CARTESIAN_POINT('',(0.00555,0.0017425,0.00388));
#1809=CARTESIAN_POINT('',(-0.00409,0.0017425,0.00388));
#1810=CARTESIAN_POINT('',(-0.00409,0.0017425,0.00388));
#1811=CARTESIAN_POINT('',(0.00192,0.0017425,0.00388));
#1812=CARTESIAN_POINT('',(-0.000460000000000018,0.0017425,0.00388));
#1813=CARTESIAN_POINT('',(0.00192,0.0017425,0.00388));
#1814=CARTESIAN_POINT('',(-0.000460000000000018,0.0017425,0.00388));
#1815=CARTESIAN_POINT('',(-0.00409,0.00033,0.00388));
#1816=CARTESIAN_POINT('',(-0.00409,0.00033,0.00388));
#1817=CARTESIAN_POINT('',(0.00317,0.00033,0.00388));
#1818=CARTESIAN_POINT('',(0.00555,0.00033,0.00388));
#1819=CARTESIAN_POINT('',(0.00317,0.00033,0.00388));
#1820=CARTESIAN_POINT('',(0.00555,0.00033,0.00388));
#1821=CARTESIAN_POINT('',(-0.00409,0.00033,0.00388));
#1822=CARTESIAN_POINT('',(0.00192,0.00033,0.00388));
#1823=CARTESIAN_POINT('',(0.00192,0.00033,0.00388));
#1824=CARTESIAN_POINT('',(-0.00409,0.00033,0.00388));
#1825=CARTESIAN_POINT('',(-0.000460000000000018,0.00033,0.00388));
#1826=CARTESIAN_POINT('',(-0.000460000000000018,0.00033,0.00388));
#1827=CARTESIAN_POINT('',(0.00555,-0.0018525,0.00388));
#1828=CARTESIAN_POINT('',(0.00555,-0.0018525,0.00388));
#1829=CARTESIAN_POINT('',(0.00317,-0.0018525,0.00388));
#1830=CARTESIAN_POINT('',(0.00555,-0.0018525,0.00388));
#1831=CARTESIAN_POINT('',(0.00317,-0.0018525,0.00388));
#1832=CARTESIAN_POINT('',(0.00555,-0.0018525,0.00388));
#1833=CARTESIAN_POINT('',(0.00555,-0.0018525,0.00388));
#1834=CARTESIAN_POINT('',(0.00192,-0.0018525,0.00388));
#1835=CARTESIAN_POINT('',(0.00192,-0.0018525,0.00388));
#1836=CARTESIAN_POINT('',(0.00555,-0.0018525,0.00388));
#1837=CARTESIAN_POINT('',(-0.000460000000000018,-0.0018525,0.00388));
#1838=CARTESIAN_POINT('',(-0.000460000000000018,-0.0018525,0.00388));
#1839=CARTESIAN_POINT('',(0.00555,-0.00044,0.00388));
#1840=CARTESIAN_POINT('',(0.00317,-0.00044,0.00388));
#1841=CARTESIAN_POINT('',(0.00317,-0.00044,0.00388));
#1842=CARTESIAN_POINT('',(0.00555,-0.00044,0.00388));
#1843=CARTESIAN_POINT('',(0.00555,-0.00044,0.00388));
#1844=CARTESIAN_POINT('',(0.00555,-0.00044,0.00388));
#1845=CARTESIAN_POINT('',(0.00555,-0.00044,0.00388));
#1846=CARTESIAN_POINT('',(0.00555,-0.00044,0.00388));
#1847=CARTESIAN_POINT('',(0.00192,-0.00044,0.00388));
#1848=CARTESIAN_POINT('',(-0.000460000000000018,-0.00044,0.00388));
#1849=CARTESIAN_POINT('',(0.00192,-0.00044,0.00388));
#1850=CARTESIAN_POINT('',(-0.000460000000000018,-0.00044,0.00388));
#1851=CARTESIAN_POINT('',(0.00555,-0.004035,0.00388));
#1852=CARTESIAN_POINT('',(0.00555,-0.004035,0.00388));
#1853=CARTESIAN_POINT('',(0.00317,-0.004035,0.00388));
#1854=CARTESIAN_POINT('',(0.00555,-0.004035,0.00388));
#1855=CARTESIAN_POINT('',(0.00317,-0.004035,0.00388));
#1856=CARTESIAN_POINT('',(0.00555,-0.004035,0.00388));
#1857=CARTESIAN_POINT('',(0.00555,-0.004035,0.00388));
#1858=CARTESIAN_POINT('',(0.00192,-0.004035,0.00388));
#1859=CARTESIAN_POINT('',(0.00192,-0.004035,0.00388));
#1860=CARTESIAN_POINT('',(0.00555,-0.004035,0.00388));
#1861=CARTESIAN_POINT('',(-0.000460000000000018,-0.004035,0.00388));
#1862=CARTESIAN_POINT('',(-0.000460000000000018,-0.004035,0.00388));
#1863=CARTESIAN_POINT('',(0.00555,-0.0026225,0.00388));
#1864=CARTESIAN_POINT('',(0.00317,-0.0026225,0.00388));
#1865=CARTESIAN_POINT('',(0.00317,-0.0026225,0.00388));
#1866=CARTESIAN_POINT('',(0.00555,-0.0026225,0.00388));
#1867=CARTESIAN_POINT('',(0.00555,-0.0026225,0.00388));
#1868=CARTESIAN_POINT('',(0.00555,-0.0026225,0.00388));
#1869=CARTESIAN_POINT('',(0.00555,-0.0026225,0.00388));
#1870=CARTESIAN_POINT('',(0.00555,-0.0026225,0.00388));
#1871=CARTESIAN_POINT('',(0.00192,-0.0026225,0.00388));
#1872=CARTESIAN_POINT('',(-0.000460000000000018,-0.0026225,0.00388));
#1873=CARTESIAN_POINT('',(0.00192,-0.0026225,0.00388));
#1874=CARTESIAN_POINT('',(-0.000460000000000018,-0.0026225,0.00388));
#1875=CARTESIAN_POINT('',(0.,0.,0.01388));
#1876=CARTESIAN_POINT('',(-0.00171,0.004695,0.01388));
#1877=CARTESIAN_POINT('',(-0.00171,-0.004035,0.01388));
#1878=CARTESIAN_POINT('',(-0.00171,-0.004805,0.01388));
#1879=CARTESIAN_POINT('',(0.00555,-0.004035,0.01388));
#1880=CARTESIAN_POINT('',(-0.00409,-0.004035,0.01388));
#1881=CARTESIAN_POINT('',(-0.00409,-0.004805,0.01388));
#1882=CARTESIAN_POINT('',(-0.00409,-0.004805,0.01388));
#1883=CARTESIAN_POINT('',(0.00555,-0.004805,0.01388));
#1884=CARTESIAN_POINT('',(0.,0.,0.01388));
#1885=CARTESIAN_POINT('',(-0.00171,0.004695,0.01388));
#1886=CARTESIAN_POINT('',(-0.00171,-0.0018525,0.01388));
#1887=CARTESIAN_POINT('',(-0.00171,-0.0026225,0.01388));
#1888=CARTESIAN_POINT('',(0.00555,-0.0018525,0.01388));
#1889=CARTESIAN_POINT('',(-0.00409,-0.0018525,0.01388));
#1890=CARTESIAN_POINT('',(-0.00409,-0.004805,0.01388));
#1891=CARTESIAN_POINT('',(-0.00409,-0.0026225,0.01388));
#1892=CARTESIAN_POINT('',(0.00555,-0.0026225,0.01388));
#1893=CARTESIAN_POINT('',(0.,0.,0.01388));
#1894=CARTESIAN_POINT('',(-0.00171,0.004695,0.01388));
#1895=CARTESIAN_POINT('',(-0.00171,0.0025125,0.01388));
#1896=CARTESIAN_POINT('',(-0.00171,0.0017425,0.01388));
#1897=CARTESIAN_POINT('',(0.00555,0.0025125,0.01388));
#1898=CARTESIAN_POINT('',(-0.00409,0.0025125,0.01388));
#1899=CARTESIAN_POINT('',(-0.00409,-0.004805,0.01388));
#1900=CARTESIAN_POINT('',(-0.00409,0.0017425,0.01388));
#1901=CARTESIAN_POINT('',(-0.00409,0.0017425,0.01388));
#1902=CARTESIAN_POINT('',(0.,0.,0.01388));
#1903=CARTESIAN_POINT('',(-0.00171,0.004695,0.01388));
#1904=CARTESIAN_POINT('',(-0.00171,0.00033,0.01388));
#1905=CARTESIAN_POINT('',(-0.00171,-0.00044,0.01388));
#1906=CARTESIAN_POINT('',(-0.00409,0.00033,0.01388));
#1907=CARTESIAN_POINT('',(-0.00409,0.00033,0.01388));
#1908=CARTESIAN_POINT('',(-0.00409,-0.004805,0.01388));
#1909=CARTESIAN_POINT('',(-0.00409,-0.00044,0.01388));
#1910=CARTESIAN_POINT('',(0.00555,-0.00044,0.01388));
#1911=CARTESIAN_POINT('',(0.00555,-0.004805,0.01388));
#1912=CARTESIAN_POINT('',(0.00555,-0.004035,0.00388));
#1913=CARTESIAN_POINT('',(0.00555,-0.004805,0.01388));
#1914=CARTESIAN_POINT('',(0.00555,-0.004805,0.00163));
#1915=CARTESIAN_POINT('',(0.00555,-0.004805,0.00163));
#1916=CARTESIAN_POINT('',(0.00555,0.004695,0.00163));
#1917=CARTESIAN_POINT('',(0.00555,0.004695,0.01388));
#1918=CARTESIAN_POINT('',(0.00555,0.0025125,0.00388));
#1919=CARTESIAN_POINT('',(0.00555,0.00033,0.00388));
#1920=CARTESIAN_POINT('',(0.00555,-0.0018525,0.00388));
#1921=CARTESIAN_POINT('',(0.00555,0.004695,0.01388));
#1922=CARTESIAN_POINT('',(0.00317,0.004695,0.00388));
#1923=CARTESIAN_POINT('',(0.00192,0.004695,0.00388));
#1924=CARTESIAN_POINT('',(0.00317,0.004695,0.00388));
#1925=CARTESIAN_POINT('',(0.00317,0.004695,-0.0057018839483684));
#1926=CARTESIAN_POINT('',(0.00555,0.004695,0.00163));
#1927=CARTESIAN_POINT('',(-0.00409,0.004695,0.00163));
#1928=CARTESIAN_POINT('',(-0.00409,0.004695,0.01388));
#1929=CARTESIAN_POINT('',(-0.00409,0.004695,0.01388));
#1930=CARTESIAN_POINT('',(0.00555,0.004695,0.01388));
#1931=CARTESIAN_POINT('',(-0.00171,0.004695,0.01388));
#1932=CARTESIAN_POINT('',(-0.00171,0.004695,-0.0057018839483684));
#1933=CARTESIAN_POINT('',(-0.00171,0.004695,0.00388));
#1934=CARTESIAN_POINT('',(-0.000460000000000018,0.004695,0.00388));
#1935=CARTESIAN_POINT('',(-0.000460000000000018,0.004695,0.00388));
#1936=CARTESIAN_POINT('',(-0.000460000000000018,0.004695,-0.0057018839483684));
#1937=CARTESIAN_POINT('',(0.00192,0.004695,-0.0057018839483684));
#1938=CARTESIAN_POINT('',(-0.00409,-0.004805,0.01388));
#1939=CARTESIAN_POINT('',(-0.00409,-0.004035,0.00388));
#1940=CARTESIAN_POINT('',(-0.00409,-0.004035,0.00388));
#1941=CARTESIAN_POINT('',(-0.00409,-0.004035,0.00388));
#1942=CARTESIAN_POINT('',(-0.00409,-0.0026225,0.00388));
#1943=CARTESIAN_POINT('',(-0.00409,-0.0026225,0.00388));
#1944=CARTESIAN_POINT('',(-0.00409,-0.0018525,0.00388));
#1945=CARTESIAN_POINT('',(-0.00409,-0.0018525,0.00388));
#1946=CARTESIAN_POINT('',(-0.00409,-0.0018525,0.00388));
#1947=CARTESIAN_POINT('',(-0.00409,-0.00044,0.00388));
#1948=CARTESIAN_POINT('',(-0.00409,-0.00044,0.00388));
#1949=CARTESIAN_POINT('',(-0.00409,0.00033,0.00388));
#1950=CARTESIAN_POINT('',(-0.00409,0.00033,0.00388));
#1951=CARTESIAN_POINT('',(-0.00409,0.00033,0.00388));
#1952=CARTESIAN_POINT('',(-0.00409,0.0017425,0.00388));
#1953=CARTESIAN_POINT('',(-0.00409,0.0017425,0.00388));
#1954=CARTESIAN_POINT('',(-0.00409,0.0025125,0.00388));
#1955=CARTESIAN_POINT('',(-0.00409,0.0025125,0.00388));
#1956=CARTESIAN_POINT('',(-0.00409,0.0025125,0.00388));
#1957=CARTESIAN_POINT('',(-0.00409,0.003925,0.00388));
#1958=CARTESIAN_POINT('',(-0.00409,0.003925,0.00388));
#1959=CARTESIAN_POINT('',(-0.00409,0.003925,0.01388));
#1960=CARTESIAN_POINT('',(-0.00409,-0.004805,0.01388));
#1961=CARTESIAN_POINT('',(-0.00409,-0.004805,0.00163));
#1962=CARTESIAN_POINT('',(-0.00409,-0.004805,0.00163));
#1963=CARTESIAN_POINT('',(-0.00409,-0.004805,0.01388));
#1964=CARTESIAN_POINT('',(0.00555,-0.004805,0.01388));
#1965=CARTESIAN_POINT('',(0.00317,-0.004805,-0.0057018839483684));
#1966=CARTESIAN_POINT('',(0.00317,-0.004805,0.00388));
#1967=CARTESIAN_POINT('',(0.00317,-0.004805,0.00388));
#1968=CARTESIAN_POINT('',(0.00192,-0.004805,0.00388));
#1969=CARTESIAN_POINT('',(0.00192,-0.004805,-0.0057018839483684));
#1970=CARTESIAN_POINT('',(-0.000460000000000018,-0.004805,-0.0057018839483684));
#1971=CARTESIAN_POINT('',(-0.000460000000000018,-0.004805,0.00388));
#1972=CARTESIAN_POINT('',(-0.000460000000000018,-0.004805,0.00388));
#1973=CARTESIAN_POINT('',(-0.00171,-0.004805,0.00388));
#1974=CARTESIAN_POINT('',(-0.00171,-0.004805,-0.0057018839483684));
#1975=CARTESIAN_POINT('',(0.00555,-0.004805,0.00163));
#1976=CARTESIAN_POINT('',(0.,0.,0.01388));
#1977=CARTESIAN_POINT('',(-0.00171,0.004695,0.01388));
#1978=CARTESIAN_POINT('',(-0.00171,0.003925,0.01388));
#1979=CARTESIAN_POINT('',(0.00555,0.003925,0.01388));
#1980=CARTESIAN_POINT('',(0.00555,0.0025125,0.00388));
#1981=CARTESIAN_POINT('',(-0.00171,0.0025125,0.00388));
#1982=CARTESIAN_POINT('',(-0.00171,0.0025125,0.00388));
#1983=CARTESIAN_POINT('',(0.00555,0.0025125,0.00388));
#1984=CARTESIAN_POINT('',(0.00555,0.003925,0.00388));
#1985=CARTESIAN_POINT('',(0.00555,0.003925,0.00388));
#1986=CARTESIAN_POINT('',(-0.00171,0.003925,0.00388));
#1987=CARTESIAN_POINT('',(-0.00171,0.003925,0.00388));
#1988=CARTESIAN_POINT('',(-0.00409,0.0017425,0.00388));
#1989=CARTESIAN_POINT('',(-0.00409,0.0017425,0.00388));
#1990=CARTESIAN_POINT('',(-0.00171,0.0017425,0.00388));
#1991=CARTESIAN_POINT('',(-0.00171,0.0017425,0.00388));
#1992=CARTESIAN_POINT('',(-0.00409,0.00033,0.00388));
#1993=CARTESIAN_POINT('',(-0.00171,0.00033,0.00388));
#1994=CARTESIAN_POINT('',(-0.00171,0.00033,0.00388));
#1995=CARTESIAN_POINT('',(-0.00409,0.00033,0.00388));
#1996=CARTESIAN_POINT('',(0.00555,-0.0018525,0.00388));
#1997=CARTESIAN_POINT('',(-0.00171,-0.0018525,0.00388));
#1998=CARTESIAN_POINT('',(-0.00171,-0.0018525,0.00388));
#1999=CARTESIAN_POINT('',(0.00555,-0.0018525,0.00388));
#2000=CARTESIAN_POINT('',(0.00555,-0.00044,0.00388));
#2001=CARTESIAN_POINT('',(0.00555,-0.00044,0.00388));
#2002=CARTESIAN_POINT('',(-0.00171,-0.00044,0.00388));
#2003=CARTESIAN_POINT('',(-0.00171,-0.00044,0.00388));
#2004=CARTESIAN_POINT('',(0.00555,-0.004035,0.00388));
#2005=CARTESIAN_POINT('',(-0.00171,-0.004035,0.00388));
#2006=CARTESIAN_POINT('',(-0.00171,-0.004035,0.00388));
#2007=CARTESIAN_POINT('',(0.00555,-0.004035,0.00388));
#2008=CARTESIAN_POINT('',(0.00555,-0.0026225,0.00388));
#2009=CARTESIAN_POINT('',(0.00555,-0.0026225,0.00388));
#2010=CARTESIAN_POINT('',(-0.00171,-0.0026225,0.00388));
#2011=CARTESIAN_POINT('',(-0.00171,-0.0026225,0.00388));
#2012=CARTESIAN_POINT('',(0.,0.,0.00388));
#2013=CARTESIAN_POINT('',(0.00192,-0.004805,0.00388));
#2014=CARTESIAN_POINT('',(-0.000460000000000018,0.004695,0.00388));
#2015=CARTESIAN_POINT('',(0.00192,-0.004805,0.00388));
#2016=CARTESIAN_POINT('',(-0.000460000000000018,0.004695,0.00388));
#2017=CARTESIAN_POINT('',(0.00192,-0.004805,0.00388));
#2018=CARTESIAN_POINT('',(-0.000460000000000018,0.004695,0.00388));
#2019=CARTESIAN_POINT('',(-0.00171,0.004695,0.00388));
#2020=CARTESIAN_POINT('',(-0.000460000000000018,0.004695,0.00388));
#2021=CARTESIAN_POINT('',(0.00192,-0.004805,0.00388));
#2022=CARTESIAN_POINT('',(0.00317,-0.004805,0.00388));
#2023=CARTESIAN_POINT('',(0.00317,-0.004805,0.00388));
#2024=CARTESIAN_POINT('',(0.00317,-0.004805,0.00388));
#2025=CARTESIAN_POINT('',(0.00317,-0.004805,0.00388));
#2026=CARTESIAN_POINT('',(0.00317,-0.004805,0.00388));
#2027=CARTESIAN_POINT('',(0.00192,-0.004805,0.00388));
#2028=CARTESIAN_POINT('',(-0.000460000000000018,0.004695,0.00388));
#2029=CARTESIAN_POINT('',(-0.00171,0.004695,0.00388));
#2030=CARTESIAN_POINT('',(-0.00171,0.004695,0.00388));
#2031=CARTESIAN_POINT('',(-0.00171,0.004695,0.00388));
#2032=CARTESIAN_POINT('',(-0.00171,0.004695,0.00388));
#2033=CARTESIAN_POINT('',(-0.00171,0.004695,-0.0057018839483684));
#2034=CARTESIAN_POINT('',(-0.000460000000000018,0.004695,-0.0057018839483684));
#2035=CARTESIAN_POINT('',(0.00192,-0.004805,-0.0057018839483684));
#2036=CARTESIAN_POINT('',(0.00317,-0.004805,-0.0057018839483684));
#2037=CARTESIAN_POINT('',(-0.00171,0.004695,-0.0057018839483684));
#2038=CARTESIAN_POINT('',(-0.000460000000000018,0.004695,-0.0057018839483684));
#2039=CARTESIAN_POINT('',(0.00192,-0.004805,-0.0057018839483684));
#2040=CARTESIAN_POINT('',(0.00317,-0.004805,-0.0057018839483684));
#2041=CARTESIAN_POINT('',(-0.00171,0.004695,-0.0057018839483684));
#2042=CARTESIAN_POINT('',(-0.000460000000000018,0.004695,-0.0057018839483684));
#2043=CARTESIAN_POINT('',(0.00192,-0.004805,-0.0057018839483684));
#2044=CARTESIAN_POINT('',(0.00317,-0.004805,-0.0057018839483684));
#2045=CARTESIAN_POINT('',(-0.00171,0.004695,-0.0057018839483684));
#2046=CARTESIAN_POINT('',(-0.000460000000000018,0.004695,-0.0057018839483684));
#2047=CARTESIAN_POINT('',(0.00192,-0.004805,-0.0057018839483684));
#2048=CARTESIAN_POINT('',(0.00317,-0.004805,-0.0057018839483684));
#2049=CARTESIAN_POINT('',(-0.000460000000000018,0.004695,-0.0057018839483684));
#2050=CARTESIAN_POINT('',(-0.00171,0.004695,-0.0057018839483684));
#2051=CARTESIAN_POINT('',(0.00317,-0.004805,-0.0057018839483684));
#2052=CARTESIAN_POINT('',(0.00192,-0.004805,-0.0057018839483684));
#2053=CARTESIAN_POINT('',(-1.66533453693773E-17,6.66133814775094E-18,0.00163));
#2054=MECHANICAL_DESIGN_GEOMETRIC_PRESENTATION_REPRESENTATION('',(#1299),
#2055);
#2055=(
GEOMETRIC_REPRESENTATION_CONTEXT(3)
GLOBAL_UNCERTAINTY_ASSIGNED_CONTEXT((#2056))
GLOBAL_UNIT_ASSIGNED_CONTEXT((#2059,#2058,#2057))
REPRESENTATION_CONTEXT('Heat_Sink','TOP_LEVEL_ASSEMBLY_PART')
);
#2056=UNCERTAINTY_MEASURE_WITH_UNIT(LENGTH_MEASURE(1.E-6),#2059,
'DISTANCE_ACCURACY_VALUE','Maximum Tolerance applied to model');
#2057=(
NAMED_UNIT(*)
SI_UNIT($,.STERADIAN.)
SOLID_ANGLE_UNIT()
);
#2058=(
NAMED_UNIT(*)
PLANE_ANGLE_UNIT()
SI_UNIT($,.RADIAN.)
);
#2059=(
LENGTH_UNIT()
NAMED_UNIT(*)
SI_UNIT($,.METRE.)
);
#2060=PRODUCT_DEFINITION_SHAPE('','',#2061);
#2061=PRODUCT_DEFINITION('','',#2063,#2062);
#2062=PRODUCT_DEFINITION_CONTEXT('',#2069,'design');
#2063=PRODUCT_DEFINITION_FORMATION_WITH_SPECIFIED_SOURCE('','',#2065,
 .NOT_KNOWN.);
#2064=PRODUCT_RELATED_PRODUCT_CATEGORY('','',(#2065));
#2065=PRODUCT('Heat_Sink','Heat_Sink','Heat_Sink',(#2067));
#2066=PRODUCT_CATEGORY('','');
#2067=PRODUCT_CONTEXT('',#2069,'mechanical');
#2068=APPLICATION_PROTOCOL_DEFINITION('international standard',
'ap242_managed_model_based_3d_engineering',2020,#2069);
#2069=APPLICATION_CONTEXT('managed model based 3d engineering');
ENDSEC;
END-ISO-10303-21;
